<svg preserveAspectRatio="none" width="100%" height="100%" overflow="visible" style="display: block;" viewBox="0 0 8 8" fill="none" xmlns="http://www.w3.org/2000/svg">
<path id="Subtract" fill-rule="evenodd" clip-rule="evenodd" d="M4 0C6.20914 0 8 1.79086 8 4C8 6.20914 6.20914 8 4 8C1.79086 8 0 6.20914 0 4C0 1.79086 1.79086 0 4 0ZM4 5.00195C3.44748 5.00195 2.99961 5.44982 2.99961 6.00234C2.99961 6.55487 3.44748 7.00274 4 7.00274C4.55252 7.00274 5.00039 6.55487 5.00039 6.00234C5.00039 5.44982 4.55252 5.00195 4 5.00195ZM4 1.19891C3.558 1.19891 3.19969 1.55722 3.19969 1.99922V3.59984C3.19969 4.04184 3.558 4.40016 4 4.40016C4.442 4.40016 4.80031 4.04184 4.80031 3.59984V1.99922C4.80031 1.55722 4.442 1.19891 4 1.19891Z" fill="var(--fill-0, #6C779D)"/>
</svg>
