<svg preserveAspectRatio="none" width="100%" height="100%" overflow="visible" style="display: block;" viewBox="0 0 20 20" fill="none" xmlns="http://www.w3.org/2000/svg">
<path id="Vector (Stroke)" d="M11.3418 17.8877C11.8864 17.7958 12.4023 18.1634 12.4941 18.708C12.5859 19.2525 12.2193 19.7684 11.6748 19.8604C11.1296 19.9523 10.5699 20 10 20C9.43005 20 8.87037 19.9523 8.3252 19.8604C7.78072 19.7684 7.41409 19.2525 7.50586 18.708C7.59775 18.1634 8.11362 17.7958 8.6582 17.8877C9.09387 17.9612 9.54203 18 10 18C10.458 18 10.9061 17.9612 11.3418 17.8877ZM2.08008 14.3936C2.53023 14.0736 3.15464 14.1788 3.47461 14.6289C3.9959 15.3623 4.63773 16.0041 5.37109 16.5254C5.82125 16.8454 5.92642 17.4698 5.60645 17.9199C5.28647 18.3701 4.66206 18.4752 4.21191 18.1553C3.29646 17.5045 2.49552 16.7035 1.84473 15.7881C1.52476 15.3379 1.62995 14.7135 2.08008 14.3936ZM16.5254 14.6289C16.8454 14.1788 17.4698 14.0736 17.9199 14.3936C18.3701 14.7135 18.4762 15.3379 18.1562 15.7881C17.5053 16.7039 16.7039 17.5053 15.7881 18.1562C15.3379 18.4762 14.7135 18.3701 14.3936 17.9199C14.0736 17.4698 14.1788 16.8454 14.6289 16.5254C15.3623 16.0041 16.0041 15.3623 16.5254 14.6289ZM0 10C0 9.43005 0.0476592 8.87037 0.139648 8.3252C0.231575 7.78073 0.747506 7.41409 1.29199 7.50586C1.83658 7.59775 2.20419 8.11362 2.1123 8.6582C2.0388 9.09387 2 9.54203 2 10C2 10.458 2.0388 10.9061 2.1123 11.3418C2.20419 11.8864 1.83658 12.4023 1.29199 12.4941C0.747505 12.5859 0.231575 12.2193 0.139648 11.6748C0.0476605 11.1296 0 10.5699 0 10ZM18 10C18 9.54203 17.9612 9.09387 17.8877 8.6582C17.7958 8.11362 18.1634 7.59775 18.708 7.50586C19.2525 7.41409 19.7684 7.78073 19.8604 8.3252C19.9523 8.87037 20 9.43005 20 10C20 10.5699 19.9523 11.1296 19.8604 11.6748C19.7684 12.2193 19.2525 12.5859 18.708 12.4941C18.1634 12.4023 17.7958 11.8864 17.8877 11.3418C17.9612 10.9061 18 10.458 18 10ZM4.21191 1.84473C4.66206 1.52476 5.28647 1.62995 5.60645 2.08008C5.92642 2.53023 5.82125 3.15464 5.37109 3.47461C4.63773 3.9959 3.9959 4.63773 3.47461 5.37109C3.15464 5.82125 2.53023 5.92642 2.08008 5.60645C1.62995 5.28647 1.52476 4.66206 1.84473 4.21191C2.49551 3.29646 3.29646 2.49551 4.21191 1.84473ZM14.3936 2.08008C14.7135 1.62995 15.3379 1.52476 15.7881 1.84473C16.7035 2.49552 17.5045 3.29646 18.1553 4.21191C18.4752 4.66206 18.3701 5.28647 17.9199 5.60645C17.4698 5.92642 16.8454 5.82125 16.5254 5.37109C16.0041 4.63773 15.3623 3.9959 14.6289 3.47461C14.1788 3.15464 14.0736 2.53023 14.3936 2.08008ZM10 0C10.5699 0 11.1296 0.0476604 11.6748 0.139648C12.2193 0.231574 12.5859 0.747505 12.4941 1.29199C12.4023 1.83658 11.8864 2.20419 11.3418 2.1123C10.9061 2.0388 10.458 2 10 2C9.54203 2 9.09387 2.0388 8.6582 2.1123C8.11362 2.20419 7.59775 1.83658 7.50586 1.29199C7.41409 0.747506 7.78073 0.231575 8.3252 0.139648C8.87037 0.0476593 9.43005 0 10 0Z" fill="var(--fill-0, #6C779D)"/>
</svg>
