<svg preserveAspectRatio="none" width="100%" height="100%" overflow="visible" style="display: block;" viewBox="0 0 20 18" fill="none" xmlns="http://www.w3.org/2000/svg">
<path id="Vector" d="M7 13C3.68629 13 1 10.3137 1 7C1 3.68629 3.68629 1 7 1C9.4597 1 11.5737 2.48012 12.5 4.59829M19 11C19 14.3137 16.3137 17 13 17C10.3841 17 8.1591 15.3259 7.33811 12.9906C7.11911 12.3677 7 11.6978 7 11C7 7.7998 9.5055 5.1847 12.6619 5.00937C12.7738 5.00315 12.8865 5 13 5C16.3137 5 19 7.6863 19 11Z" stroke="var(--stroke-0, #6C779D)" stroke-width="2" stroke-linecap="round" stroke-linejoin="round"/>
</svg>
