<svg preserveAspectRatio="none" width="100%" height="100%" overflow="visible" style="display: block;" viewBox="0 0 17.1147 19" fill="none" xmlns="http://www.w3.org/2000/svg">
<path id="Vector" d="M8.11474 18H2.8116C1.63308 18 0.688441 16.9682 1.09724 15.8629C2.15075 13.0143 4.72361 11 8.11474 11C8.45664 11 8.79024 11.0205 9.11474 11.0602M16.1147 14L14.1147 16M14.1147 16L12.1147 18M14.1147 16L12.1147 14M14.1147 16L16.1147 18M11.6147 4.5C11.6147 6.433 10.0477 8 8.11474 8C6.18174 8 4.61476 6.433 4.61476 4.5C4.61476 2.567 6.18174 1 8.11474 1C10.0477 1 11.6147 2.567 11.6147 4.5Z" stroke="var(--stroke-0, #D20344)" stroke-width="2" stroke-linecap="round" stroke-linejoin="round"/>
</svg>
