<svg preserveAspectRatio="none" width="100%" height="100%" overflow="visible" style="display: block;" viewBox="0 0 20 20" fill="none" xmlns="http://www.w3.org/2000/svg">
<path id="Vector" d="M10 5.5V4.5M10 14.5V15.5M12.1655 7C11.7333 6.4022 10.9254 6 10 6H9.7222C8.4949 6 7.5 6.79594 7.5 7.77778V7.8541C7.5 8.5564 7.99598 9.1984 8.7812 9.5125L11.2188 10.4875C12.004 10.8016 12.5 11.4436 12.5 12.1459C12.5 13.1699 11.4624 14 10.1824 14H10C9.0746 14 8.2667 13.5978 7.83446 13M19 10C19 5.02944 14.9706 1 10 1C5.02944 1 1 5.02944 1 10C1 14.9706 5.02944 19 10 19" stroke="var(--stroke-0, #6C779D)" stroke-width="2" stroke-linecap="round" stroke-linejoin="round"/>
</svg>
