<svg preserveAspectRatio="none" width="100%" height="100%" overflow="visible" style="display: block;" viewBox="0 0 11.5 2.5" fill="none" xmlns="http://www.w3.org/2000/svg">
<path id="Vector" d="M0.375 1.25C0.375 1.7332 0.76675 2.125 1.25 2.125C1.73325 2.125 2.125 1.7332 2.125 1.25C2.125 0.7668 1.73325 0.375 1.25 0.375C0.76675 0.375 0.375 0.7668 0.375 1.25ZM4.875 1.25C4.875 1.7332 5.2668 2.125 5.75 2.125C6.2332 2.125 6.625 1.7332 6.625 1.25C6.625 0.7668 6.2332 0.375 5.75 0.375C5.2668 0.375 4.875 0.7668 4.875 1.25ZM9.375 1.25C9.375 1.7332 9.7668 2.125 10.25 2.125C10.7332 2.125 11.125 1.7332 11.125 1.25C11.125 0.7668 10.7332 0.375 10.25 0.375C9.7668 0.375 9.375 0.7668 9.375 1.25Z" fill="var(--fill-0, #6C779D)" stroke="var(--stroke-0, #6C779D)" stroke-width="0.75" stroke-linecap="square"/>
</svg>
