<svg preserveAspectRatio="none" width="100%" height="100%" overflow="visible" style="display: block;" viewBox="0 0 9.99609 9.99609" fill="none" xmlns="http://www.w3.org/2000/svg">
<path id="Subtract" fill-rule="evenodd" clip-rule="evenodd" d="M4.99805 0C7.75839 0 9.99609 2.2377 9.99609 4.99805C9.99609 7.75839 7.75839 9.99609 4.99805 9.99609C2.2377 9.99609 0 7.75839 0 4.99805C0 2.2377 2.2377 0 4.99805 0ZM4.99805 6.25C4.30766 6.25 3.74805 6.80962 3.74805 7.5C3.74805 8.19038 4.30766 8.75 4.99805 8.75C5.68843 8.75 6.24805 8.19038 6.24805 7.5C6.24805 6.80962 5.68843 6.25 4.99805 6.25ZM4.99805 1.49805C4.44576 1.49805 3.99805 1.94576 3.99805 2.49805V4.49805C3.99805 5.05033 4.44576 5.49805 4.99805 5.49805C5.55033 5.49805 5.99805 5.05033 5.99805 4.49805V2.49805C5.99805 1.94576 5.55033 1.49805 4.99805 1.49805Z" fill="var(--fill-0, #6C779D)"/>
</svg>
