<svg preserveAspectRatio="none" width="100%" height="100%" overflow="visible" style="display: block;" viewBox="0 0 18.4794 19.7806" fill="none" xmlns="http://www.w3.org/2000/svg">
<path id="Vector" d="M3.88198 17.0481C4.06591 16.6051 4.23511 16.1545 4.38898 15.6969M11.8201 18.6926C12.0863 17.9418 12.3224 17.1768 12.527 16.399C12.7127 15.6934 12.8724 14.9772 13.0051 14.2516M16.9245 15.0583C17.2889 13.0944 17.4794 11.0694 17.4794 9C17.4794 4.58172 13.8977 1 9.47939 1C8.22399 1 7.03611 1.28918 5.97874 1.80456M1.00023 13.0245C1.31342 11.7343 1.47941 10.3865 1.47941 9C1.47941 7.25969 2.03511 5.64917 2.97874 4.33621M9.47979 9C9.47979 11.7604 9.03249 14.4163 8.20629 16.8992C7.99369 17.5381 7.75599 18.1655 7.49439 18.7803M5.18906 12.5C5.38002 11.3618 5.47941 10.1925 5.47941 9C5.47941 6.79086 7.27027 5 9.47939 5C11.6886 5 13.4794 6.79086 13.4794 9C13.4794 9.6166 13.4602 10.2287 13.4223 10.8357" stroke="var(--stroke-0, #6C779D)" stroke-width="2" stroke-linecap="round" stroke-linejoin="round"/>
</svg>
