<svg preserveAspectRatio="none" width="100%" height="100%" overflow="visible" style="display: block;" viewBox="0 0 22 16" fill="none" xmlns="http://www.w3.org/2000/svg">
<path id="Vector" d="M11 5.76389C11.5308 5.28885 12.2316 5 13 5C14.6569 5 16 6.34315 16 8C16 9.65685 14.6569 11 13 11C12.2316 11 11.5308 10.7111 11 10.2361M4 15H18C19.6569 15 21 13.6569 21 12V4C21 2.34315 19.6569 1 18 1H4C2.34315 1 1 2.34315 1 4V12C1 13.6569 2.34315 15 4 15ZM12 8C12 9.65685 10.6569 11 9 11C7.34315 11 6 9.65685 6 8C6 6.34315 7.34315 5 9 5C10.6569 5 12 6.34315 12 8Z" stroke="var(--stroke-0, #6C779D)" stroke-width="2"/>
</svg>
