<svg preserveAspectRatio="none" width="100%" height="100%" overflow="visible" style="display: block;" viewBox="0 0 19 16" fill="none" xmlns="http://www.w3.org/2000/svg">
<path id="Subtract" d="M9.5 0C9.99963 0 10.4042 0.397856 10.4043 0.888672V1.77734H15.3809C16.8799 1.77734 18.0956 2.97163 18.0957 4.44434V5.57129C18.6363 5.87873 19 6.45347 19 7.11133C18.9999 7.7692 18.6364 8.34399 18.0957 8.65137V9.00195C18.0639 9.00145 18.032 9 18 9C14.6863 9 12 11.6863 12 15V16H4.52344C2.52486 15.9998 0.904297 14.4079 0.904297 12.4443V8.65137C0.363602 8.34399 7.99656e-05 7.7692 0 7.11133C0 6.45347 0.363654 5.87873 0.904297 5.57129V4.44434C0.904357 2.97163 2.12012 1.77734 3.61914 1.77734H8.5957V0.888672C8.59582 0.397856 9.00037 3.16424e-08 9.5 0ZM7.69043 10.667C7.19077 10.667 6.78613 11.0647 6.78613 11.5557C6.78619 12.0465 7.19081 12.4443 7.69043 12.4443H11.3096C11.8092 12.4443 12.2138 12.0465 12.2139 11.5557C12.2139 11.0647 11.8092 10.667 11.3096 10.667H7.69043ZM6.33301 5.77734C5.58363 5.77752 4.97656 6.37505 4.97656 7.11133C4.97668 7.84748 5.5837 8.44416 6.33301 8.44434C7.08247 8.44434 7.69031 7.84758 7.69043 7.11133C7.69043 6.37495 7.08254 5.77734 6.33301 5.77734ZM12.667 5.77734C11.9175 5.77734 11.3096 6.37495 11.3096 7.11133C11.3097 7.84758 11.9176 8.44434 12.667 8.44434C13.4163 8.44416 14.0233 7.84748 14.0234 7.11133C14.0234 6.37505 13.4163 5.77752 12.667 5.77734Z" fill="var(--fill-0, #6C779D)"/>
</svg>
