<svg preserveAspectRatio="none" width="100%" height="100%" overflow="visible" style="display: block;" viewBox="0 0 18 20.3953" fill="none" xmlns="http://www.w3.org/2000/svg">
<path id="Vector" d="M7 19H3C1.89543 19 1 18.1046 1 17V3C1 1.89543 1.89543 1 3 1H13C14.1046 1 15 1.89543 15 3V7M5 5H11M5 9H7M13.0751 11.0947L10.5751 12.2682C10.2241 12.433 10 12.7857 10 13.1735V15.3507C10 17.0815 11.1131 18.6159 12.7584 19.1531L13.5 19.3953L14.2416 19.1531C15.8869 18.6159 17 17.0815 17 15.3507V13.1735C17 12.7857 16.7759 12.433 16.4249 12.2682L13.9249 11.0947C13.6557 10.9684 13.3443 10.9684 13.0751 11.0947Z" stroke="var(--stroke-0, #6C779D)" stroke-width="2" stroke-linecap="round" stroke-linejoin="round"/>
</svg>
