<svg preserveAspectRatio="none" width="100%" height="100%" overflow="visible" style="display: block;" viewBox="0 0 22 18" fill="none" xmlns="http://www.w3.org/2000/svg">
<g id="Subtract">
<path fill-rule="evenodd" clip-rule="evenodd" d="M18 0C20.2091 0 22 1.79086 22 4V14C22 16.2091 20.2091 18 18 18H4C1.79086 18 6.4425e-08 16.2091 0 14V4C6.4425e-08 1.79086 1.79086 1.6109e-08 4 0H18Z" fill="url(#paint0_linear_0_27)"/>
<path d="M4 0.700195H18C19.8225 0.700195 21.2998 2.17746 21.2998 4V14L21.2959 14.1699C21.2075 15.9135 19.7656 17.2998 18 17.2998H4C2.17746 17.2998 0.700195 15.8225 0.700195 14V4C0.700195 2.17746 2.17746 0.700195 4 0.700195Z" stroke="url(#paint1_linear_0_27)" stroke-opacity="0.6" stroke-width="1.4"/>
</g>
<defs>
<linearGradient id="paint0_linear_0_27" x1="7.40073" y1="-1.00658" x2="18.9855" y2="9.6416" gradientUnits="userSpaceOnUse">
<stop stop-color="#965AFF"/>
<stop offset="1" stop-color="#7631EE"/>
</linearGradient>
<linearGradient id="paint1_linear_0_27" x1="5.49995" y1="1.22761" x2="13.0866" y2="10.1691" gradientUnits="userSpaceOnUse">
<stop stop-color="white"/>
<stop offset="0.694152" stop-color="white" stop-opacity="0"/>
</linearGradient>
</defs>
</svg>
