<svg preserveAspectRatio="none" width="100%" height="100%" overflow="visible" style="display: block;" viewBox="0 0 22 18" fill="none" xmlns="http://www.w3.org/2000/svg">
<path id="Exclude" d="M18 0C20.2091 0 22 1.79086 22 4V14C22 16.2091 20.2091 18 18 18H4C1.79086 18 6.4425e-08 16.2091 0 14V4C6.4425e-08 1.79086 1.79086 1.6109e-08 4 0H18ZM8.2998 2C7.93529 2.00005 7.30046 2.14943 6.99414 2.74805L6.9375 2.87402L5.04883 7.67188C5.02407 7.73438 4.79322 8 4.25098 8H3C2.44772 8 2.00001 8.44773 2 9C2 9.55228 2.44772 10 3 10H4.25098C5.30718 10 6.48462 9.48232 6.90918 8.4043L8.2998 4.87207L12.3379 15.126C12.6152 15.8299 13.3115 16 13.7002 16C14.089 15.9999 14.7853 15.8299 15.0625 15.126L16.9512 10.3281C16.9759 10.2656 17.2068 10 17.749 10H19C19.5523 10 20 9.55228 20 9C20 8.44773 19.5523 8 19 8H17.749C16.6928 8 15.5154 8.51756 15.0908 9.5957L13.6992 13.127L9.66211 2.87402L9.60547 2.74805C9.29906 2.14945 8.66426 2 8.2998 2Z" fill="var(--fill-0, #6C779D)"/>
</svg>
