<svg preserveAspectRatio="none" width="100%" height="100%" overflow="visible" style="display: block;" viewBox="0 0 20 20" fill="none" xmlns="http://www.w3.org/2000/svg">
<path id="Vector" d="M10 1.53516C9.4117 1.19482 8.7286 1 8 1C6.12886 1 4.55779 2.28478 4.12085 4.0203C2.36618 4.20931 1 5.69511 1 7.5C1 8.4793 1.40223 9.3647 2.05051 10C1.40223 10.6353 1 11.5207 1 12.5C1 13.9633 1.89797 15.2168 3.17291 15.7396C3.71119 17.6221 5.44468 19 7.5 19C8.4251 19 9.285 18.7209 10 18.2422M10 1.53516C10.5883 1.19482 11.2714 1 12 1C13.8711 1 15.4422 2.28478 15.8792 4.0203C17.6338 4.20931 19 5.69511 19 7.5C19 8.4793 18.5978 9.3647 17.9495 10C18.5978 10.6353 19 11.5207 19 12.5C19 13.9633 18.102 15.2168 16.8271 15.7396C16.2888 17.6221 14.5553 19 12.5 19C11.5749 19 10.7151 18.7209 10 18.2422M10 1.53516V3.5M10 18.2422V16.5M6 13L7.84189 7.47434C7.93631 7.19107 8.2014 7 8.5 7C8.7986 7 9.0637 7.19107 9.1581 7.47434L11 13M14 7V13M7 11H10" stroke="var(--stroke-0, #6C779D)" stroke-width="2" stroke-linecap="round" stroke-linejoin="round"/>
</svg>
