<svg preserveAspectRatio="none" width="100%" height="100%" overflow="visible" style="display: block;" viewBox="0 0 32 32" fill="none" xmlns="http://www.w3.org/2000/svg">
<path id="Union" d="M16 30.7697C14.9715 31.5422 13.693 32 12.3077 32C9.33005 32 6.84639 29.8852 6.27668 27.0757C6.23582 27.0765 6.19495 27.0769 6.15385 27.0769C2.75517 27.0769 0 24.3218 0 20.9231C0 19.0852 0.805649 17.4356 2.08305 16.3079C1.54519 15.5189 1.23077 14.5654 1.23077 13.5385C1.23077 11.6492 2.29507 10.0084 3.85673 9.18299C3.82236 9.06226 3.79303 8.9393 3.76911 8.81448C3.71875 8.55072 3.69231 8.27849 3.69231 8C3.69231 5.62091 5.62091 3.69231 8 3.69231C8.25721 3.69231 8.50925 3.71484 8.75409 3.75805C9.27728 1.60144 11.2209 0 13.5385 0C14.4352 0 15.2758 0.239724 16 0.658594C16.7242 0.239724 17.5648 0 18.4615 0C20.7791 0 22.7227 1.60144 23.2459 3.75805C23.4907 3.71484 23.7428 3.69231 24 3.69231C26.3791 3.69231 28.3077 5.62091 28.3077 8C28.3077 8.41028 28.2504 8.80715 28.1433 9.18299C29.7049 10.0084 30.7692 11.6492 30.7692 13.5385C30.7692 14.5654 30.4548 15.5189 29.9169 16.3079C31.1944 17.4356 32 19.0852 32 20.9231C32 24.3218 29.2448 27.0769 25.8462 27.0769C25.805 27.0769 25.7642 27.0765 25.7233 27.0757C25.1536 29.8852 22.67 32 19.6923 32C18.307 32 17.0285 31.5422 16 30.7697Z" fill="var(--fill-0, #7631EE)"/>
</svg>
