<svg preserveAspectRatio="none" width="100%" height="100%" overflow="visible" style="display: block;" viewBox="0 0 24 24" fill="none" xmlns="http://www.w3.org/2000/svg">
<path id="Subtract" fill-rule="evenodd" clip-rule="evenodd" d="M12 0C18.6274 0 24 5.37258 24 12C24 18.6274 18.6274 24 12 24C5.37258 24 0 18.6274 0 12C0 5.37258 5.37258 0 12 0ZM12 3.5C11.4477 3.5 11 3.94772 11 4.5V5.60352C9.35224 5.89073 8 7.22211 8 8.96973V9.07422C8.00018 10.4627 8.86169 11.6713 10.124 12.2451L13.0488 13.5752C13.6706 13.8579 13.9998 14.3993 14 14.9258C14 15.6823 13.2943 16.4541 12.2188 16.4541H12C11.2159 16.4541 10.5721 16.0675 10.2451 15.5537C9.94858 15.0879 9.33014 14.9506 8.86426 15.2471C8.3984 15.5436 8.26116 16.162 8.55762 16.6279C9.09816 17.4774 9.97767 18.0897 11 18.335V19.5C11 20.0523 11.4477 20.5 12 20.5C12.5523 20.5 13 20.0523 13 19.5V18.376C14.6581 18.0465 16 16.6912 16 14.9258C15.9998 13.5373 15.1383 12.3287 13.876 11.7549L10.9512 10.4248C10.3294 10.1421 10.0002 9.60073 10 9.07422V8.96973C10 8.27068 10.6547 7.5459 11.667 7.5459H12C12.7841 7.5459 13.428 7.93249 13.7549 8.44629C14.0514 8.91203 14.6699 9.04933 15.1357 8.75293C15.6016 8.45642 15.7388 7.83798 15.4424 7.37207C14.9018 6.52253 14.0224 5.90926 13 5.66406V4.5C13 3.94772 12.5523 3.5 12 3.5Z" fill="var(--fill-0, #6C779D)"/>
</svg>
