<svg preserveAspectRatio="none" width="100%" height="100%" overflow="visible" style="display: block;" viewBox="0 0 18 22" fill="none" xmlns="http://www.w3.org/2000/svg">
<path id="Subtract" fill-rule="evenodd" clip-rule="evenodd" d="M14 0C16.2091 0 18 1.79086 18 4V18C18 20.2091 16.2091 22 14 22H4C1.79086 22 6.44266e-08 20.2091 0 18V4C6.44266e-08 1.79086 1.79086 1.61064e-08 4 0H14ZM6 14.667C5.33734 14.667 4.79992 15.2137 4.7998 15.8887C4.7998 16.5637 5.33726 17.1113 6 17.1113H12C12.6627 17.1112 13.2002 16.5636 13.2002 15.8887C13.2001 15.2138 12.6626 14.6671 12 14.667H6ZM6 4.88867C5.33726 4.88867 4.7998 5.43632 4.7998 6.11133V11C4.7998 11.675 5.33726 12.2227 6 12.2227H12C12.6627 12.2225 13.2002 11.675 13.2002 11V6.11133C13.2002 5.43639 12.6627 4.88878 12 4.88867H6Z" fill="var(--fill-0, #6C779D)"/>
</svg>
