<svg preserveAspectRatio="none" width="100%" height="100%" overflow="visible" style="display: block;" viewBox="0 0 18 22" fill="none" xmlns="http://www.w3.org/2000/svg">
<path id="Subtract" fill-rule="evenodd" clip-rule="evenodd" d="M11.5 0C12.7095 0 13.7186 0.85886 13.9502 2H15C16.6569 2 18 3.34315 18 5V19C18 20.6569 16.6569 22 15 22H3C1.34315 22 4.83196e-08 20.6569 0 19V5C1.93279e-07 3.34315 1.34315 2 3 2H4.0498C4.28142 0.85886 5.29051 0 6.5 0H11.5ZM13.1406 9.23145C12.7165 8.87805 12.0851 8.9355 11.7314 9.35938L7.43262 14.5186L6.20703 13.293C5.81662 12.9026 5.1835 12.9028 4.79297 13.293C4.40248 13.6835 4.40254 14.3165 4.79297 14.707L6.79297 16.707C6.99155 16.9056 7.26437 17.0116 7.54492 16.999C7.82552 16.9862 8.08874 16.8564 8.26855 16.6406L13.2686 10.6406C13.6218 10.2164 13.5647 9.58493 13.1406 9.23145ZM7 2C6.44772 2 6 2.44772 6 3V4C6 4.55228 6.44772 5 7 5H11C11.5523 5 12 4.55228 12 4V3C12 2.44772 11.5523 2 11 2H7Z" fill="var(--fill-0, #6C779D)"/>
</svg>
