<svg preserveAspectRatio="none" width="100%" height="100%" overflow="visible" style="display: block;" viewBox="0 0 18 20" fill="none" xmlns="http://www.w3.org/2000/svg">
<g id="Rectangle 34624971">
<path d="M0 3C0 1.34315 1.34315 0 3 0H15C16.6569 0 18 1.34315 18 3V17C18 18.6569 16.6569 20 15 20H3C1.34315 20 0 18.6569 0 17V3Z" fill="url(#paint0_linear_0_6)"/>
<path d="M3 0.700195H15C16.2703 0.700196 17.2998 1.72975 17.2998 3V17C17.2998 18.2703 16.2703 19.2998 15 19.2998H3C1.72975 19.2998 0.700195 18.2703 0.700195 17V3C0.700195 1.72975 1.72974 0.700195 3 0.700195Z" stroke="url(#paint1_linear_0_6)" stroke-opacity="0.6" stroke-width="1.4"/>
</g>
<defs>
<linearGradient id="paint0_linear_0_6" x1="6.05515" y1="-0.00657883" x2="17.2245" y2="8.39316" gradientUnits="userSpaceOnUse">
<stop stop-color="#965AFF"/>
<stop offset="1" stop-color="#7631EE"/>
</linearGradient>
<linearGradient id="paint1_linear_0_6" x1="-3.27189e-07" y1="-1.5" x2="11.2327" y2="9.7736" gradientUnits="userSpaceOnUse">
<stop stop-color="white"/>
<stop offset="0.694152" stop-color="white" stop-opacity="0"/>
</linearGradient>
</defs>
</svg>
