<svg preserveAspectRatio="none" width="100%" height="100%" overflow="visible" style="display: block;" viewBox="0 0 14.5 9.50004" fill="none" xmlns="http://www.w3.org/2000/svg">
<foreignObject x="-3.75003" y="-4.87504" width="22.0001" height="17.0001"><div xmlns="http://www.w3.org/1999/xhtml" style="backdrop-filter:blur(3px);clip-path:url(#bgblur_0_0_4_clip_path);height:100%;width:100%"></div></foreignObject><g id="Rectangle 34624972" filter="url(#filter0_di_0_4)" data-figma-bg-blur-radius="6.00005">
<path d="M2.25002 3.62501C2.25002 2.2443 3.36931 1.12501 4.75002 1.12501H9.75002C11.1307 1.12501 12.25 2.2443 12.25 3.62501V5.12501C12.25 5.6773 11.8023 6.12501 11.25 6.12501H3.25002C2.69774 6.12501 2.25002 5.6773 2.25002 5.12501V3.62501Z" fill="var(--fill-0, #7631EE)"/>
<path d="M2.25002 3.62501C2.25002 2.2443 3.36931 1.12501 4.75002 1.12501H9.75002C11.1307 1.12501 12.25 2.2443 12.25 3.62501V5.12501C12.25 5.6773 11.8023 6.12501 11.25 6.12501H3.25002C2.69774 6.12501 2.25002 5.6773 2.25002 5.12501V3.62501Z" fill="url(#paint0_linear_0_4)"/>
</g>
<defs>
<filter id="filter0_di_0_4" x="-3.75003" y="-4.87504" width="22.0001" height="17.0001" filterUnits="userSpaceOnUse" color-interpolation-filters="sRGB">
<feFlood flood-opacity="0" result="BackgroundImageFix"/>
<feColorMatrix in="SourceAlpha" type="matrix" values="0 0 0 0 0 0 0 0 0 0 0 0 0 0 0 0 0 0 127 0" result="hardAlpha"/>
<feOffset dy="1.12501"/>
<feGaussianBlur stdDeviation="1.12501"/>
<feComposite in2="hardAlpha" operator="out"/>
<feColorMatrix type="matrix" values="0 0 0 0 0.141176 0 0 0 0 0.027451 0 0 0 0 0.341176 0 0 0 0.6 0"/>
<feBlend mode="normal" in2="BackgroundImageFix" result="effect1_dropShadow_0_4"/>
<feBlend mode="normal" in="SourceGraphic" in2="effect1_dropShadow_0_4" result="shape"/>
<feColorMatrix in="SourceAlpha" type="matrix" values="0 0 0 0 0 0 0 0 0 0 0 0 0 0 0 0 0 0 127 0" result="hardAlpha"/>
<feOffset/>
<feGaussianBlur stdDeviation="0.750007"/>
<feComposite in2="hardAlpha" operator="arithmetic" k2="-1" k3="1"/>
<feColorMatrix type="matrix" values="0 0 0 0 1 0 0 0 0 1 0 0 0 0 1 0 0 0 1 0"/>
<feBlend mode="normal" in2="shape" result="effect2_innerShadow_0_4"/>
</filter>
<clipPath id="bgblur_0_0_4_clip_path" transform="translate(3.75003 4.87504)"><path d="M2.25002 3.62501C2.25002 2.2443 3.36931 1.12501 4.75002 1.12501H9.75002C11.1307 1.12501 12.25 2.2443 12.25 3.62501V5.12501C12.25 5.6773 11.8023 6.12501 11.25 6.12501H3.25002C2.69774 6.12501 2.25002 5.6773 2.25002 5.12501V3.62501Z"/>
</clipPath><linearGradient id="paint0_linear_0_4" x1="7.25002" y1="1.12501" x2="7.25002" y2="6.12501" gradientUnits="userSpaceOnUse">
<stop stop-color="white" stop-opacity="0.9"/>
<stop offset="1" stop-color="white" stop-opacity="0.4"/>
</linearGradient>
</defs>
</svg>
