<svg preserveAspectRatio="none" width="100%" height="100%" overflow="visible" style="display: block;" viewBox="0 0 13.5003 12.5004" fill="none" xmlns="http://www.w3.org/2000/svg">
<foreignObject x="-3.75003" y="-4.87504" width="21.0004" height="20.0005"><div xmlns="http://www.w3.org/1999/xhtml" style="backdrop-filter:blur(3px);clip-path:url(#bgblur_0_0_5_clip_path);height:100%;width:100%"></div></foreignObject><g id="Vector (Stroke)" filter="url(#filter0_di_0_5)" data-figma-bg-blur-radius="6.00005">
<path d="M9.48137 1.48474C9.83495 1.06056 10.4663 1.00329 10.8906 1.35681C11.3147 1.71039 11.372 2.34175 11.0185 2.76599L6.01848 8.76599C5.83861 8.98184 5.57553 9.11166 5.29485 9.12439C5.01429 9.13701 4.74148 9.031 4.5429 8.8324L2.5429 6.8324C2.1524 6.44187 2.15239 5.80884 2.5429 5.41834C2.93343 5.02784 3.56645 5.02783 3.95696 5.41834L5.18254 6.64392L9.48137 1.48474Z" fill="url(#paint0_linear_0_5)" shape-rendering="crispEdges"/>
</g>
<defs>
<filter id="filter0_di_0_5" x="-3.75003" y="-4.87504" width="21.0004" height="20.0005" filterUnits="userSpaceOnUse" color-interpolation-filters="sRGB">
<feFlood flood-opacity="0" result="BackgroundImageFix"/>
<feColorMatrix in="SourceAlpha" type="matrix" values="0 0 0 0 0 0 0 0 0 0 0 0 0 0 0 0 0 0 127 0" result="hardAlpha"/>
<feOffset dy="1.12501"/>
<feGaussianBlur stdDeviation="1.12501"/>
<feComposite in2="hardAlpha" operator="out"/>
<feColorMatrix type="matrix" values="0 0 0 0 0.141176 0 0 0 0 0.027451 0 0 0 0 0.341176 0 0 0 0.6 0"/>
<feBlend mode="normal" in2="BackgroundImageFix" result="effect1_dropShadow_0_5"/>
<feBlend mode="normal" in="SourceGraphic" in2="effect1_dropShadow_0_5" result="shape"/>
<feColorMatrix in="SourceAlpha" type="matrix" values="0 0 0 0 0 0 0 0 0 0 0 0 0 0 0 0 0 0 127 0" result="hardAlpha"/>
<feOffset/>
<feGaussianBlur stdDeviation="0.750007"/>
<feComposite in2="hardAlpha" operator="arithmetic" k2="-1" k3="1"/>
<feColorMatrix type="matrix" values="0 0 0 0 1 0 0 0 0 1 0 0 0 0 1 0 0 0 1 0"/>
<feBlend mode="normal" in2="shape" result="effect2_innerShadow_0_5"/>
</filter>
<clipPath id="bgblur_0_0_5_clip_path" transform="translate(3.75003 4.87504)"><path d="M9.48137 1.48474C9.83495 1.06056 10.4663 1.00329 10.8906 1.35681C11.3147 1.71039 11.372 2.34175 11.0185 2.76599L6.01848 8.76599C5.83861 8.98184 5.57553 9.11166 5.29485 9.12439C5.01429 9.13701 4.74148 9.031 4.5429 8.8324L2.5429 6.8324C2.1524 6.44187 2.15239 5.80884 2.5429 5.41834C2.93343 5.02784 3.56645 5.02783 3.95696 5.41834L5.18254 6.64392L9.48137 1.48474Z"/>
</clipPath><linearGradient id="paint0_linear_0_5" x1="6.75015" y1="1.12501" x2="6.75015" y2="9.1254" gradientUnits="userSpaceOnUse">
<stop stop-color="white" stop-opacity="0.9"/>
<stop offset="1" stop-color="white" stop-opacity="0.4"/>
</linearGradient>
</defs>
</svg>
