<svg preserveAspectRatio="none" width="100%" height="100%" overflow="visible" style="display: block;" viewBox="0 0 11.5 10.5" fill="none" xmlns="http://www.w3.org/2000/svg">
<foreignObject x="-3.75003" y="-4.87504" width="19.0001" height="18.0001"><div xmlns="http://www.w3.org/1999/xhtml" style="backdrop-filter:blur(3px);clip-path:url(#bgblur_0_0_31_clip_path);height:100%;width:100%"></div></foreignObject><g id="Union" filter="url(#filter0_di_0_31)" data-figma-bg-blur-radius="6.00005">
<path d="M6.25002 5.12501C6.8023 5.12501 7.25002 5.57273 7.25002 6.12501C7.25002 6.6773 6.8023 7.12501 6.25002 7.12501H3.25002C2.69774 7.12501 2.25002 6.6773 2.25002 6.12501C2.25002 5.57273 2.69774 5.12501 3.25002 5.12501H6.25002Z" fill="url(#paint0_linear_0_31)" shape-rendering="crispEdges"/>
<path d="M8.25002 1.12501C8.8023 1.12501 9.25002 1.57273 9.25002 2.12501C9.25002 2.6773 8.8023 3.12501 8.25002 3.12501H3.25002C2.69774 3.12501 2.25002 2.6773 2.25002 2.12501C2.25002 1.57273 2.69774 1.12501 3.25002 1.12501H8.25002Z" fill="url(#paint1_linear_0_31)" shape-rendering="crispEdges"/>
</g>
<defs>
<filter id="filter0_di_0_31" x="-3.75003" y="-4.87504" width="19.0001" height="18.0001" filterUnits="userSpaceOnUse" color-interpolation-filters="sRGB">
<feFlood flood-opacity="0" result="BackgroundImageFix"/>
<feColorMatrix in="SourceAlpha" type="matrix" values="0 0 0 0 0 0 0 0 0 0 0 0 0 0 0 0 0 0 127 0" result="hardAlpha"/>
<feOffset dy="1.12501"/>
<feGaussianBlur stdDeviation="1.12501"/>
<feComposite in2="hardAlpha" operator="out"/>
<feColorMatrix type="matrix" values="0 0 0 0 0.141176 0 0 0 0 0.027451 0 0 0 0 0.341176 0 0 0 0.6 0"/>
<feBlend mode="normal" in2="BackgroundImageFix" result="effect1_dropShadow_0_31"/>
<feBlend mode="normal" in="SourceGraphic" in2="effect1_dropShadow_0_31" result="shape"/>
<feColorMatrix in="SourceAlpha" type="matrix" values="0 0 0 0 0 0 0 0 0 0 0 0 0 0 0 0 0 0 127 0" result="hardAlpha"/>
<feOffset/>
<feGaussianBlur stdDeviation="0.750007"/>
<feComposite in2="hardAlpha" operator="arithmetic" k2="-1" k3="1"/>
<feColorMatrix type="matrix" values="0 0 0 0 1 0 0 0 0 1 0 0 0 0 1 0 0 0 1 0"/>
<feBlend mode="normal" in2="shape" result="effect2_innerShadow_0_31"/>
</filter>
<clipPath id="bgblur_0_0_31_clip_path" transform="translate(3.75003 4.87504)"><path d="M6.25002 5.12501C6.8023 5.12501 7.25002 5.57273 7.25002 6.12501C7.25002 6.6773 6.8023 7.12501 6.25002 7.12501H3.25002C2.69774 7.12501 2.25002 6.6773 2.25002 6.12501C2.25002 5.57273 2.69774 5.12501 3.25002 5.12501H6.25002Z"/>
<path d="M8.25002 1.12501C8.8023 1.12501 9.25002 1.57273 9.25002 2.12501C9.25002 2.6773 8.8023 3.12501 8.25002 3.12501H3.25002C2.69774 3.12501 2.25002 2.6773 2.25002 2.12501C2.25002 1.57273 2.69774 1.12501 3.25002 1.12501H8.25002Z"/>
</clipPath><linearGradient id="paint0_linear_0_31" x1="5.75002" y1="1.12501" x2="5.75002" y2="7.12501" gradientUnits="userSpaceOnUse">
<stop stop-color="white" stop-opacity="0.9"/>
<stop offset="1" stop-color="white" stop-opacity="0.4"/>
</linearGradient>
<linearGradient id="paint1_linear_0_31" x1="5.75002" y1="1.12501" x2="5.75002" y2="7.12501" gradientUnits="userSpaceOnUse">
<stop stop-color="white" stop-opacity="0.9"/>
<stop offset="1" stop-color="white" stop-opacity="0.4"/>
</linearGradient>
</defs>
</svg>
