<svg preserveAspectRatio="none" width="100%" height="100%" overflow="visible" style="display: block;" viewBox="0 0 20 21.9999" fill="none" xmlns="http://www.w3.org/2000/svg">
<path id="Subtract" fill-rule="evenodd" clip-rule="evenodd" d="M8.91602 0.178819C9.61819 -0.0596065 10.3818 -0.0596065 11.084 0.178819L17.75 2.44249C19.0958 2.89952 19.9998 4.15093 20 5.55675V10.754C20 13.8348 18.7234 16.0556 16.875 17.7843C15.128 19.4182 12.839 20.6372 10.7021 21.7755L10.5273 21.8683C10.1981 22.0438 9.80187 22.0438 9.47266 21.8683L9.29785 21.7755C7.16101 20.6372 4.87207 19.4182 3.125 17.7843C1.27664 16.0556 0 13.8348 0 10.754V5.55675C0.000229665 4.15092 0.904171 2.89952 2.25 2.44249L8.91602 0.178819ZM10.4521 4.25499C10.113 3.91585 9.56377 3.91586 9.22461 4.25499L6.2832 7.19542C5.9442 7.53459 5.9441 8.08483 6.2832 8.42394C6.47184 8.61245 6.72621 8.6961 6.97266 8.67491C7.06269 8.66724 7.15529 8.69419 7.21289 8.76378C7.26345 8.82515 7.31705 8.8893 7.37207 8.95519C7.60445 9.23374 7.87679 9.55339 8.16992 9.88194C8.25196 9.974 8.24838 10.114 8.16113 10.2013L5.33887 13.0235C4.88685 13.4758 4.88676 14.2091 5.33887 14.6612C5.79101 15.1135 6.52434 15.1133 6.97656 14.6612L9.79883 11.839C9.88604 11.7518 10.0261 11.7484 10.1182 11.8302C10.4468 12.1234 10.7664 12.3966 11.0449 12.629C11.1107 12.6839 11.1752 12.7367 11.2363 12.7872C11.306 12.8448 11.3329 12.9375 11.3252 13.0275C11.304 13.274 11.3885 13.5283 11.5771 13.7169C11.9163 14.0557 12.4656 14.0558 12.8047 13.7169L15.7461 10.7765C16.0851 10.4374 16.0849 9.88713 15.7461 9.54796C15.5574 9.35934 15.3032 9.27579 15.0566 9.29698C14.9664 9.30474 14.8731 9.27707 14.8154 9.20714C14.765 9.14596 14.7123 9.08154 14.6572 9.01573C14.187 8.45222 13.5523 7.7223 12.915 7.08507C12.2778 6.44781 11.5479 5.8131 10.9844 5.34288C10.9184 5.2879 10.8543 5.2352 10.793 5.18468C10.723 5.12705 10.6954 5.03373 10.7031 4.94347C10.7243 4.69705 10.6407 4.4436 10.4521 4.25499Z" fill="var(--fill-0, #6C779D)"/>
</svg>
