<svg preserveAspectRatio="none" width="100%" height="100%" overflow="visible" style="display: block;" viewBox="0 0 22.0003 22.0003" fill="none" xmlns="http://www.w3.org/2000/svg">
<path id="Union" fill-rule="evenodd" clip-rule="evenodd" d="M15 0C17.2091 0 19 1.79086 19 4V15H19.2412C19.6234 15.0032 19.995 15.0247 20.3262 15.1406C21.0439 15.3919 21.6081 15.9561 21.8594 16.6738C22.0139 17.1151 22 17.628 22 18.1426C22 18.8568 22.0144 19.4697 21.832 19.9912C21.5304 20.8528 20.8528 21.5304 19.9912 21.832C19.4697 22.0144 18.8568 22 18.1426 22H8.00001C5.79087 22 4.00001 20.2091 4.00001 18V8H3.5713C3.09007 8 2.65748 8.00127 2.30176 7.9668C1.9771 7.93531 1.6366 7.86858 1.30958 7.69727L1.16993 7.61719C0.89168 7.44235 0.650622 7.2145 0.460944 6.94727L0.382819 6.83008C0.1511 6.46121 0.0692026 6.06938 0.0332092 5.69824C-0.00126518 5.34253 5.82097e-06 4.90994 6.03514e-06 4.42871V3C6.03514e-06 1.34315 1.34315 3.22132e-06 3.00001 0H15ZM11.5 17C11.2239 17 11 17.2239 11 17.5V19C11 19.4489 11.2958 19.8286 11.7031 19.9551C11.7655 19.9745 11.8305 19.9883 11.8975 19.9951C11.9312 19.9985 11.9654 20 12 20H18.1426C18.2619 20 18.3685 19.9986 18.4639 19.998C19.0732 19.9946 19.2262 19.9805 19.3301 19.9443C19.6174 19.8438 19.8438 19.6174 19.9443 19.3301C19.9862 19.21 20 19.0229 20 18.1426C20 17.8319 19.9996 17.6417 19.9912 17.498L19.9717 17.335C19.934 17.2273 19.8612 17.1368 19.7666 17.0771L19.665 17.0283C19.6618 17.0272 19.6243 17.016 19.502 17.0088C19.3583 17.0004 19.1681 17 18.8574 17H11.5ZM9.00001 9C8.44772 9 8.00001 9.44772 8.00001 10C8.00001 10.5523 8.44772 11 9.00001 11H12C12.5523 11 13 10.5523 13 10C13 9.44772 12.5523 9 12 9H9.00001ZM9.00001 5C8.44772 5 8.00001 5.44772 8.00001 6C8.00001 6.55228 8.44772 7 9.00001 7H14C14.5523 7 15 6.55228 15 6C15 5.44772 14.5523 5 14 5H9.00001ZM3.00001 2C2.44772 2 2.00001 2.44772 2.00001 3V4.42871C2.00001 4.94959 2.00145 5.26902 2.02442 5.50586C2.0351 5.61578 2.04859 5.68095 2.05958 5.71973C2.06851 5.75125 2.07458 5.76306 2.07618 5.76562C2.11614 5.82923 2.17078 5.88386 2.23438 5.92383C2.23694 5.92542 2.24875 5.93149 2.28028 5.94043C2.31906 5.95141 2.38423 5.96491 2.49415 5.97559C2.73099 5.99855 3.05042 6 3.5713 6H4.00001V3C4.00001 2.44771 3.55229 2 3.00001 2Z" fill="var(--fill-0, #6C779D)"/>
</svg>
