<svg preserveAspectRatio="none" width="100%" height="100%" overflow="visible" style="display: block;" viewBox="0 0 19 22" fill="none" xmlns="http://www.w3.org/2000/svg">
<g id="Union">
<path fill-rule="evenodd" clip-rule="evenodd" d="M15 0C17.2091 0 19 1.79086 19 4V17H11.5C11.2239 17 11 17.2239 11 17.5V19C11 19.5523 11.4477 20 12 20H18.1426C18.2619 20 18.3685 19.9986 18.4639 19.998C17.7724 21.1942 16.481 22 15 22H8.00001C5.79087 22 4.00001 20.2091 4.00001 18V8H3.5713C3.09007 8 2.65748 8.00127 2.30176 7.9668C1.9771 7.93531 1.63659 7.86858 1.30958 7.69727L1.16993 7.61719C0.891682 7.44235 0.650621 7.2145 0.460944 6.94727L0.382819 6.83008C0.151102 6.46121 0.0692025 6.06938 0.0332092 5.69824C-0.00126512 5.34253 5.82017e-06 4.90994 6.03434e-06 4.42871V3C6.03434e-06 1.34315 1.34316 6.47484e-06 3.00001 0H15ZM3.00001 2C2.44773 2.00001 2.00001 2.44772 2.00001 3V4.42871C2.00001 4.94959 2.00145 5.26902 2.02442 5.50586C2.0351 5.61577 2.04859 5.68095 2.05958 5.71973C2.06851 5.75124 2.07458 5.76305 2.07618 5.76562C2.11614 5.82922 2.17078 5.88386 2.23438 5.92383C2.23694 5.92542 2.24875 5.9315 2.28028 5.94043C2.31906 5.95141 2.38424 5.96491 2.49415 5.97559C2.73099 5.99855 3.05042 6 3.5713 6H4.00001V3C4.00001 2.44771 3.55229 2 3.00001 2Z" fill="url(#paint0_linear_0_33)"/>
<path d="M3 0.700195H15C16.8225 0.700195 18.2998 2.17746 18.2998 4V16.2998H11.5L11.377 16.3066C10.772 16.3683 10.2998 16.8788 10.2998 17.5V19C10.2998 19.9389 11.0611 20.7002 12 20.7002H16.8945C16.3581 21.0779 15.7051 21.2998 15 21.2998H8C6.17746 21.2998 4.7002 19.8225 4.7002 18V7.2998H3.57129C3.07657 7.2998 2.68333 7.30096 2.36914 7.27051C2.09235 7.24365 1.85428 7.18976 1.64062 7.0791L1.53223 7.01758C1.38585 6.92421 1.25378 6.81085 1.14062 6.68066L1.03223 6.54199L0.972656 6.4541C0.824498 6.21645 0.760252 5.94792 0.729492 5.63086C0.699042 5.31667 0.700195 4.92343 0.700195 4.42871V3C0.700195 1.72975 1.72975 0.700205 3 0.700195ZM3 1.2998C2.06114 1.29982 1.2998 2.06111 1.2998 3V4.42871C1.2998 4.93561 1.30113 5.29478 1.32812 5.57324C1.34148 5.71075 1.36017 5.81973 1.38574 5.91016C1.40015 5.96101 1.42742 6.04891 1.48145 6.13574L1.4834 6.1377C1.57931 6.29034 1.70969 6.4207 1.8623 6.5166L1.86426 6.51758C1.95129 6.57179 2.03914 6.59989 2.08984 6.61426C2.18027 6.63984 2.28926 6.65852 2.42676 6.67188C2.70522 6.69887 3.06439 6.7002 3.57129 6.7002H4.7002V3C4.7002 2.11979 4.03107 1.39565 3.17383 1.30859L3 1.2998Z" stroke="url(#paint1_linear_0_33)" stroke-opacity="0.6" stroke-width="1.4"/>
</g>
<defs>
<linearGradient id="paint0_linear_0_33" x1="6.39155" y1="-1.23026" x2="19.3732" y2="7.20112" gradientUnits="userSpaceOnUse">
<stop stop-color="#965AFF"/>
<stop offset="1" stop-color="#7631EE"/>
</linearGradient>
<linearGradient id="paint1_linear_0_33" x1="-2.375" y1="6.5" x2="7.01607" y2="11.4564" gradientUnits="userSpaceOnUse">
<stop stop-color="white"/>
<stop offset="0.68337" stop-color="white" stop-opacity="0"/>
</linearGradient>
</defs>
</svg>
