<svg preserveAspectRatio="none" width="100%" height="100%" overflow="visible" style="display: block;" viewBox="0 0 18.9999 22.9999" fill="none" xmlns="http://www.w3.org/2000/svg">
<g id="Union">
<path fill-rule="evenodd" clip-rule="evenodd" d="M13.5 13C15.9853 13 18 15.0147 18 17.5C18 18.3801 17.7465 19.2019 17.3096 19.8955L18.707 21.293C19.0975 21.6835 19.0975 22.3165 18.707 22.707C18.3165 23.0975 17.6835 23.0975 17.293 22.707L15.8955 21.3096C15.2019 21.7465 14.3801 22 13.5 22C11.0147 22 9 19.9853 9 17.5C9 15.0147 11.0147 13 13.5 13ZM13.5 15C12.1193 15 11 16.1193 11 17.5C11 18.8807 12.1193 20 13.5 20C14.1906 20 14.8141 19.7211 15.2676 19.2676C15.7211 18.8141 16 18.1906 16 17.5C16 16.1193 14.8807 15 13.5 15Z" fill="var(--fill-0, #6C779D)"/>
<path fill-rule="evenodd" clip-rule="evenodd" d="M14 0C16.2091 0 18 1.79086 18 4V12.8115C16.832 11.6902 15.247 11 13.5 11C9.91015 11 7 13.9101 7 17.5C7 19.247 7.6902 20.832 8.81152 22H4C1.79086 22 6.44266e-08 20.2091 0 18V4C6.44266e-08 1.79086 1.79086 1.61064e-08 4 0H14ZM6.00098 8C5.33824 8 4.80078 8.54762 4.80078 9.22266C4.80101 9.89749 5.33838 10.4443 6.00098 10.4443H12.001C12.6635 10.4442 13.2009 9.89742 13.2012 9.22266C13.2012 8.54769 12.6636 8.00011 12.001 8H6.00098ZM6.00098 4C5.33824 4 4.80078 4.54762 4.80078 5.22266C4.80101 5.89749 5.33838 6.44434 6.00098 6.44434H12.001C12.6635 6.44423 13.2009 5.89742 13.2012 5.22266C13.2012 4.54769 12.6636 4.00011 12.001 4H6.00098Z" fill="var(--fill-0, #6C779D)"/>
</g>
</svg>
