<svg preserveAspectRatio="none" width="100%" height="100%" overflow="visible" style="display: block;" viewBox="0 0 20 22" fill="none" xmlns="http://www.w3.org/2000/svg">
<g id="Union">
<path d="M8.68011 11.5801C8.98943 11.564 9.24124 11.8252 9.24168 12.1448V21.4199C9.24168 21.7399 8.99015 21.9998 8.68011 22H2.95111C1.08994 21.9996 -0.45531 20.4074 0.123212 18.5819C1.23625 15.0699 4.06977 11.8248 8.68011 11.5801Z" fill="#6C779D"/>
<path d="M11.9505 19.6531C12.6091 19.6531 13.1428 20.1786 13.1429 20.8265C13.1429 21.4746 12.6091 22 11.9505 22C11.2919 22 10.7582 21.4746 10.7582 20.8265C10.7583 20.1786 11.292 19.6531 11.9505 19.6531Z" fill="#6C779D"/>
<path d="M15.5275 19.6531C16.186 19.6531 16.7207 20.1786 16.7208 20.8265C16.7208 21.4746 16.1861 22 15.5275 22C14.8691 21.9997 14.3352 21.4744 14.3352 20.8265C14.3353 20.1788 14.8692 19.6534 15.5275 19.6531Z" fill="#6C779D"/>
<path d="M19.1055 19.9467C19.5994 19.9467 19.9999 20.3406 20 20.8265C20 21.3125 19.5994 21.7064 19.1055 21.7064C18.6116 21.7064 18.211 21.3126 18.211 20.8265C18.2111 20.3406 18.6116 19.9467 19.1055 19.9467Z" fill="#6C779D"/>
<path d="M11.9505 15.5465C12.6091 15.5465 13.1428 16.072 13.1429 16.72C13.1429 17.368 12.6091 17.8934 11.9505 17.8934C11.2919 17.8934 10.7582 17.368 10.7582 16.72C10.7583 16.072 11.292 15.5465 11.9505 15.5465Z" fill="#6C779D"/>
<path d="M15.5275 15.5465C16.1861 15.5465 16.7208 16.072 16.7208 16.72C16.7208 17.368 16.1861 17.8934 15.5275 17.8934C14.8691 17.8932 14.3352 17.3678 14.3352 16.72C14.3352 16.0722 14.8692 15.5468 15.5275 15.5465Z" fill="#6C779D"/>
<path d="M19.1055 15.8401C19.5994 15.8402 19.9999 16.234 20 16.72C20 17.206 19.5994 17.5998 19.1055 17.5998C18.6116 17.5998 18.211 17.206 18.211 16.72C18.2111 16.234 18.6116 15.8401 19.1055 15.8401Z" fill="#6C779D"/>
<path d="M11.9505 11.4399C12.6091 11.4399 13.1428 11.9654 13.1429 12.6134C13.1429 13.2614 12.6091 13.7868 11.9505 13.7868C11.2919 13.7868 10.7582 13.2614 10.7582 12.6134C10.7582 11.9654 11.2919 11.4399 11.9505 11.4399Z" fill="#6C779D"/>
<path d="M15.5275 11.7336C16.0215 11.7336 16.422 12.1274 16.422 12.6134C16.422 13.0994 16.0215 13.4932 15.5275 13.4932C15.0338 13.493 14.634 13.0992 14.634 12.6134C14.634 12.1276 15.0338 11.7338 15.5275 11.7336Z" fill="#6C779D"/>
<path d="M8.68011 0.00311206C8.98835 -0.0317738 9.24067 0.231443 9.24067 0.551474V9.82657C9.24031 10.1463 8.98815 10.4078 8.68011 10.3729C6.15205 10.085 4.18491 7.87448 4.18455 5.18902C4.18455 2.50323 6.15182 0.291055 8.68011 0.00311206Z" fill="#6C779D"/>
<path d="M11.9505 7.62698C12.6091 7.62698 13.1429 8.15242 13.1429 8.80044C13.1427 9.44829 12.609 9.97389 11.9505 9.97389C11.292 9.97389 10.7584 9.44829 10.7582 8.80044C10.7582 8.15242 11.2919 7.62698 11.9505 7.62698Z" fill="#6C779D"/>
<path d="M15.5275 5.86629C16.0215 5.86629 16.422 6.26114 16.422 6.74715C16.4218 7.23298 16.0213 7.62698 15.5275 7.62698C15.0339 7.62672 14.6342 7.23282 14.634 6.74715C14.634 6.2613 15.0338 5.86655 15.5275 5.86629Z" fill="#6C779D"/>
<path d="M11.9505 3.813C12.609 3.813 13.1427 4.33858 13.1429 4.98645C13.1429 5.63447 12.6091 6.15991 11.9505 6.15991C11.2919 6.15991 10.7582 5.63447 10.7582 4.98645C10.7584 4.33858 11.292 3.813 11.9505 3.813Z" fill="#6C779D"/>
<path d="M15.5275 2.34695C16.0215 2.34695 16.422 2.74078 16.422 3.22679C16.422 3.71279 16.0215 4.10662 15.5275 4.10662C15.0338 4.10636 14.634 3.71263 14.634 3.22679C14.634 2.74093 15.0338 2.34721 15.5275 2.34695Z" fill="#6C779D"/>
<path d="M11.9505 4.28707e-05C12.6091 4.28707e-05 13.1429 0.525489 13.1429 1.1735C13.1428 1.82148 12.6091 2.34695 11.9505 2.34695C11.2919 2.34695 10.7582 1.82148 10.7582 1.1735C10.7582 0.525489 11.2919 4.29357e-05 11.9505 4.28707e-05Z" fill="#6C779D"/>
</g>
</svg>
