<svg preserveAspectRatio="none" width="100%" height="100%" overflow="visible" style="display: block;" viewBox="0 0 18 18" fill="none" xmlns="http://www.w3.org/2000/svg">
<path id="Vector" d="M5 5V4.2C5 3.0799 5 2.51984 5.21799 2.09202C5.40973 1.71569 5.71569 1.40973 6.09202 1.21799C6.51984 1 7.0799 1 8.2 1H13.8C14.9201 1 15.4802 1 15.908 1.21799C16.2843 1.40973 16.5903 1.71569 16.782 2.09202C17 2.51984 17 3.0799 17 4.2V9.8C17 10.9201 17 11.4802 16.782 11.908C16.5903 12.2843 16.2843 12.5903 15.908 12.782C15.4802 13 14.9201 13 13.8 13H13M13 8.2V13.8C13 14.9201 13 15.4802 12.782 15.908C12.5903 16.2843 12.2843 16.5903 11.908 16.782C11.4802 17 10.9201 17 9.8 17H4.2C3.0799 17 2.51984 17 2.09202 16.782C1.71569 16.5903 1.40973 16.2843 1.21799 15.908C1 15.4802 1 14.9201 1 13.8V8.2C1 7.0799 1 6.51984 1.21799 6.09202C1.40973 5.71569 1.71569 5.40973 2.09202 5.21799C2.51984 5 3.0799 5 4.2 5H9.8C10.9201 5 11.4802 5 11.908 5.21799C12.2843 5.40973 12.5903 5.71569 12.782 6.09202C13 6.51984 13 7.0799 13 8.2Z" stroke="var(--stroke-0, #6C779D)" stroke-width="2" stroke-linecap="round"/>
</svg>
