<svg preserveAspectRatio="none" width="100%" height="100%" overflow="visible" style="display: block;" viewBox="0 0 22 16" fill="none" xmlns="http://www.w3.org/2000/svg">
<g id="Subtract">
<path d="M8 5C9.65693 5.00002 11 6.3431 11 8C11 9.6569 9.65693 11 8 11C6.34318 11 5 9.65691 5 8C5 6.34309 6.34318 5 8 5Z" fill="var(--fill-0, #6C779D)"/>
<path d="M14.001 5C15.6577 5.0002 17.001 6.34322 17.001 8C17.001 9.65678 15.6577 10.9998 14.001 11C13.3837 11 12.8105 10.8131 12.333 10.4932C12.7563 9.75908 13 8.90827 13 8C13 7.09142 12.7566 6.24011 12.333 5.50586C12.8104 5.18606 13.3839 5 14.001 5Z" fill="var(--fill-0, #6C779D)"/>
<path fill-rule="evenodd" clip-rule="evenodd" d="M18 0C20.2091 0 22 1.79086 22 4V12C22 14.2091 20.2091 16 18 16H4C1.79086 16 6.4425e-08 14.2091 0 12V4C6.4425e-08 1.79086 1.79086 1.6109e-08 4 0H18ZM14.001 3C12.8752 3 11.8364 3.37355 11.001 4.00098C10.1651 3.37272 9.12619 3.00001 8 3C5.23862 3 3 5.23851 3 8C3 10.7615 5.23862 13 8 13C9.1264 13 10.165 12.6265 11.001 11.998C11.8364 12.6257 12.875 13 14.001 13C16.7623 12.9998 19.001 10.7614 19.001 8C19.001 5.23863 16.7623 3.0002 14.001 3Z" fill="var(--fill-0, #6C779D)"/>
</g>
</svg>
