<svg preserveAspectRatio="none" width="100%" height="100%" overflow="visible" style="display: block;" viewBox="0 0 20 21.9999" fill="none" xmlns="http://www.w3.org/2000/svg">
<path id="Subtract" fill-rule="evenodd" clip-rule="evenodd" d="M8.91602 0.178846C9.61824 -0.0596153 10.3818 -0.0596153 11.084 0.178846L17.75 2.44252C19.0959 2.89958 19.9999 4.15085 20 5.55678V10.754C20 13.8349 18.7234 16.0556 16.875 17.7843C15.1279 19.4183 12.8391 20.6372 10.7021 21.7755L10.5273 21.8683C10.1981 22.0438 9.80187 22.0438 9.47266 21.8683L9.29785 21.7755C7.16098 20.6372 4.8721 19.4183 3.125 17.7843C1.27657 16.0556 0 13.8349 0 10.754V5.55678C0.000119986 4.15084 0.904089 2.89958 2.25 2.44252L8.91602 0.178846ZM10.1904 9.04799C9.74865 9.04799 9.3907 9.407 9.39062 9.84877C9.39057 11.7728 9.05382 13.6234 8.43262 15.3537C8.27278 15.7988 8.09428 16.2364 7.89746 16.6652C7.71318 17.0666 7.88879 17.5412 8.29004 17.7257C8.69157 17.9101 9.16722 17.7347 9.35156 17.3331C9.56735 16.8631 9.76298 16.3825 9.93848 15.8937C10.6206 13.9937 10.9902 11.9607 10.9902 9.84877C10.9902 9.40706 10.6321 9.04808 10.1904 9.04799ZM13.126 12.9035C12.6926 12.818 12.2721 13.1 12.1865 13.5333C12.0861 14.0422 11.9647 14.5444 11.8242 15.0392C11.6693 15.5849 11.4906 16.1226 11.2891 16.6495C11.1315 17.0621 11.3385 17.524 11.751 17.6818C12.1636 17.8395 12.6253 17.6334 12.7832 17.2208C13.0015 16.6501 13.1954 16.0682 13.3633 15.4767C13.5157 14.94 13.6469 14.3949 13.7559 13.8429C13.8413 13.4095 13.5594 12.989 13.126 12.9035ZM6.44727 13.9923C6.03197 13.8417 5.57261 14.0566 5.42188 14.4718C5.30722 14.7878 5.18109 15.0992 5.04395 15.4054C4.86332 15.8086 5.04406 16.2824 5.44727 16.463C5.85046 16.6436 6.32427 16.4629 6.50488 16.0597C6.65784 15.7183 6.79871 15.3707 6.92676 15.0177C7.07733 14.6024 6.86255 14.143 6.44727 13.9923ZM10.1904 3.19935C9.08569 3.19935 8.03547 3.43533 7.09863 3.85853C6.69631 4.04055 6.51746 4.51464 6.69922 4.91713C6.8812 5.31959 7.35525 5.4984 7.75781 5.31654C8.48919 4.98616 9.31454 4.79896 10.1904 4.79896C13.2921 4.79921 15.7011 7.11655 15.7012 9.84877C15.7011 11.3085 15.5555 12.7368 15.2783 14.1212C15.1919 14.5543 15.4732 14.9759 15.9062 15.0626C16.3394 15.1493 16.7609 14.8679 16.8477 14.4347C17.1453 12.9477 17.3008 11.4147 17.3008 9.84877C17.3007 6.12059 14.0591 3.1996 10.1904 3.19935ZM5.55176 5.8058C5.20266 5.53544 4.70035 5.59945 4.42969 5.94838C3.5835 7.03962 3.07913 8.38793 3.0791 9.84877C3.07906 10.793 2.95739 11.7103 2.72754 12.588C2.61563 13.0153 2.8707 13.4525 3.29785 13.5646C3.72526 13.6765 4.16247 13.4207 4.27441 12.9933C4.53853 11.9848 4.67867 10.9315 4.67871 9.84877C4.67874 8.7649 5.05179 7.75745 5.69434 6.92885C5.96494 6.5797 5.90086 6.07651 5.55176 5.8058ZM10.1904 6.12416C8.06426 6.12416 6.23445 7.73564 6.23438 9.84877C6.23435 10.6723 6.16068 11.4795 6.01855 12.2648C5.93985 12.6995 6.22832 13.1158 6.66309 13.1945C7.09777 13.2731 7.51405 12.9846 7.59277 12.5499C7.75183 11.6712 7.83493 10.7685 7.83496 9.84877C7.83504 8.73161 8.83126 7.72377 10.1904 7.72377C11.5494 7.72401 12.5458 8.73174 12.5459 9.84877C12.5459 10.2815 12.5306 10.7112 12.502 11.1369C12.4723 11.5776 12.8063 11.9587 13.2471 11.9884C13.6877 12.0179 14.0689 11.685 14.0986 11.2443C14.1297 10.7827 14.1455 10.3173 14.1455 9.84877C14.1454 7.73581 12.3165 6.12441 10.1904 6.12416Z" fill="var(--fill-0, #6C779D)"/>
</svg>
