<svg preserveAspectRatio="none" width="100%" height="100%" overflow="visible" style="display: block;" viewBox="0 0 14.5 16.5" fill="none" xmlns="http://www.w3.org/2000/svg">
<foreignObject x="-3.75003" y="-4.87504" width="22.0001" height="24.0001"><div xmlns="http://www.w3.org/1999/xhtml" style="backdrop-filter:blur(3px);clip-path:url(#bgblur_0_0_197_clip_path);height:100%;width:100%"></div></foreignObject><g id="Vector" filter="url(#filter0_di_0_197)" data-figma-bg-blur-radius="6.00005">
<path fill-rule="evenodd" clip-rule="evenodd" d="M7.25 8.54256C5.2978 8.54256 2.91301 9.82705 2.28415 11.9972C2.10889 12.6024 2.63486 13.125 3.26158 13.125H11.2395C11.866 13.1248 12.3911 12.6021 12.2159 11.9972C11.587 9.82705 9.20219 8.54256 7.25 8.54256ZM7.25 1.12501C5.68318 1.12501 4.413 2.40231 4.413 3.97791C4.413 5.55352 5.68318 6.83082 7.25 6.83082C8.81681 6.83082 10.087 5.55352 10.087 3.97791C10.087 2.40231 8.81681 1.12501 7.25 1.12501Z" fill="url(#paint0_linear_0_197)" shape-rendering="crispEdges"/>
</g>
<defs>
<filter id="filter0_di_0_197" x="-3.75003" y="-4.87504" width="22.0001" height="24.0001" filterUnits="userSpaceOnUse" color-interpolation-filters="sRGB">
<feFlood flood-opacity="0" result="BackgroundImageFix"/>
<feColorMatrix in="SourceAlpha" type="matrix" values="0 0 0 0 0 0 0 0 0 0 0 0 0 0 0 0 0 0 127 0" result="hardAlpha"/>
<feOffset dy="1.12501"/>
<feGaussianBlur stdDeviation="1.12501"/>
<feComposite in2="hardAlpha" operator="out"/>
<feColorMatrix type="matrix" values="0 0 0 0 0.141176 0 0 0 0 0.027451 0 0 0 0 0.341176 0 0 0 0.6 0"/>
<feBlend mode="normal" in2="BackgroundImageFix" result="effect1_dropShadow_0_197"/>
<feBlend mode="normal" in="SourceGraphic" in2="effect1_dropShadow_0_197" result="shape"/>
<feColorMatrix in="SourceAlpha" type="matrix" values="0 0 0 0 0 0 0 0 0 0 0 0 0 0 0 0 0 0 127 0" result="hardAlpha"/>
<feOffset/>
<feGaussianBlur stdDeviation="0.750007"/>
<feComposite in2="hardAlpha" operator="arithmetic" k2="-1" k3="1"/>
<feColorMatrix type="matrix" values="0 0 0 0 1 0 0 0 0 1 0 0 0 0 1 0 0 0 1 0"/>
<feBlend mode="normal" in2="shape" result="effect2_innerShadow_0_197"/>
</filter>
<clipPath id="bgblur_0_0_197_clip_path" transform="translate(3.75003 4.87504)"><path fill-rule="evenodd" clip-rule="evenodd" d="M7.25 8.54256C5.2978 8.54256 2.91301 9.82705 2.28415 11.9972C2.10889 12.6024 2.63486 13.125 3.26158 13.125H11.2395C11.866 13.1248 12.3911 12.6021 12.2159 11.9972C11.587 9.82705 9.20219 8.54256 7.25 8.54256ZM7.25 1.12501C5.68318 1.12501 4.413 2.40231 4.413 3.97791C4.413 5.55352 5.68318 6.83082 7.25 6.83082C8.81681 6.83082 10.087 5.55352 10.087 3.97791C10.087 2.40231 8.81681 1.12501 7.25 1.12501Z"/>
</clipPath><linearGradient id="paint0_linear_0_197" x1="-6.74998" y1="-48.075" x2="-6.74998" y2="38.325" gradientUnits="userSpaceOnUse">
<stop stop-color="white" stop-opacity="0.9"/>
<stop offset="1" stop-color="white" stop-opacity="0.4"/>
</linearGradient>
</defs>
</svg>
