<svg preserveAspectRatio="none" width="100%" height="100%" overflow="visible" style="display: block;" viewBox="0 0 18 22" fill="none" xmlns="http://www.w3.org/2000/svg">
<path id="Subtract" fill-rule="evenodd" clip-rule="evenodd" d="M14 0C16.2091 0 18 1.79086 18 4V18C18 20.2091 16.2091 22 14 22H4C1.79086 22 6.44266e-08 20.2091 0 18V4C6.44266e-08 1.79086 1.79086 1.61064e-08 4 0H14ZM9 14.418C7.04785 14.418 4.66309 15.702 4.03418 17.8721C3.85892 18.4772 4.38499 19 5.01172 19H12.9893C13.6158 18.9998 14.141 18.477 13.9658 17.8721C13.3369 15.702 10.9522 14.418 9 14.418ZM9 7C7.43331 7 6.16328 8.2771 6.16309 9.85254C6.16309 11.4281 7.43319 12.7061 9 12.7061C10.5668 12.706 11.8369 11.4281 11.8369 9.85254C11.8367 8.27711 10.5667 7.00001 9 7ZM7 2C6.44772 2 6 2.44772 6 3C6 3.55228 6.44772 4 7 4H11C11.5523 4 12 3.55228 12 3C12 2.44772 11.5523 2 11 2H7Z" fill="var(--fill-0, #6C779D)"/>
</svg>
