<svg preserveAspectRatio="none" width="100%" height="100%" overflow="visible" style="display: block;" viewBox="0 0 22 22" fill="none" xmlns="http://www.w3.org/2000/svg">
<g id="Vector">
<path fill-rule="evenodd" clip-rule="evenodd" d="M9.64365 0C8.85299 0 8.15103 0.493209 7.901 1.22443L7.17934 3.33489L6.06314 4.02309L3.71019 3.45555C2.92423 3.26598 2.10362 3.6004 1.68992 4.27888L0.257962 6.62734C-0.193631 7.36796 -0.0401573 8.31708 0.623229 8.88638L2.23523 10.2697V11.7303L0.623722 13.1136C-0.0395066 13.683 -0.192875 14.6319 0.258655 15.3726L1.69069 17.7212C2.10438 18.3996 2.92499 18.734 3.71095 18.5445L6.08752 17.9712L7.08549 18.5167L7.73616 20.7073C7.96359 21.473 8.68287 22 9.50058 22H12.4731C13.2909 22 14.0101 21.473 14.2376 20.7073L14.8883 18.5166L15.8855 17.9712L18.2619 18.5445C19.0479 18.734 19.8686 18.3996 20.2823 17.7212L21.7413 15.3282C22.1713 14.6229 22.0547 13.7231 21.4583 13.1442L19.7944 11.5292L19.7948 10.4711L21.459 8.85574C22.0555 8.27689 22.1721 7.37702 21.742 6.67181L20.283 4.27888C19.8693 3.6004 19.0487 3.26598 18.2628 3.45555L15.9098 4.02309L14.7936 3.33489L14.0719 1.22443C13.8219 0.493209 13.1199 0 12.3293 0H9.64365Z" fill="url(#paint0_linear_0_771)"/>
<path d="M2.93555 9.94824L2.69141 9.73828L1.0791 8.35547C0.673137 8.00708 0.584878 7.43637 0.855469 6.99219L2.28711 4.64355C2.53868 4.23096 3.04854 4.01587 3.5459 4.13574L5.89941 4.70312L6.18262 4.77148L6.43066 4.61914L7.54688 3.93066L7.76074 3.79883L7.8418 3.56152L8.56348 1.45117C8.71364 1.01202 9.14281 0.700236 9.64355 0.700195H12.3291C12.8299 0.700195 13.259 1.01201 13.4092 1.45117L14.1309 3.56152L14.2129 3.79883L14.4258 3.93066L15.542 4.61914L15.791 4.77148L16.0742 4.70312L18.4268 4.13574C18.9241 4.01577 19.434 4.23092 19.6855 4.64355L21.1445 7.03613C21.4028 7.45961 21.3356 8.00033 20.9717 8.35352L19.3076 9.96875L19.0947 10.1748V11.8252L19.3066 12.0312L20.9707 13.6465C21.3346 13.9996 21.4018 14.5403 21.1436 14.9639L19.6846 17.3564C19.433 17.769 18.9233 17.9842 18.4258 17.8643L16.0498 17.291L15.7871 17.2275L15.5498 17.3574L14.5527 17.9023L14.2998 18.041L14.2168 18.3174L13.5664 20.5078C13.43 20.9668 12.9909 21.2998 12.4727 21.2998H9.50098C8.98286 21.2998 8.54356 20.9668 8.40723 20.5078L7.75684 18.3174L7.6748 18.041L7.4209 17.9023L6.42285 17.3574L6.18652 17.2275L5.92383 17.291L3.54688 17.8643C3.04939 17.9842 2.53966 17.769 2.28809 17.3564L0.856445 15.0078C0.585734 14.5635 0.674184 13.993 1.08008 13.6445L2.69141 12.2617L2.93555 12.0518V9.94824Z" stroke="url(#paint1_linear_0_771)" stroke-opacity="0.6" stroke-width="1.4"/>
</g>
<defs>
<linearGradient id="paint0_linear_0_771" x1="7.40073" y1="-1.23026" x2="21.0522" y2="9.03609" gradientUnits="userSpaceOnUse">
<stop stop-color="#965AFF"/>
<stop offset="1" stop-color="#7631EE"/>
</linearGradient>
<linearGradient id="paint1_linear_0_771" x1="0.52381" y1="-2.02072e-07" x2="11.2029" y2="8.13646" gradientUnits="userSpaceOnUse">
<stop stop-color="white"/>
<stop offset="0.694152" stop-color="white" stop-opacity="0"/>
</linearGradient>
</defs>
</svg>
