<svg preserveAspectRatio="none" width="100%" height="100%" overflow="visible" style="display: block;" viewBox="0 0 15 15" fill="none" xmlns="http://www.w3.org/2000/svg">
<path id="Vector" fill-rule="evenodd" clip-rule="evenodd" d="M2.91667 0C1.30583 0 0 1.30583 0 2.91667V11.6667C0 13.5076 1.49238 15 3.33333 15H12.5C13.8807 15 15 13.8807 15 12.5V6.66667C15 5.28596 13.8807 4.16667 12.5 4.16667H11.6667V2.0098C11.6667 0.899816 10.7668 0 9.65683 0H2.91667ZM10 4.16667V2.0098C10 1.82029 9.84633 1.66667 9.65683 1.66667H2.91667C2.22631 1.66667 1.66667 2.22631 1.66667 2.91667C1.66667 3.60702 2.22631 4.16667 2.91667 4.16667H10ZM10.4167 10.625C10.992 10.625 11.4583 10.1587 11.4583 9.58333C11.4583 9.008 10.992 8.54167 10.4167 8.54167C9.84133 8.54167 9.375 9.008 9.375 9.58333C9.375 10.1587 9.84133 10.625 10.4167 10.625Z" fill="var(--fill-0, #7631EE)"/>
</svg>
