<svg preserveAspectRatio="none" width="100%" height="100%" overflow="visible" style="display: block;" viewBox="0 0 180.482 209.567" fill="none" xmlns="http://www.w3.org/2000/svg">
<g id="Vector" filter="url(#filter0_dddd_0_6)">
<path d="M101.763 29.4243H65.7633V20.1982C66.9647 19.5181 67.9664 18.5344 68.6684 17.3457C69.3703 16.1569 69.7479 14.8047 69.7633 13.4243C69.7633 11.3025 68.9204 9.26772 67.4202 7.76743C65.9199 6.26714 63.885 5.42428 61.7633 5.42428C59.6416 5.42428 57.6067 6.26714 56.1064 7.76743C54.6062 9.26772 53.7633 11.3025 53.7633 13.4243C53.7787 14.8047 54.1563 16.1569 54.8582 17.3457C55.5602 18.5344 56.5619 19.5181 57.7633 20.1982V29.4243H21.7633C17.5213 29.4291 13.4545 31.1164 10.4549 34.1159C7.45541 37.1155 5.76815 41.1823 5.7633 45.4243V101.424C5.76815 105.666 7.45541 109.733 10.4549 112.733C13.4545 115.732 17.5213 117.419 21.7633 117.424H29.7633V137.424C29.7635 138.215 29.9981 138.988 30.4375 139.646C30.8769 140.304 31.5014 140.817 32.232 141.12C32.7171 141.322 33.2377 141.426 33.7633 141.424C34.2886 141.424 34.8087 141.321 35.2939 141.12C35.7792 140.919 36.2201 140.624 36.5915 140.252L59.4193 117.424H101.763C106.005 117.419 110.072 115.732 113.072 112.733C116.071 109.733 117.758 105.666 117.763 101.424V45.4243C117.758 41.1823 116.071 37.1155 113.072 34.1159C110.072 31.1164 106.005 29.4291 101.763 29.4243ZM29.7633 69.4243C29.7633 67.842 30.2325 66.2953 31.1115 64.9797C31.9906 63.6641 33.24 62.6387 34.7018 62.0332C36.1636 61.4277 37.7722 61.2693 39.324 61.578C40.8759 61.8867 42.3013 62.6486 43.4202 63.7674C44.539 64.8862 45.3009 66.3117 45.6096 67.8636C45.9183 69.4154 45.7598 71.0239 45.1543 72.4857C44.5488 73.9476 43.5235 75.197 42.2079 76.076C40.8923 76.9551 39.3455 77.4243 37.7633 77.4243C35.6416 77.4243 33.6067 76.5814 32.1064 75.0811C30.6062 73.5808 29.7633 71.546 29.7633 69.4243ZM83.818 92.7407C77.1621 96.7556 69.5364 98.8774 61.7633 98.8774C53.9902 98.8774 46.3645 96.7556 39.7086 92.7407C39.2571 92.4714 38.8631 92.1157 38.5492 91.694C38.2353 91.2723 38.0077 90.7928 37.8793 90.283C37.751 89.7732 37.7244 89.2431 37.8012 88.723C37.878 88.2029 38.0565 87.7031 38.3267 87.2521C38.5969 86.8012 38.9534 86.4079 39.3757 86.0949C39.7981 85.7818 40.278 85.5552 40.7881 85.4278C41.2981 85.3005 41.8283 85.275 42.3482 85.3528C42.8681 85.4306 43.3676 85.6102 43.818 85.8813C49.2534 89.092 55.4505 90.7856 61.7633 90.7856C68.0761 90.7856 74.2732 89.092 79.7086 85.8813C80.159 85.6102 80.6585 85.4306 81.1784 85.3528C81.6983 85.275 82.2285 85.3005 82.7385 85.4278C83.2486 85.5552 83.7285 85.7818 84.1509 86.0949C84.5732 86.4079 84.9297 86.8012 85.1999 87.2521C85.4701 87.7031 85.6486 88.2029 85.7254 88.723C85.8022 89.2431 85.7756 89.7732 85.6473 90.283C85.5189 90.7928 85.2913 91.2723 84.9774 91.694C84.6635 92.1157 84.2695 92.4714 83.818 92.7407ZM85.7633 77.4243C84.181 77.4243 82.6343 76.9551 81.3187 76.076C80.0031 75.197 78.9778 73.9476 78.3723 72.4857C77.7668 71.0239 77.6083 69.4154 77.917 67.8636C78.2257 66.3117 78.9876 64.8862 80.1064 63.7674C81.2253 62.6486 82.6507 61.8867 84.2026 61.578C85.7544 61.2693 87.363 61.4277 88.8248 62.0332C90.2866 62.6387 91.536 63.6641 92.4151 64.9797C93.2941 66.2953 93.7633 67.842 93.7633 69.4243C93.7633 71.546 92.9204 73.5808 91.4202 75.0811C89.9199 76.5814 87.885 77.4243 85.7633 77.4243Z" fill="url(#paint0_linear_0_6)"/>
<path d="M83.0289 84.2631C82.3659 84.0977 81.6765 84.0653 81.0006 84.1665C80.328 84.2672 79.6816 84.4985 79.0983 84.8481C73.8478 87.9496 67.8614 89.5854 61.7633 89.5854L61.192 89.5805C55.482 89.4848 49.8874 87.956 44.9225 85.1342L44.4283 84.8481C43.845 84.4985 43.1986 84.2672 42.526 84.1665C41.8501 84.0653 41.1607 84.0977 40.4977 84.2631C39.8345 84.4287 39.2099 84.7233 38.6608 85.1303C38.1117 85.5373 37.6487 86.049 37.2975 86.6352C36.9463 87.2214 36.7137 87.8713 36.6139 88.5473C36.5141 89.2234 36.5486 89.9129 36.7154 90.5756C36.8823 91.2385 37.1784 91.8623 37.5865 92.4106C37.9933 92.957 38.5039 93.4174 39.0885 93.7671V93.768C45.9315 97.8957 53.7717 100.078 61.7633 100.078C69.7549 100.078 77.5951 97.8957 84.4381 93.768L84.4371 93.7671C85.022 93.4173 85.5332 92.9573 85.9401 92.4106C86.3482 91.8623 86.6443 91.2385 86.8112 90.5756C86.9779 89.913 87.0125 89.2234 86.9127 88.5473C86.8129 87.8713 86.5803 87.2214 86.2291 86.6352C85.8779 86.049 85.4149 85.5373 84.8658 85.1303C84.3167 84.7233 83.6921 84.4287 83.0289 84.2631ZM39.5582 60.4008C37.7737 60.0459 35.9238 60.228 34.2428 60.9243C32.5617 61.6206 31.1248 62.8001 30.1139 64.313C29.103 65.8259 28.5631 67.6047 28.5631 69.4243C28.5631 71.8643 29.5321 74.2048 31.2574 75.9301C32.9828 77.6555 35.3233 78.6245 37.7633 78.6245C39.5829 78.6245 41.3617 78.0846 42.8746 77.0737C44.3875 76.0628 45.567 74.6258 46.2633 72.9448C46.9595 71.2638 47.1417 69.4139 46.7867 67.6294C46.4317 65.8447 45.5558 64.2051 44.2692 62.9184C42.9825 61.6318 41.3428 60.7558 39.5582 60.4008ZM89.2838 60.9243C87.6028 60.228 85.7529 60.0459 83.9684 60.4008C82.1838 60.7558 80.5441 61.6318 79.2574 62.9184C77.9708 64.2051 77.0949 65.8447 76.7399 67.6294C76.3849 69.4139 76.5671 71.2638 77.2633 72.9448C77.9596 74.6258 79.1391 76.0628 80.652 77.0737C82.1649 78.0846 83.9437 78.6245 85.7633 78.6245C88.2033 78.6245 90.5438 77.6555 92.2692 75.9301C93.9945 74.2048 94.9635 71.8643 94.9635 69.4243C94.9635 67.6047 94.4236 65.8259 93.4127 64.313C92.4018 62.8001 90.9649 61.6206 89.2838 60.9243ZM58.9635 19.4985L58.3541 19.1538C57.3358 18.5772 56.4863 17.7435 55.8912 16.7358C55.3704 15.8538 55.0602 14.8655 54.982 13.8481L54.9635 13.4106C54.9671 11.6121 55.6827 9.88771 56.9547 8.61569C58.23 7.34044 59.9598 6.62448 61.7633 6.62448C63.5668 6.62448 65.2966 7.34044 66.5719 8.61569C67.8439 9.88771 68.5595 11.6121 68.5631 13.4106C68.55 14.581 68.2305 15.728 67.6354 16.7358C67.0403 17.7435 66.1908 18.5772 65.1725 19.1538L64.5631 19.4985V30.6245H101.762L102.13 30.6294C105.92 30.7277 109.535 32.2763 112.223 34.9643C114.998 37.7391 116.559 41.5012 116.563 45.4253V101.424C116.558 105.348 114.998 109.11 112.223 111.884C109.449 114.659 105.686 116.219 101.762 116.224H58.9225L35.7428 139.404C35.4829 139.664 35.1742 139.87 34.8346 140.011C34.495 140.152 34.1309 140.224 33.7633 140.224H33.7604C33.3944 140.225 33.0317 140.153 32.694 140.012L32.692 140.011L32.5035 139.924C32.0731 139.707 31.7043 139.383 31.4352 138.98C31.1276 138.52 30.9637 137.978 30.9635 137.424V116.224H21.7643C17.8402 116.219 14.0781 114.659 11.3033 111.884C8.61528 109.196 7.06668 105.581 6.96838 101.79L6.96349 101.423V45.4253C6.96808 41.5012 8.52861 37.7391 11.3033 34.9643C13.9914 32.2763 17.6062 30.7277 21.3971 30.6294L21.7643 30.6245H58.9635V19.4985Z" stroke="url(#paint1_linear_0_6)" stroke-width="2.4"/>
</g>
<defs>
<filter id="filter0_dddd_0_6" x="0" y="0" width="180.482" height="209.567" filterUnits="userSpaceOnUse" color-interpolation-filters="sRGB">
<feFlood flood-opacity="0" result="BackgroundImageFix"/>
<feColorMatrix in="SourceAlpha" type="matrix" values="0 0 0 0 0 0 0 0 0 0 0 0 0 0 0 0 0 0 127 0" result="hardAlpha"/>
<feOffset dx="2.37312" dy="2.71214"/>
<feGaussianBlur stdDeviation="4.06821"/>
<feColorMatrix type="matrix" values="0 0 0 0 0 0 0 0 0 0 0 0 0 0 0 0 0 0 0.6 0"/>
<feBlend mode="normal" in2="BackgroundImageFix" result="effect1_dropShadow_0_6"/>
<feColorMatrix in="SourceAlpha" type="matrix" values="0 0 0 0 0 0 0 0 0 0 0 0 0 0 0 0 0 0 127 0" result="hardAlpha"/>
<feOffset dx="9.83151" dy="11.1876"/>
<feGaussianBlur stdDeviation="7.28888"/>
<feColorMatrix type="matrix" values="0 0 0 0 0 0 0 0 0 0 0 0 0 0 0 0 0 0 0.6 0"/>
<feBlend mode="normal" in2="effect1_dropShadow_0_6" result="effect2_dropShadow_0_6"/>
<feColorMatrix in="SourceAlpha" type="matrix" values="0 0 0 0 0 0 0 0 0 0 0 0 0 0 0 0 0 0 127 0" result="hardAlpha"/>
<feOffset dx="22.0361" dy="25.0873"/>
<feGaussianBlur stdDeviation="10.001"/>
<feColorMatrix type="matrix" values="0 0 0 0 0 0 0 0 0 0 0 0 0 0 0 0 0 0 0.3 0"/>
<feBlend mode="normal" in2="effect2_dropShadow_0_6" result="effect3_dropShadow_0_6"/>
<feColorMatrix in="SourceAlpha" type="matrix" values="0 0 0 0 0 0 0 0 0 0 0 0 0 0 0 0 0 0 127 0" result="hardAlpha"/>
<feOffset dx="38.987" dy="44.4113"/>
<feGaussianBlur stdDeviation="11.8656"/>
<feColorMatrix type="matrix" values="0 0 0 0 0 0 0 0 0 0 0 0 0 0 0 0 0 0 0.2 0"/>
<feBlend mode="normal" in2="effect3_dropShadow_0_6" result="effect4_dropShadow_0_6"/>
<feBlend mode="normal" in="SourceGraphic" in2="effect4_dropShadow_0_6" result="shape"/>
</filter>
<linearGradient id="paint0_linear_0_6" x1="43.4398" y1="-2.18098" x2="122.08" y2="46.5226" gradientUnits="userSpaceOnUse">
<stop stop-color="#965AFF"/>
<stop offset="1" stop-color="#7631EE"/>
</linearGradient>
<linearGradient id="paint1_linear_0_6" x1="-2.25502" y1="24.2138" x2="132.189" y2="104.636" gradientUnits="userSpaceOnUse">
<stop stop-color="#FFAAF9" stop-opacity="0.7"/>
<stop offset="0.359884" stop-color="#FFAAF9" stop-opacity="0"/>
<stop offset="0.673077" stop-color="#65CCFF" stop-opacity="0.05"/>
<stop offset="1" stop-color="#65CCFF" stop-opacity="0.8"/>
</linearGradient>
</defs>
</svg>
