<svg width="32" height="32" viewBox="0 0 32 32" fill="none" xmlns="http://www.w3.org/2000/svg">
<circle cx="16" cy="16" r="16" fill="#11141B"/>
<path d="M17.3327 17.3307V18.6641H18.666M19.9993 17.3307H21.3327M21.3327 19.9974H19.9993V21.3307M17.3327 21.3241V21.3307M18.666 14.6641H19.9993C20.7357 14.6641 21.3327 14.0671 21.3327 13.3307V11.9974C21.3327 11.261 20.7357 10.6641 19.9993 10.6641H18.666C17.9296 10.6641 17.3327 11.261 17.3327 11.9974V13.3307C17.3327 14.0671 17.9296 14.6641 18.666 14.6641ZM11.9993 21.3307H13.3327C14.0691 21.3307 14.666 20.7338 14.666 19.9974V18.6641C14.666 17.9277 14.0691 17.3307 13.3327 17.3307H11.9993C11.263 17.3307 10.666 17.9277 10.666 18.6641V19.9974C10.666 20.7338 11.263 21.3307 11.9993 21.3307ZM11.9993 14.6641H13.3327C14.0691 14.6641 14.666 14.0671 14.666 13.3307V11.9974C14.666 11.261 14.0691 10.6641 13.3327 10.6641H11.9993C11.263 10.6641 10.666 11.261 10.666 11.9974V13.3307C10.666 14.0671 11.263 14.6641 11.9993 14.6641Z" stroke="#6C779D" stroke-width="1.5" stroke-linecap="round" stroke-linejoin="round"/>
</svg>
