<svg width="40" height="40" viewBox="0 0 40 40" fill="none" xmlns="http://www.w3.org/2000/svg">
<circle cx="20" cy="20" r="20" fill="#6C779D"/>
<path d="M26.6245 19.0379L26.6111 16.3202H26.6216L24.1784 14.9614L19.9918 17.2936L15.8305 14.9614L13.3888 16.3202V19.0379L17.5754 21.3588V26.012L20.0067 27.3581L22.4379 26.012V21.3588L26.6245 19.0379Z" fill="#11141B"/>
<path d="M19.9933 8L13.3873 11.6798L15.8186 13.0386L19.9933 10.7064L24.1799 13.0386L26.6111 11.6798L19.9933 8Z" fill="#11141B"/>
<path d="M11.6439 24.6419L11.6305 20L9.20071 18.6426V26.0134L15.8186 29.6805V26.9628L11.6439 24.6419Z" fill="#11141B"/>
<path d="M11.6305 18.0631V15.3581L14.0737 13.9993L11.6305 12.6405L9.19922 13.9993V16.7043L11.6305 18.0631Z" fill="#11141B"/>
<path d="M19.9932 12.6405L17.562 13.9993L19.9932 15.3581L22.4364 13.9993L19.9932 12.6405Z" fill="#11141B"/>
<path d="M13.3873 20.9621V23.6798L15.8186 25.0259V22.3209L13.3873 20.9621Z" fill="#11141B"/>
<path d="M19.9933 29.295L17.562 27.9362V30.6412L19.9933 32L22.4365 30.6412V27.9362L19.9933 29.295Z" fill="#11141B"/>
<path d="M28.3546 12.6405L25.9233 13.9993L28.3546 15.3581V18.0631L30.7977 16.7043V13.9993L28.3546 12.6405Z" fill="#11141B"/>
<path d="M28.368 20L28.3546 24.6419L24.1814 26.9614V29.6791L30.7992 26.012V18.6412L28.368 20Z" fill="#11141B"/>
<path d="M26.6104 23.6796L24.1792 25.0258V22.3208L26.6104 20.962V23.6796Z" fill="#11141B"/>
</svg>
