<svg width="40" height="40" viewBox="0 0 40 40" fill="none" xmlns="http://www.w3.org/2000/svg">
<circle cx="20" cy="20" r="20" fill="#6C779D"/>
<path d="M25.5563 16.2667C25.1615 16.0388 24.6539 16.0388 24.2027 16.2667L21.0445 18.1468L18.9014 19.3432L15.7996 21.2234C15.4048 21.4513 14.8973 21.4513 14.4461 21.2234L12.021 19.7421C11.6262 19.5142 11.3443 19.0584 11.3443 18.5456V15.697C11.3443 15.2412 11.5698 14.7854 12.021 14.5005L14.4461 13.0762C14.8409 12.8483 15.3484 12.8483 15.7996 13.0762L18.2247 14.5575C18.6194 14.7854 18.9014 15.2412 18.9014 15.7539V17.634L21.0445 16.3806V14.4435C21.0445 13.9878 20.8189 13.532 20.3678 13.2471L15.856 10.5694C15.4612 10.3415 14.9537 10.3415 14.5025 10.5694L9.87793 13.3041C9.42676 13.532 9.20117 13.9878 9.20117 14.4435V19.799C9.20117 20.2548 9.42676 20.7106 9.87793 20.9955L14.4461 23.6732C14.8409 23.9011 15.3484 23.9011 15.7996 23.6732L18.9014 21.8501L21.0445 20.5967L24.1463 18.7735C24.5411 18.5456 25.0487 18.5456 25.4999 18.7735L27.9249 20.1978C28.3197 20.4257 28.6017 20.8815 28.6017 21.3943V24.2429C28.6017 24.6987 28.3761 25.1545 27.9249 25.4394L25.5563 26.8637C25.1615 27.0916 24.6539 27.0916 24.2027 26.8637L21.7777 25.4394C21.3829 25.2115 21.1009 24.7557 21.1009 24.2429V22.4198L18.9578 23.6732V25.5533C18.9578 26.0091 19.1834 26.4649 19.6346 26.7498L24.2027 29.4275C24.5975 29.6554 25.1051 29.6554 25.5563 29.4275L30.1244 26.7498C30.5192 26.5219 30.8012 26.0661 30.8012 25.5533V20.1409C30.8012 19.6851 30.5756 19.2293 30.1244 18.9444L25.5563 16.2667Z" fill="#11141B"/>
</svg>
