<svg width="58" height="60" viewBox="0 0 58 60" fill="none" xmlns="http://www.w3.org/2000/svg">
<g filter="url(#filter0_dddddd_2955_27948)">
<path d="M18.595 32.9269C17.5619 33.703 16.2777 34.1628 14.8861 34.1628C11.895 34.1628 9.40021 32.0385 8.82794 29.2163C8.78689 29.2171 8.74584 29.2175 8.70455 29.2175C5.29058 29.2175 2.52302 26.45 2.52302 23.036C2.52302 21.1899 3.33229 19.5328 4.61544 18.4001C4.07516 17.6076 3.75932 16.6497 3.75932 15.6182C3.75932 13.7204 4.82842 12.0722 6.3971 11.2431C6.36257 11.1218 6.33311 10.9983 6.30909 10.8729C6.2585 10.608 6.23194 10.3345 6.23194 10.0548C6.23194 7.66501 8.16922 5.72773 10.559 5.72773C10.8174 5.72773 11.0706 5.75036 11.3165 5.79377C11.842 3.62745 13.7944 2.01881 16.1224 2.01881C17.0232 2.01881 17.8676 2.25961 18.595 2.68036C19.3224 2.25961 20.1668 2.01881 21.0676 2.01881C23.3956 2.01881 25.348 3.62745 25.8735 5.79377C26.1194 5.75036 26.3726 5.72773 26.631 5.72773C29.0208 5.72773 30.9581 7.66501 30.9581 10.0548C30.9581 10.4669 30.9005 10.8656 30.7929 11.2431C32.3616 12.0722 33.4307 13.7204 33.4307 15.6182C33.4307 16.6497 33.1148 17.6076 32.5746 18.4001C33.8577 19.5328 34.667 21.1899 34.667 23.036C34.667 26.45 31.8994 29.2175 28.4855 29.2175C28.4442 29.2175 28.4031 29.2171 28.3621 29.2163C27.7898 32.0385 25.295 34.1628 22.3039 34.1628C20.9123 34.1628 19.6281 33.703 18.595 32.9269Z" fill="#7631EE"/>
</g>
<mask id="mask0_2955_27948" style="mask-type:alpha" maskUnits="userSpaceOnUse" x="2" y="2" width="33" height="33">
<path d="M18.595 32.9269C17.5619 33.703 16.2777 34.1628 14.8861 34.1628C11.895 34.1628 9.40021 32.0385 8.82794 29.2163C8.78689 29.2171 8.74584 29.2175 8.70455 29.2175C5.29058 29.2175 2.52302 26.45 2.52302 23.036C2.52302 21.1899 3.33229 19.5328 4.61544 18.4001C4.07516 17.6076 3.75932 16.6497 3.75932 15.6182C3.75932 13.7204 4.82842 12.0722 6.3971 11.2431C6.36257 11.1218 6.33311 10.9983 6.30909 10.8729C6.2585 10.608 6.23194 10.3345 6.23194 10.0548C6.23194 7.66501 8.16922 5.72773 10.559 5.72773C10.8174 5.72773 11.0706 5.75036 11.3165 5.79377C11.842 3.62745 13.7944 2.01881 16.1224 2.01881C17.0232 2.01881 17.8676 2.25961 18.595 2.68036C19.3224 2.25961 20.1668 2.01881 21.0676 2.01881C23.3956 2.01881 25.348 3.62745 25.8735 5.79377C26.1194 5.75036 26.3726 5.72773 26.631 5.72773C29.0208 5.72773 30.9581 7.66501 30.9581 10.0548C30.9581 10.4669 30.9005 10.8656 30.7929 11.2431C32.3616 12.0722 33.4307 13.7204 33.4307 15.6182C33.4307 16.6497 33.1148 17.6076 32.5746 18.4001C33.8577 19.5328 34.667 21.1899 34.667 23.036C34.667 26.45 31.8994 29.2175 28.4855 29.2175C28.4442 29.2175 28.4031 29.2171 28.3621 29.2163C27.7898 32.0385 25.295 34.1628 22.3039 34.1628C20.9124 34.1628 19.6281 33.703 18.595 32.9269Z" fill="#7631EE"/>
</mask>
<g mask="url(#mask0_2955_27948)">
<g filter="url(#filter1_d_2955_27948)">
<path d="M6.43399 16.8587C5.51959 17.1033 4.66803 17.5401 3.93625 18.1397C3.20447 18.7393 2.60933 19.4881 2.19063 20.3358C1.77193 21.1835 1.53932 22.1107 1.50835 23.0554C1.47737 24.0001 1.64875 24.9406 2.01102 25.8138C2.3733 26.6871 2.91811 27.4731 3.60905 28.1192C4.29998 28.7653 5.12111 29.2567 6.01754 29.5606C6.91396 29.8644 7.86502 29.9736 8.80712 29.881C9.74923 29.7883 10.6607 29.4959 11.4805 29.0233M11.4805 29.0233C11.0741 28.5452 10.2502 27.3288 10.2058 26.2885M11.4805 29.0233C11.8869 29.4306 13.0323 30.2892 14.3624 30.4663" stroke="#3B0A91" stroke-width="1.28" stroke-linecap="round"/>
</g>
<g filter="url(#filter2_d_2955_27948)">
<path d="M13.6597 6.46868C13.2171 6.02573 12.6916 5.67437 12.1133 5.43465C11.535 5.19493 10.9152 5.07154 10.2893 5.07154C9.66333 5.07154 9.04351 5.19493 8.46521 5.43465C7.88692 5.67437 7.36146 6.02574 6.91885 6.46868C6.47624 6.91163 6.12515 7.43749 5.88561 8.01623C5.64607 8.59497 5.52278 9.21526 5.52278 9.84168C5.52278 10.4681 5.64607 11.0884 5.88561 11.6671C6.12515 12.2459 6.47625 12.7717 6.91886 13.2147M13.6597 6.46868C14.0363 6.10863 14.5598 5.65058 15.166 5.51271M13.6597 6.46868C13.4546 6.66472 13.039 7.25533 13.0169 8.04943" stroke="#3B0A91" stroke-width="1.28" stroke-linecap="round"/>
</g>
<g filter="url(#filter3_d_2955_27948)">
<path d="M22.8861 26.9365C23.8729 28.3043 25.3309 29.2585 26.9792 29.6156C28.6275 29.9727 30.3497 29.7073 31.814 28.8706C33.2784 28.0339 34.3815 26.685 34.9108 25.0837C35.4401 23.4823 35.3583 21.7418 34.6811 20.1971" stroke="#3B0A91" stroke-width="1.28" stroke-linecap="round"/>
</g>
<g filter="url(#filter4_d_2955_27948)">
<path d="M25.5771 16.5566C25.523 16.2696 25.4086 15.9974 25.2414 15.758C25.0743 15.5185 24.8582 15.3173 24.6075 15.1676C24.3567 15.0179 24.0771 14.9231 23.787 14.8896C23.6098 14.8691 23.4311 14.8718 23.2555 14.8971M21.6753 17.7983C21.5536 17.5328 21.4896 17.2445 21.4876 16.9525C21.4857 16.6605 21.5457 16.3714 21.6638 16.1043C21.7819 15.8373 21.9554 15.5983 22.1728 15.4033C22.3901 15.2083 22.6464 15.0616 22.9247 14.9731C23.033 14.9386 23.1436 14.9133 23.2555 14.8971M21.6753 17.7983C21.5145 17.8688 21.134 18.1064 20.8983 18.4922M21.6753 17.7983C21.9162 17.6925 22.4251 17.5546 22.8805 17.6082M23.2555 14.8971C22.6855 14.8454 21.6709 14.3885 22.1728 12.9741" stroke="#3B0A91" stroke-width="1.28" stroke-linecap="round"/>
</g>
<g filter="url(#filter5_d_2955_27948)">
<path d="M15.6667 13.0774C15.6126 12.7904 15.4982 12.5182 15.3311 12.2787C15.1639 12.0393 14.9479 11.838 14.6971 11.6884C14.4464 11.5387 14.1667 11.4439 13.8766 11.4104C13.5865 11.3769 13.2926 11.4053 13.0144 11.4939C12.7361 11.5824 12.4798 11.7291 12.2624 11.9241C12.0451 12.1191 11.8716 12.358 11.7535 12.6251C11.6354 12.8922 11.5753 13.1813 11.5773 13.4733C11.5793 13.7653 11.6432 14.0536 11.765 14.319" stroke="#3B0A91" stroke-width="1.28" stroke-linecap="round"/>
</g>
<g filter="url(#filter6_d_2955_27948)">
<path d="M31.1677 14.825C31.0682 14.578 30.9126 14.3576 30.7131 14.1812C30.5137 14.0048 30.2758 13.8773 30.0185 13.8088C29.7612 13.7402 29.4915 13.7326 29.2307 13.7865C28.9699 13.8403 28.7253 13.9542 28.5162 14.119" stroke="#3B0A91" stroke-width="1.28" stroke-linecap="round"/>
</g>
<g filter="url(#filter7_d_2955_27948)">
<path d="M24.5061 23.9503C24.4516 23.6611 24.3359 23.387 24.1667 23.1462C23.9975 22.9055 23.7787 22.7037 23.5251 22.5545C23.2715 22.4053 22.9889 22.3121 22.6963 22.2811C22.4036 22.2501 22.1078 22.2822 21.8285 22.375" stroke="#3B0A91" stroke-width="1.28" stroke-linecap="round"/>
</g>
<g filter="url(#filter8_d_2955_27948)">
<path d="M18.5944 9.97581C18.5944 9.56787 18.7154 9.1691 18.942 8.82991C19.1686 8.49072 19.4908 8.22636 19.8677 8.07024C20.2445 7.91413 20.6593 7.87329 21.0594 7.95287C21.4595 8.03246 21.827 8.2289 22.1154 8.51735M18.5944 9.97581L18.5944 26.5835M18.5944 9.97581L18.5944 2.07374M18.5944 34.3249V26.5835M18.5944 26.5835C18.5944 26.1756 18.4734 25.7768 18.2468 25.4376C18.0202 25.0984 17.698 24.8341 17.3211 24.678C16.9443 24.5218 16.5295 24.481 16.1294 24.5606C15.7293 24.6402 15.3618 24.8366 15.0734 25.1251" stroke="#3B0A91" stroke-width="1.28" stroke-linecap="round"/>
</g>
<g filter="url(#filter9_d_2955_27948)">
<path d="M23.7187 5.35125C23.6763 5.04593 23.566 4.754 23.3958 4.49694C23.2257 4.23988 23.0002 4.02422 22.7357 3.86581C22.4713 3.7074 22.1747 3.61029 21.8678 3.58159C21.5609 3.5529 21.2514 3.59337 20.9622 3.70002" stroke="#3B0A91" stroke-width="1.28" stroke-linecap="round"/>
</g>
<g filter="url(#filter10_d_2955_27948)">
<path d="M32.3914 11.5537C33.2021 12.169 33.8031 13.0206 34.1123 13.9919C34.4215 14.9632 34.4236 16.0066 34.1184 16.9792C33.8132 17.9517 33.2156 18.8058 32.4075 19.4245C31.5994 20.0431 30.6204 20.396 29.6045 20.4348M29.6045 20.4348C29.5694 21.0767 29.2746 22.4815 28.3765 22.9648M29.6045 20.4348C29.615 19.923 29.3458 18.7074 28.1848 17.9393" stroke="#3B0A91" stroke-width="1.28" stroke-linecap="round"/>
</g>
<g filter="url(#filter11_d_2955_27948)">
<path d="M29.2771 11.4282C29.5005 10.9147 29.5743 10.3486 29.4901 9.79503C29.4059 9.24146 29.1671 8.72293 28.8011 8.2991" stroke="#3B0A91" stroke-width="1.28" stroke-linecap="round"/>
</g>
<g filter="url(#filter12_d_2955_27948)">
<path d="M25.0632 10.2517C25.7096 9.60538 26.173 8.79918 26.4063 7.91534C26.6395 7.0315 26.6343 6.10161 26.391 5.22047" stroke="#3B0A91" stroke-width="1.28" stroke-linecap="round"/>
</g>
<g filter="url(#filter13_d_2955_27948)">
<path d="M13.4515 22.0013C13.8416 21.6112 14.0707 21.0886 14.0931 20.5374C14.0998 20.3717 14.0877 20.207 14.0578 20.0464M10.6169 18.6642C11.065 18.3424 11.6177 18.2009 12.1654 18.268C12.713 18.335 13.2153 18.6057 13.5724 19.0262C13.8223 19.3202 13.9883 19.6726 14.0578 20.0464M14.0578 20.0464C14.1059 19.7517 14.4484 19.1946 15.4342 19.3231" stroke="#3B0A91" stroke-width="1.28" stroke-linecap="round"/>
</g>
<g filter="url(#filter14_d_2955_27948)">
<path d="M6.60439 27.0519C5.71782 26.6179 4.99409 25.9106 4.53981 25.0343C4.08553 24.1579 3.92471 23.1588 4.08106 22.1842" stroke="#3B0A90" stroke-width="1.28" stroke-linecap="round"/>
</g>
<g opacity="0.6" filter="url(#filter15_f_2955_27948)" style="mix-blend-mode:overlay">
<circle cx="15.0977" cy="12.6649" r="6.30635" fill="white"/>
</g>
<g opacity="0.6" filter="url(#filter16_f_2955_27948)">
<circle cx="15.0852" cy="12.6505" r="3.93764" fill="white"/>
</g>
<g filter="url(#filter17_iiii_2955_27948)">
<path d="M18.595 32.9269C17.5619 33.703 16.2777 34.1628 14.8861 34.1628C11.895 34.1628 9.40021 32.0385 8.82794 29.2163C8.78689 29.2171 8.74584 29.2175 8.70455 29.2175C5.29058 29.2175 2.52302 26.45 2.52302 23.036C2.52302 21.1899 3.33229 19.5328 4.61544 18.4001C4.07516 17.6076 3.75932 16.6497 3.75932 15.6182C3.75932 13.7204 4.82842 12.0722 6.3971 11.2431C6.36257 11.1218 6.33311 10.9983 6.30909 10.8729C6.2585 10.608 6.23194 10.3345 6.23194 10.0548C6.23194 7.66501 8.16922 5.72773 10.559 5.72773C10.8174 5.72773 11.0706 5.75036 11.3165 5.79377C11.842 3.62745 13.7944 2.01881 16.1224 2.01881C17.0232 2.01881 17.8676 2.25961 18.595 2.68036C19.3224 2.25961 20.1668 2.01881 21.0676 2.01881C23.3956 2.01881 25.348 3.62745 25.8735 5.79377C26.1194 5.75036 26.3726 5.72773 26.631 5.72773C29.0208 5.72773 30.9581 7.66501 30.9581 10.0548C30.9581 10.4669 30.9005 10.8656 30.7929 11.2431C32.3616 12.0722 33.4307 13.7204 33.4307 15.6182C33.4307 16.6497 33.1148 17.6076 32.5746 18.4001C33.8577 19.5328 34.667 21.1899 34.667 23.036C34.667 26.45 31.8994 29.2175 28.4855 29.2175C28.4442 29.2175 28.4031 29.2171 28.3621 29.2163C27.7898 32.0385 25.295 34.1628 22.3039 34.1628C20.9123 34.1628 19.6281 33.703 18.595 32.9269Z" fill="#7631EE" fill-opacity="0.01"/>
</g>
</g>
<defs>
<filter id="filter0_dddddd_2955_27948" x="0.000479222" y="0.000775712" width="58" height="59.5135" filterUnits="userSpaceOnUse" color-interpolation-filters="sRGB">
<feFlood flood-opacity="0" result="BackgroundImageFix"/>
<feColorMatrix in="SourceAlpha" type="matrix" values="0 0 0 0 0 0 0 0 0 0 0 0 0 0 0 0 0 0 127 0" result="hardAlpha"/>
<feOffset dx="0.878935" dy="1.0045"/>
<feGaussianBlur stdDeviation="1.50674"/>
<feColorMatrix type="matrix" values="0 0 0 0 0.415344 0 0 0 0 0.0791667 0 0 0 0 1 0 0 0 0.6 0"/>
<feBlend mode="normal" in2="BackgroundImageFix" result="effect1_dropShadow_2955_27948"/>
<feColorMatrix in="SourceAlpha" type="matrix" values="0 0 0 0 0 0 0 0 0 0 0 0 0 0 0 0 0 0 127 0" result="hardAlpha"/>
<feOffset dx="3.6413" dy="4.14355"/>
<feGaussianBlur stdDeviation="2.69958"/>
<feColorMatrix type="matrix" values="0 0 0 0 0.415686 0 0 0 0 0.0784314 0 0 0 0 1 0 0 0 0.2 0"/>
<feBlend mode="normal" in2="effect1_dropShadow_2955_27948" result="effect2_dropShadow_2955_27948"/>
<feColorMatrix in="SourceAlpha" type="matrix" values="0 0 0 0 0 0 0 0 0 0 0 0 0 0 0 0 0 0 127 0" result="hardAlpha"/>
<feOffset dx="8.16154" dy="9.29159"/>
<feGaussianBlur stdDeviation="3.70408"/>
<feColorMatrix type="matrix" values="0 0 0 0 0.415686 0 0 0 0 0.0784314 0 0 0 0 1 0 0 0 0.1 0"/>
<feBlend mode="normal" in2="effect2_dropShadow_2955_27948" result="effect3_dropShadow_2955_27948"/>
<feColorMatrix in="SourceAlpha" type="matrix" values="0 0 0 0 0 0 0 0 0 0 0 0 0 0 0 0 0 0 127 0" result="hardAlpha"/>
<feOffset dx="14.4396" dy="16.4486"/>
<feGaussianBlur stdDeviation="4.39467"/>
<feColorMatrix type="matrix" values="0 0 0 0 0.415686 0 0 0 0 0.0784314 0 0 0 0 1 0 0 0 0.04 0"/>
<feBlend mode="normal" in2="effect3_dropShadow_2955_27948" result="effect4_dropShadow_2955_27948"/>
<feColorMatrix in="SourceAlpha" type="matrix" values="0 0 0 0 0 0 0 0 0 0 0 0 0 0 0 0 0 0 127 0" result="hardAlpha"/>
<feOffset dx="1.25562" dy="1.75787"/>
<feGaussianBlur stdDeviation="1.88343"/>
<feComposite in2="hardAlpha" operator="out"/>
<feColorMatrix type="matrix" values="0 0 0 0 0 0 0 0 0 0 0 0 0 0 0 0 0 0 0.8 0"/>
<feBlend mode="normal" in2="effect4_dropShadow_2955_27948" result="effect5_dropShadow_2955_27948"/>
<feColorMatrix in="SourceAlpha" type="matrix" values="0 0 0 0 0 0 0 0 0 0 0 0 0 0 0 0 0 0 127 0" result="hardAlpha"/>
<feOffset dx="0.502248" dy="1.0045"/>
<feGaussianBlur stdDeviation="1.25562"/>
<feComposite in2="hardAlpha" operator="out"/>
<feColorMatrix type="matrix" values="0 0 0 0 0 0 0 0 0 0 0 0 0 0 0 0 0 0 0.2 0"/>
<feBlend mode="normal" in2="effect5_dropShadow_2955_27948" result="effect6_dropShadow_2955_27948"/>
<feBlend mode="normal" in="SourceGraphic" in2="effect6_dropShadow_2955_27948" result="shape"/>
</filter>
<filter id="filter1_d_2955_27948" x="0.86226" y="16.2152" width="14.3577" height="15.2163" filterUnits="userSpaceOnUse" color-interpolation-filters="sRGB">
<feFlood flood-opacity="0" result="BackgroundImageFix"/>
<feColorMatrix in="SourceAlpha" type="matrix" values="0 0 0 0 0 0 0 0 0 0 0 0 0 0 0 0 0 0 127 0" result="hardAlpha"/>
<feOffset dx="0.213333" dy="0.32"/>
<feColorMatrix type="matrix" values="0 0 0 0 1 0 0 0 0 1 0 0 0 0 1 0 0 0 0.2 0"/>
<feBlend mode="normal" in2="BackgroundImageFix" result="effect1_dropShadow_2955_27948"/>
<feBlend mode="normal" in="SourceGraphic" in2="effect1_dropShadow_2955_27948" result="shape"/>
</filter>
<filter id="filter2_d_2955_27948" x="4.88026" y="4.42804" width="11.1431" height="9.75039" filterUnits="userSpaceOnUse" color-interpolation-filters="sRGB">
<feFlood flood-opacity="0" result="BackgroundImageFix"/>
<feColorMatrix in="SourceAlpha" type="matrix" values="0 0 0 0 0 0 0 0 0 0 0 0 0 0 0 0 0 0 127 0" result="hardAlpha"/>
<feOffset dx="0.213333" dy="0.32"/>
<feColorMatrix type="matrix" values="0 0 0 0 1 0 0 0 0 1 0 0 0 0 1 0 0 0 0.2 0"/>
<feBlend mode="normal" in2="BackgroundImageFix" result="effect1_dropShadow_2955_27948"/>
<feBlend mode="normal" in="SourceGraphic" in2="effect1_dropShadow_2955_27948" result="shape"/>
</filter>
<filter id="filter3_d_2955_27948" x="22.2432" y="19.5544" width="13.8702" height="11.1806" filterUnits="userSpaceOnUse" color-interpolation-filters="sRGB">
<feFlood flood-opacity="0" result="BackgroundImageFix"/>
<feColorMatrix in="SourceAlpha" type="matrix" values="0 0 0 0 0 0 0 0 0 0 0 0 0 0 0 0 0 0 127 0" result="hardAlpha"/>
<feOffset dx="0.213333" dy="0.32"/>
<feColorMatrix type="matrix" values="0 0 0 0 1 0 0 0 0 1 0 0 0 0 1 0 0 0 0.2 0"/>
<feBlend mode="normal" in2="BackgroundImageFix" result="effect1_dropShadow_2955_27948"/>
<feBlend mode="normal" in="SourceGraphic" in2="effect1_dropShadow_2955_27948" result="shape"/>
</filter>
<filter id="filter4_d_2955_27948" x="20.2558" y="12.3306" width="6.17851" height="7.12535" filterUnits="userSpaceOnUse" color-interpolation-filters="sRGB">
<feFlood flood-opacity="0" result="BackgroundImageFix"/>
<feColorMatrix in="SourceAlpha" type="matrix" values="0 0 0 0 0 0 0 0 0 0 0 0 0 0 0 0 0 0 127 0" result="hardAlpha"/>
<feOffset dx="0.213333" dy="0.32"/>
<feColorMatrix type="matrix" values="0 0 0 0 1 0 0 0 0 1 0 0 0 0 1 0 0 0 0.2 0"/>
<feBlend mode="normal" in2="BackgroundImageFix" result="effect1_dropShadow_2955_27948"/>
<feBlend mode="normal" in="SourceGraphic" in2="effect1_dropShadow_2955_27948" result="shape"/>
</filter>
<filter id="filter5_d_2955_27948" x="10.9347" y="10.7532" width="5.58895" height="4.52974" filterUnits="userSpaceOnUse" color-interpolation-filters="sRGB">
<feFlood flood-opacity="0" result="BackgroundImageFix"/>
<feColorMatrix in="SourceAlpha" type="matrix" values="0 0 0 0 0 0 0 0 0 0 0 0 0 0 0 0 0 0 127 0" result="hardAlpha"/>
<feOffset dx="0.213333" dy="0.32"/>
<feColorMatrix type="matrix" values="0 0 0 0 1 0 0 0 0 1 0 0 0 0 1 0 0 0 0.2 0"/>
<feBlend mode="normal" in2="BackgroundImageFix" result="effect1_dropShadow_2955_27948"/>
<feBlend mode="normal" in="SourceGraphic" in2="effect1_dropShadow_2955_27948" result="shape"/>
</filter>
<filter id="filter6_d_2955_27948" x="27.8729" y="13.1075" width="4.15185" height="2.68162" filterUnits="userSpaceOnUse" color-interpolation-filters="sRGB">
<feFlood flood-opacity="0" result="BackgroundImageFix"/>
<feColorMatrix in="SourceAlpha" type="matrix" values="0 0 0 0 0 0 0 0 0 0 0 0 0 0 0 0 0 0 127 0" result="hardAlpha"/>
<feOffset dx="0.213333" dy="0.32"/>
<feColorMatrix type="matrix" values="0 0 0 0 1 0 0 0 0 1 0 0 0 0 1 0 0 0 0.2 0"/>
<feBlend mode="normal" in2="BackgroundImageFix" result="effect1_dropShadow_2955_27948"/>
<feBlend mode="normal" in="SourceGraphic" in2="effect1_dropShadow_2955_27948" result="shape"/>
</filter>
<filter id="filter7_d_2955_27948" x="21.1857" y="21.6262" width="4.17736" height="3.28785" filterUnits="userSpaceOnUse" color-interpolation-filters="sRGB">
<feFlood flood-opacity="0" result="BackgroundImageFix"/>
<feColorMatrix in="SourceAlpha" type="matrix" values="0 0 0 0 0 0 0 0 0 0 0 0 0 0 0 0 0 0 127 0" result="hardAlpha"/>
<feOffset dx="0.213333" dy="0.32"/>
<feColorMatrix type="matrix" values="0 0 0 0 1 0 0 0 0 1 0 0 0 0 1 0 0 0 0.2 0"/>
<feBlend mode="normal" in2="BackgroundImageFix" result="effect1_dropShadow_2955_27948"/>
<feBlend mode="normal" in="SourceGraphic" in2="effect1_dropShadow_2955_27948" result="shape"/>
</filter>
<filter id="filter8_d_2955_27948" x="14.4308" y="1.43023" width="8.54163" height="33.8584" filterUnits="userSpaceOnUse" color-interpolation-filters="sRGB">
<feFlood flood-opacity="0" result="BackgroundImageFix"/>
<feColorMatrix in="SourceAlpha" type="matrix" values="0 0 0 0 0 0 0 0 0 0 0 0 0 0 0 0 0 0 127 0" result="hardAlpha"/>
<feOffset dx="0.213333" dy="0.32"/>
<feColorMatrix type="matrix" values="0 0 0 0 1 0 0 0 0 1 0 0 0 0 1 0 0 0 0.2 0"/>
<feBlend mode="normal" in2="BackgroundImageFix" result="effect1_dropShadow_2955_27948"/>
<feBlend mode="normal" in="SourceGraphic" in2="effect1_dropShadow_2955_27948" result="shape"/>
</filter>
<filter id="filter9_d_2955_27948" x="20.3195" y="2.92913" width="4.25681" height="3.38595" filterUnits="userSpaceOnUse" color-interpolation-filters="sRGB">
<feFlood flood-opacity="0" result="BackgroundImageFix"/>
<feColorMatrix in="SourceAlpha" type="matrix" values="0 0 0 0 0 0 0 0 0 0 0 0 0 0 0 0 0 0 127 0" result="hardAlpha"/>
<feOffset dx="0.213333" dy="0.32"/>
<feColorMatrix type="matrix" values="0 0 0 0 1 0 0 0 0 1 0 0 0 0 1 0 0 0 0.2 0"/>
<feBlend mode="normal" in2="BackgroundImageFix" result="effect1_dropShadow_2955_27948"/>
<feBlend mode="normal" in="SourceGraphic" in2="effect1_dropShadow_2955_27948" result="shape"/>
</filter>
<filter id="filter10_d_2955_27948" x="27.5423" y="10.9102" width="7.66073" height="13.0189" filterUnits="userSpaceOnUse" color-interpolation-filters="sRGB">
<feFlood flood-opacity="0" result="BackgroundImageFix"/>
<feColorMatrix in="SourceAlpha" type="matrix" values="0 0 0 0 0 0 0 0 0 0 0 0 0 0 0 0 0 0 127 0" result="hardAlpha"/>
<feOffset dx="0.213333" dy="0.32"/>
<feColorMatrix type="matrix" values="0 0 0 0 1 0 0 0 0 1 0 0 0 0 1 0 0 0 0.2 0"/>
<feBlend mode="normal" in2="BackgroundImageFix" result="effect1_dropShadow_2955_27948"/>
<feBlend mode="normal" in="SourceGraphic" in2="effect1_dropShadow_2955_27948" result="shape"/>
</filter>
<filter id="filter11_d_2955_27948" x="28.1583" y="7.65538" width="2.22231" height="4.7377" filterUnits="userSpaceOnUse" color-interpolation-filters="sRGB">
<feFlood flood-opacity="0" result="BackgroundImageFix"/>
<feColorMatrix in="SourceAlpha" type="matrix" values="0 0 0 0 0 0 0 0 0 0 0 0 0 0 0 0 0 0 127 0" result="hardAlpha"/>
<feOffset dx="0.213333" dy="0.32"/>
<feColorMatrix type="matrix" values="0 0 0 0 1 0 0 0 0 1 0 0 0 0 1 0 0 0 0.2 0"/>
<feBlend mode="normal" in2="BackgroundImageFix" result="effect1_dropShadow_2955_27948"/>
<feBlend mode="normal" in="SourceGraphic" in2="effect1_dropShadow_2955_27948" result="shape"/>
</filter>
<filter id="filter12_d_2955_27948" x="24.4199" y="4.57714" width="3.01492" height="6.6388" filterUnits="userSpaceOnUse" color-interpolation-filters="sRGB">
<feFlood flood-opacity="0" result="BackgroundImageFix"/>
<feColorMatrix in="SourceAlpha" type="matrix" values="0 0 0 0 0 0 0 0 0 0 0 0 0 0 0 0 0 0 127 0" result="hardAlpha"/>
<feOffset dx="0.213333" dy="0.32"/>
<feColorMatrix type="matrix" values="0 0 0 0 1 0 0 0 0 1 0 0 0 0 1 0 0 0 0.2 0"/>
<feBlend mode="normal" in2="BackgroundImageFix" result="effect1_dropShadow_2955_27948"/>
<feBlend mode="normal" in="SourceGraphic" in2="effect1_dropShadow_2955_27948" result="shape"/>
</filter>
<filter id="filter13_d_2955_27948" x="9.97436" y="17.6082" width="6.31682" height="5.35767" filterUnits="userSpaceOnUse" color-interpolation-filters="sRGB">
<feFlood flood-opacity="0" result="BackgroundImageFix"/>
<feColorMatrix in="SourceAlpha" type="matrix" values="0 0 0 0 0 0 0 0 0 0 0 0 0 0 0 0 0 0 127 0" result="hardAlpha"/>
<feOffset dx="0.213333" dy="0.32"/>
<feColorMatrix type="matrix" values="0 0 0 0 1 0 0 0 0 1 0 0 0 0 1 0 0 0 0.2 0"/>
<feBlend mode="normal" in2="BackgroundImageFix" result="effect1_dropShadow_2955_27948"/>
<feBlend mode="normal" in="SourceGraphic" in2="effect1_dropShadow_2955_27948" result="shape"/>
</filter>
<filter id="filter14_d_2955_27948" x="3.38037" y="21.5418" width="4.08122" height="6.474" filterUnits="userSpaceOnUse" color-interpolation-filters="sRGB">
<feFlood flood-opacity="0" result="BackgroundImageFix"/>
<feColorMatrix in="SourceAlpha" type="matrix" values="0 0 0 0 0 0 0 0 0 0 0 0 0 0 0 0 0 0 127 0" result="hardAlpha"/>
<feOffset dx="0.213333" dy="0.32"/>
<feColorMatrix type="matrix" values="0 0 0 0 1 0 0 0 0 1 0 0 0 0 1 0 0 0 0.2 0"/>
<feBlend mode="normal" in2="BackgroundImageFix" result="effect1_dropShadow_2955_27948"/>
<feBlend mode="normal" in="SourceGraphic" in2="effect1_dropShadow_2955_27948" result="shape"/>
</filter>
<filter id="filter15_f_2955_27948" x="-1.80334" y="-4.23611" width="33.8025" height="33.8025" filterUnits="userSpaceOnUse" color-interpolation-filters="sRGB">
<feFlood flood-opacity="0" result="BackgroundImageFix"/>
<feBlend mode="normal" in="SourceGraphic" in2="BackgroundImageFix" result="shape"/>
<feGaussianBlur stdDeviation="5.27361" result="effect1_foregroundBlur_2955_27948"/>
</filter>
<filter id="filter16_f_2955_27948" x="5.79026" y="3.35552" width="18.5898" height="18.5898" filterUnits="userSpaceOnUse" color-interpolation-filters="sRGB">
<feFlood flood-opacity="0" result="BackgroundImageFix"/>
<feBlend mode="normal" in="SourceGraphic" in2="BackgroundImageFix" result="shape"/>
<feGaussianBlur stdDeviation="2.66667" result="effect1_foregroundBlur_2955_27948"/>
</filter>
<filter id="filter17_iiii_2955_27948" x="-1.84291" y="-4.0935" width="37.092" height="39.4205" filterUnits="userSpaceOnUse" color-interpolation-filters="sRGB">
<feFlood flood-opacity="0" result="BackgroundImageFix"/>
<feBlend mode="normal" in="SourceGraphic" in2="BackgroundImageFix" result="shape"/>
<feColorMatrix in="SourceAlpha" type="matrix" values="0 0 0 0 0 0 0 0 0 0 0 0 0 0 0 0 0 0 127 0" result="hardAlpha"/>
<feOffset dx="-4.34638" dy="-6.08493"/>
<feGaussianBlur stdDeviation="4"/>
<feComposite in2="hardAlpha" operator="arithmetic" k2="-1" k3="1"/>
<feColorMatrix type="matrix" values="0 0 0 0 0.156966 0 0 0 0 0.0339931 0 0 0 0 0.370833 0 0 0 1 0"/>
<feBlend mode="normal" in2="shape" result="effect1_innerShadow_2955_27948"/>
<feColorMatrix in="SourceAlpha" type="matrix" values="0 0 0 0 0 0 0 0 0 0 0 0 0 0 0 0 0 0 127 0" result="hardAlpha"/>
<feOffset dx="-1.44879" dy="-1.73855"/>
<feGaussianBlur stdDeviation="2.4"/>
<feComposite in2="hardAlpha" operator="arithmetic" k2="-1" k3="1"/>
<feColorMatrix type="matrix" values="0 0 0 0 0.0587302 0 0 0 0 0.00625 0 0 0 0 0.15 0 0 0 1 0"/>
<feBlend mode="normal" in2="effect1_innerShadow_2955_27948" result="effect2_innerShadow_2955_27948"/>
<feColorMatrix in="SourceAlpha" type="matrix" values="0 0 0 0 0 0 0 0 0 0 0 0 0 0 0 0 0 0 127 0" result="hardAlpha"/>
<feOffset dx="-0.869276" dy="-1.15903"/>
<feGaussianBlur stdDeviation="1.73855"/>
<feComposite in2="hardAlpha" operator="arithmetic" k2="-1" k3="1"/>
<feColorMatrix type="matrix" values="0 0 0 0 0.404762 0 0 0 0 0.0625 0 0 0 0 1 0 0 0 0.6 0"/>
<feBlend mode="plus-lighter" in2="effect2_innerShadow_2955_27948" result="effect3_innerShadow_2955_27948"/>
<feColorMatrix in="SourceAlpha" type="matrix" values="0 0 0 0 0 0 0 0 0 0 0 0 0 0 0 0 0 0 127 0" result="hardAlpha"/>
<feOffset dx="0.579517" dy="1.15903"/>
<feGaussianBlur stdDeviation="1.01416"/>
<feComposite in2="hardAlpha" operator="arithmetic" k2="-1" k3="1"/>
<feColorMatrix type="matrix" values="0 0 0 0 0.584656 0 0 0 0 0.345833 0 0 0 0 1 0 0 0 0.6 0"/>
<feBlend mode="normal" in2="effect3_innerShadow_2955_27948" result="effect4_innerShadow_2955_27948"/>
</filter>
</defs>
</svg>
