<svg width="26" height="6" viewBox="0 0 26 6" fill="none" xmlns="http://www.w3.org/2000/svg">
<g opacity="0.4" style="mix-blend-mode:plus-lighter">
<path d="M23 6C24.6569 6 26 4.65686 26 3C26 1.34315 24.6569 8.1423e-07 23 5.24537e-07C21.3431 2.34843e-07 20 1.34315 20 3C20 4.65685 21.3431 6 23 6Z" fill="#FF9500"/>
</g>
<g opacity="0.4" style="mix-blend-mode:plus-lighter">
<path d="M13 6C14.6569 6 16 4.65686 16 3C16 1.34315 14.6569 8.1423e-07 13 5.24537e-07C11.3431 2.34843e-07 10 1.34315 10 3C10 4.65685 11.3431 6 13 6Z" fill="#FF9500"/>
</g>
<path d="M3 6C4.65685 6 6 4.65686 6 3C6 1.34315 4.65685 8.1423e-07 3 5.24537e-07C1.34315 2.34843e-07 -2.34843e-07 1.34315 -5.24537e-07 3C-8.1423e-07 4.65685 1.34315 6 3 6Z" fill="white"/>
</svg>
