<svg width="16" height="16" viewBox="0 0 16 16" fill="none" xmlns="http://www.w3.org/2000/svg">
<path d="M10.8637 7.2022C11.1566 6.90931 11.1566 6.43444 10.8637 6.14154C10.5708 5.84865 10.0959 5.84865 9.803 6.14154L10.3333 6.67187L10.8637 7.2022ZM9 8.00521L8.46967 7.47488C8.17678 7.76777 8.17678 8.24264 8.46967 8.53554L9 8.00521ZM9.803 9.86887C10.0959 10.1618 10.5708 10.1618 10.8637 9.86887C11.1566 9.57598 11.1566 9.1011 10.8637 8.80821L10.3333 9.33854L9.803 9.86887ZM2 4.00521H2.75C2.75 3.76365 3.0003 3.42188 3.5 3.42188V2.67188V1.92188C2.34284 1.92188 1.25 2.77401 1.25 4.00521H2ZM3.5 2.67188V3.42188H12.5V2.67188V1.92188H3.5V2.67188ZM12.5 2.67188V3.42188C12.9997 3.42188 13.25 3.76364 13.25 4.00521H14H14.75C14.75 2.77402 13.6572 1.92188 12.5 1.92188V2.67188ZM14 4.00521H13.25V12.0052H14H14.75V4.00521H14ZM14 12.0052H13.25C13.25 12.2468 12.9997 12.5885 12.5 12.5885V13.3385V14.0885C13.6572 14.0885 14.75 13.2364 14.75 12.0052H14ZM12.5 13.3385V12.5885H3.5V13.3385V14.0885H12.5V13.3385ZM3.5 13.3385V12.5885C3.00029 12.5885 2.75 12.2468 2.75 12.0052H2H1.25C1.25 13.2364 2.34285 14.0885 3.5 14.0885V13.3385ZM2 12.0052H2.75V4.00521H2H1.25V12.0052H2ZM5.33333 3.33854H4.58333V12.6719H5.33333H6.08333V3.33854H5.33333ZM10.3333 6.67187L9.803 6.14154L8.46967 7.47488L9 8.00521L9.53033 8.53554L10.8637 7.2022L10.3333 6.67187ZM9 8.00521L8.46967 8.53554L9.803 9.86887L10.3333 9.33854L10.8637 8.80821L9.53033 7.47488L9 8.00521Z" fill="#6C779D"/>
</svg>
