<svg width="16" height="16" viewBox="0 0 16 16" fill="none" xmlns="http://www.w3.org/2000/svg">
<path fill-rule="evenodd" clip-rule="evenodd" d="M8.66667 2.00065C8.66667 1.63246 8.3682 1.33398 8 1.33398C7.6318 1.33398 7.33333 1.63246 7.33333 2.00065V2.66732H3.66667C2.5621 2.66732 1.66667 3.56275 1.66667 4.66732V5.51236C1.26813 5.7429 1 6.1738 1 6.66732C1 7.16085 1.26813 7.59172 1.66667 7.82225V10.6673C1.66667 12.1401 2.86057 13.334 4.33333 13.334H11.6667C13.1394 13.334 14.3333 12.1401 14.3333 10.6673V7.82225C14.7319 7.59172 15 7.16085 15 6.66732C15 6.1738 14.7319 5.7429 14.3333 5.51236V4.66732C14.3333 3.56275 13.4379 2.66732 12.3333 2.66732H8.66667V2.00065ZM5.66667 5.66732C5.11438 5.66732 4.66667 6.11503 4.66667 6.66732C4.66667 7.21958 5.11438 7.66732 5.66667 7.66732C6.21895 7.66732 6.66667 7.21958 6.66667 6.66732C6.66667 6.11503 6.21895 5.66732 5.66667 5.66732ZM10.3333 5.66732C9.78107 5.66732 9.33333 6.11503 9.33333 6.66732C9.33333 7.21958 9.78107 7.66732 10.3333 7.66732C10.8856 7.66732 11.3333 7.21958 11.3333 6.66732C11.3333 6.11503 10.8856 5.66732 10.3333 5.66732ZM6.66667 9.33398C6.29848 9.33398 6 9.63245 6 10.0007C6 10.3689 6.29848 10.6673 6.66667 10.6673H9.33333C9.70153 10.6673 10 10.3689 10 10.0007C10 9.63245 9.70153 9.33398 9.33333 9.33398H6.66667Z" fill="#FF9500"/>
</svg>
