<svg preserveAspectRatio="none" width="100%" height="100%" overflow="visible" style="display: block;" viewBox="0 0 28.8 28.8" fill="none" xmlns="http://www.w3.org/2000/svg">
<g id="IconRobot">
<path id="Vector" fill-rule="evenodd" clip-rule="evenodd" d="M15.6008 3.60002C15.6008 2.93729 15.0635 2.40002 14.4008 2.40002C13.738 2.40002 13.2008 2.93729 13.2008 3.60002V4.80002H6.60078C4.61256 4.80002 3.00078 6.4118 3.00078 8.40002V9.9211C2.28342 10.3361 1.80078 11.1117 1.80078 12C1.80078 12.8884 2.28342 13.6639 3.00078 14.0789V19.2C3.00078 21.8509 5.14981 24 7.80078 24H21.0008C23.6517 24 25.8008 21.8509 25.8008 19.2V14.0789C26.5181 13.6639 27.0008 12.8884 27.0008 12C27.0008 11.1117 26.5181 10.3361 25.8008 9.9211V8.40002C25.8008 6.4118 24.1891 4.80002 22.2008 4.80002H15.6008V3.60002ZM10.2008 10.2C9.20667 10.2 8.40078 11.0059 8.40078 12C8.40078 12.9941 9.20667 13.8 10.2008 13.8C11.1949 13.8 12.0008 12.9941 12.0008 12C12.0008 11.0059 11.1949 10.2 10.2008 10.2ZM18.6008 10.2C17.6067 10.2 16.8008 11.0059 16.8008 12C16.8008 12.9941 17.6067 13.8 18.6008 13.8C19.5949 13.8 20.4008 12.9941 20.4008 12C20.4008 11.0059 19.5949 10.2 18.6008 10.2ZM12.0008 16.8C11.338 16.8 10.8008 17.3373 10.8008 18C10.8008 18.6628 11.338 19.2 12.0008 19.2H16.8008C17.4635 19.2 18.0008 18.6628 18.0008 18C18.0008 17.3373 17.4635 16.8 16.8008 16.8H12.0008Z" fill="var(--fill-0, #123509)"/>
</g>
</svg>
