<svg preserveAspectRatio="none" width="100%" height="100%" overflow="visible" style="display: block;" viewBox="0 0 22.2997 16" fill="none" xmlns="http://www.w3.org/2000/svg">
<path id="Subtract" d="M11 0C14.0788 0 16.8608 1.26625 18.8574 3.30469L10.0811 12.082C9.57337 12.5897 9.57337 13.4122 10.0811 13.9199C10.5887 14.4275 11.4113 14.4276 11.9189 13.9199L20.4561 5.38184C21.4353 7.0265 22 8.9469 22 11C22 12.367 21.7485 13.6747 21.292 14.8818C21.0263 15.5843 20.3242 16 19.5732 16H2.42676C1.67575 16 0.973681 15.5843 0.708008 14.8818C0.251487 13.6747 0 12.367 0 11C0 4.92487 4.92487 0 11 0ZM14.2949 3.38086C12.9078 2.781 11.3823 2.57143 9.88477 2.77441C8.38727 2.9775 6.97319 3.58574 5.7959 4.5332C4.61853 5.48092 3.72154 6.73263 3.20312 8.15234C2.68479 9.57204 2.56385 11.1065 2.85352 12.5898C2.99115 13.2945 3.67426 13.7538 4.37891 13.6162C5.08324 13.4784 5.54275 12.7962 5.40527 12.0918C5.20631 11.073 5.28949 10.019 5.64551 9.04395C6.00153 8.06899 6.61725 7.20942 7.42578 6.55859C8.2343 5.90789 9.20594 5.49006 10.2344 5.35059C11.2627 5.21129 12.3102 5.35568 13.2627 5.76758C13.9215 6.05206 14.6868 5.74861 14.9717 5.08984C15.2563 4.43119 14.9533 3.66604 14.2949 3.38086ZM20.0811 2.08203C20.5887 1.57435 21.4113 1.57435 21.9189 2.08203C22.4265 2.58972 22.4266 3.41227 21.9189 3.91992L20.4561 5.38184C20.0062 4.62625 19.4691 3.92919 18.8574 3.30469L20.0811 2.08203Z" fill="var(--fill-0, #6C779D)"/>
</svg>
