<svg preserveAspectRatio="none" width="100%" height="100%" overflow="visible" style="display: block;" viewBox="0 0 18 15" fill="none" xmlns="http://www.w3.org/2000/svg">
<path id="Subtract" d="M8 6V15H5.7998C4.11978 15 3.27941 14.9998 2.6377 14.6729C2.07347 14.3853 1.61472 13.9265 1.32715 13.3623C1.00018 12.7206 1 11.8802 1 10.2002V6H8ZM16 5.36327e-08C16.465 5.36327e-08 16.6979 -0.000329948 16.8887 0.0507813C17.406 0.189536 17.8105 0.593959 17.9492 1.11133C18.0003 1.30208 18 1.53501 18 2C18 2.46499 18.0003 2.69792 17.9492 2.88867C17.8105 3.40604 17.406 3.81046 16.8887 3.94922C16.6979 4.00033 16.465 4 16 4H2C1.53501 4 1.30208 4.00033 1.11133 3.94922C0.593959 3.81046 0.189536 3.40604 0.0507813 2.88867C-0.000329948 2.69792 5.36327e-08 2.46499 5.36327e-08 2C5.36327e-08 1.53501 -0.000329948 1.30208 0.0507813 1.11133C0.189536 0.593959 0.593959 0.189536 1.11133 0.0507813C1.30208 -0.000329948 1.53501 5.36327e-08 2 5.36327e-08H16ZM17 10.2002C17 11.8802 16.9998 12.7206 16.6729 13.3623C16.3853 13.9265 15.9265 14.3853 15.3623 14.6729C14.7206 14.9998 13.8802 15 12.2002 15H10V6H17V10.2002Z" fill="var(--fill-0, #6C779D)"/>
</svg>
