<svg preserveAspectRatio="none" width="100%" height="100%" overflow="visible" style="display: block;" viewBox="0 0 22.0002 22.0002" fill="none" xmlns="http://www.w3.org/2000/svg">
  <g id="Subtract">
  <path d="M3.5 15.0002C5.43291 15.0002 6.99987 16.5673 7 18.5002C7 20.4332 5.43299 22.0002 3.5 22.0002H1.16699C0.522808 22.0002 0.00023077 21.4782 0 20.8342V18.5002C0.00012692 16.5673 1.56709 15.0002 3.5 15.0002Z" fill="#6C779D"/>
  <path fill-rule="evenodd" clip-rule="evenodd" d="M12.5986 1.5012C14.693 0.314467 17.3999 -0.192241 21.0107 0.0656486C21.5054 0.100976 21.8992 0.494939 21.9346 0.989477C22.1924 4.60046 21.6858 7.30715 20.499 9.40159C19.4142 11.316 17.818 12.6177 15.9561 13.6272V15.0959C15.9561 15.969 15.5739 16.7982 14.9111 17.3664L12.1191 19.76C11.8675 19.9757 11.5246 20.053 11.2051 19.9651C10.8859 19.8771 10.6313 19.6361 10.5254 19.3225L10.5234 19.3147L10.5137 19.2873C10.505 19.2624 10.4914 19.2246 10.4736 19.175C10.438 19.0753 10.3842 18.9289 10.3145 18.7473C10.1746 18.383 9.97069 17.8798 9.71582 17.3264C9.19137 16.1879 8.50397 14.9554 7.77441 14.2258C7.04492 13.4963 5.81319 12.8088 4.6748 12.2844C4.12149 12.0296 3.61821 11.8256 3.25391 11.6858C3.07229 11.6161 2.92589 11.5623 2.82617 11.5266C2.77633 11.5087 2.7379 11.4952 2.71289 11.4865L2.68555 11.4778L2.67969 11.4758C2.36586 11.37 2.1241 11.1144 2.03613 10.7951C1.94821 10.4757 2.02466 10.1336 2.24023 9.88206L4.63379 7.08909C5.20193 6.42626 6.03131 6.04515 6.9043 6.04514H8.37305C9.38258 4.18301 10.684 2.58612 12.5986 1.5012ZM15.999 4.00022C14.8948 4.00066 14 4.89689 14 6.0012C14.0002 7.10534 14.8949 7.99978 15.999 8.00022C17.1035 8.00022 17.9998 7.10561 18 6.0012C18 4.89661 17.1036 4.00022 15.999 4.00022Z" fill="#6C779D"/>
  </g>
  </svg>