<svg width="24" height="24" viewBox="0 0 24 24" fill="none" xmlns="http://www.w3.org/2000/svg">
<path fill-rule="evenodd" clip-rule="evenodd" d="M2.17727 4.33908C2.60957 2.9475 3.89073 2 5.34005 2H18.6599C20.1093 2 21.3904 2.9475 21.8228 4.33908L22.801 7.48822C23.2811 9.03366 22.8591 10.5929 21.8932 11.6762C21.9242 11.7787 21.9408 11.8873 21.9408 12V18.6667C21.9408 20.5077 20.4573 22 18.6272 22H5.37277C3.54271 22 2.05915 20.5077 2.05915 18.6667V12C2.05915 11.8873 2.07582 11.7787 2.1068 11.6762C1.14085 10.593 0.718889 9.03367 1.19899 7.48822L2.17727 4.33908ZM14.2907 8.27939L13.7866 4.22266H10.214L9.70995 8.27939C9.53774 9.66525 10.6119 10.8893 12.0003 10.8893C13.3886 10.8893 14.4626 9.66508 14.2907 8.27939ZM7.98777 4.22266H5.34037C4.85726 4.22266 4.43021 4.53849 4.2861 5.00235L3.30783 8.15149C2.88598 9.50942 3.89447 10.8893 5.30874 10.8893C6.36599 10.8893 7.25777 10.0974 7.38891 9.04207L7.98777 4.22266ZM16.0129 4.22266L16.4827 8.00376L16.6117 9.04207C16.7429 10.0974 17.6347 10.8893 18.6919 10.8893C20.1062 10.8893 21.1146 9.50942 20.6928 8.15149L19.7145 5.00235C19.5705 4.53849 19.1434 4.22266 18.6602 4.22266H16.0129Z" fill="#6C779D"/>
</svg>
