<svg width="24" height="24" viewBox="0 0 24 24" fill="none" xmlns="http://www.w3.org/2000/svg">
<path fill-rule="evenodd" clip-rule="evenodd" d="M13.3293 1C14.1199 1 14.8224 1.49339 15.0724 2.22461L15.7941 4.33496L16.9103 5.02344L19.2628 4.45508C20.0487 4.2655 20.8697 4.60082 21.2834 5.2793L22.7423 7.67188C23.1724 8.37707 23.0555 9.27663 22.4591 9.85547L20.7951 11.4707V12.5293L22.4582 14.1445C23.0546 14.7234 23.1713 15.6229 22.7414 16.3281L21.2824 18.7207C20.8687 19.3991 20.0479 19.7344 19.2619 19.5449L16.8859 18.9717L15.8888 19.5166L15.2375 21.707C15.01 22.4726 14.2914 22.9998 13.4738 23H10.5011C9.68342 23 8.96391 22.4727 8.73648 21.707L8.08609 19.5166L7.08804 18.9717L4.71109 19.5449C3.9252 19.7343 3.10422 19.399 2.69058 18.7207L1.25894 16.373C0.807409 15.6324 0.960944 14.6826 1.62417 14.1133L3.2355 12.7305V11.2695L1.6232 9.88672C0.959837 9.31742 0.806377 8.36756 1.25796 7.62695L2.69058 5.2793C3.1042 4.60095 3.9243 4.26575 4.71011 4.45508L7.06363 5.02344L8.17984 4.33496L8.90152 2.22461C9.15152 1.49347 9.85315 1.00011 10.6437 1H13.3293ZM12.0001 8C9.79108 8.00009 8.00015 9.79091 8.00015 12C8.00015 14.2091 9.79108 15.9999 12.0001 16C14.2093 16 16.0001 14.2091 16.0001 12C16.0001 9.79086 14.2093 8 12.0001 8Z" fill="#6C779D"/>
</svg>
