<svg width="24" height="24" viewBox="0 0 24 24" fill="none" xmlns="http://www.w3.org/2000/svg">
<path fill-rule="evenodd" clip-rule="evenodd" d="M2.17727 4.33908C2.60957 2.9475 3.89073 2 5.34005 2H18.6599C20.1093 2 21.3904 2.9475 21.8228 4.33908L22.801 7.48822C23.2811 9.03366 22.8591 10.5929 21.8932 11.6762C21.9242 11.7787 21.9408 11.8873 21.9408 12V18.6667C21.9408 20.5077 20.4573 22 18.6272 22H5.37277C3.54271 22 2.05915 20.5077 2.05915 18.6667V12C2.05915 11.8873 2.07582 11.7787 2.1068 11.6762C1.14085 10.593 0.718889 9.03367 1.19899 7.48822L2.17727 4.33908ZM14.2904 8.27896L13.7862 4.22222H10.2137L9.70963 8.27896C9.53742 9.66481 10.6116 10.8889 12 10.8889C13.3883 10.8889 14.4623 9.66464 14.2904 8.27896ZM7.98745 4.22222H5.34005C4.85695 4.22222 4.4299 4.53806 4.28579 5.00191L3.30751 8.15106C2.88566 9.50899 3.89415 10.8889 5.30843 10.8889C6.36567 10.8889 7.25745 10.097 7.3886 9.04163L7.98745 4.22222ZM16.0126 4.22222L16.4824 8.00332L16.6114 9.04163C16.7425 10.097 17.6343 10.8889 18.6916 10.8889C20.1059 10.8889 21.1143 9.50899 20.6925 8.15106L19.7142 5.00191C19.5702 4.53806 19.143 4.22222 18.6599 4.22222H16.0126Z" fill="#6C779D"/>
</svg>
