<svg width="24" height="24" viewBox="0 0 24 24" fill="none" xmlns="http://www.w3.org/2000/svg">
<g clip-path="url(#clip0_0_54)">
<path fill-rule="evenodd" clip-rule="evenodd" d="M12 0C18.6274 0 24 5.37258 24 12C24 18.6274 18.6274 24 12 24C5.37258 24 0 18.6274 0 12C0 5.37258 5.37258 0 12 0ZM10.8604 7.07715C10.6901 7.07725 10.5244 7.13064 10.3867 7.23047C10.2489 7.33046 10.1458 7.47168 10.0928 7.63379L8.95996 10.79C8.86225 11.0051 8.68971 11.1777 8.47461 11.2754L5.31934 12.3281C5.16497 12.3986 5.03375 12.5132 4.94141 12.6562C4.84994 12.8 4.80081 12.9665 4.80078 13.1367C4.80078 13.3072 4.84975 13.4742 4.94141 13.6182C5.03379 13.7613 5.16488 13.8758 5.31934 13.9463L8.47461 14.998C8.58893 15.0329 8.69328 15.0959 8.77734 15.1807C8.86211 15.2647 8.9251 15.3691 8.95996 15.4834L10.0928 18.6396C10.1458 18.8018 10.2489 18.943 10.3867 19.043C10.5245 19.1429 10.6901 19.1972 10.8604 19.1973C11.0308 19.1973 11.1971 19.143 11.335 19.043C11.4728 18.943 11.5759 18.8017 11.6289 18.6396L12.7617 15.4834C12.7966 15.3691 12.8596 15.2647 12.9443 15.1807C13.0284 15.0959 13.1328 15.0329 13.2471 14.998L16.4023 13.9463C16.5568 13.8758 16.6879 13.7613 16.7803 13.6182C16.8719 13.4742 16.9209 13.3072 16.9209 13.1367C16.9209 12.9665 16.8717 12.8 16.7803 12.6562C16.6879 12.5132 16.5567 12.3986 16.4023 12.3281L13.2471 11.2754C13.032 11.1777 12.8594 11.0051 12.7617 10.79L11.6289 7.63379C11.5759 7.47168 11.4728 7.33046 11.335 7.23047C11.1971 7.13054 11.0307 7.07715 10.8604 7.07715ZM16.7412 4.79688C16.672 4.79688 16.6038 4.81879 16.5479 4.85938C16.4921 4.89989 16.4502 4.95691 16.4287 5.02246L15.9688 6.30469C15.9291 6.39162 15.8594 6.46136 15.7725 6.50098L14.4912 6.92871C14.4286 6.95731 14.3754 7.0035 14.3379 7.06152C14.3007 7.11994 14.2803 7.18766 14.2803 7.25684C14.2803 7.32602 14.3007 7.39373 14.3379 7.45215C14.3754 7.51018 14.4286 7.55635 14.4912 7.58496L15.7725 8.0127C15.8187 8.02686 15.8615 8.05257 15.8955 8.08691C15.9297 8.12098 15.9547 8.1637 15.9688 8.20996L16.4287 9.49121C16.4502 9.55678 16.4921 9.61377 16.5479 9.6543C16.6038 9.69489 16.672 9.7168 16.7412 9.7168C16.8102 9.7167 16.8778 9.6948 16.9336 9.6543C16.9893 9.61378 17.0312 9.55679 17.0527 9.49121L17.5127 8.20996C17.5268 8.16372 17.5517 8.12097 17.5859 8.08691C17.62 8.05259 17.6627 8.02687 17.709 8.0127L18.9902 7.58496C19.0529 7.55636 19.1061 7.51019 19.1436 7.45215C19.1808 7.39372 19.2012 7.32602 19.2012 7.25684C19.2012 7.18766 19.1808 7.11994 19.1436 7.06152C19.1061 7.00349 19.0529 6.9573 18.9902 6.92871L17.709 6.50098C17.6221 6.46135 17.5523 6.39161 17.5127 6.30469L17.0527 5.02246C17.0312 4.9569 16.9893 4.89988 16.9336 4.85938C16.8778 4.81887 16.8102 4.79697 16.7412 4.79688Z" fill="#6C779D"/>
</g>
<defs>
<clipPath id="clip0_0_54">
<rect width="24" height="24" fill="white"/>
</clipPath>
</defs>
</svg>
