<svg width="24" height="24" viewBox="0 0 24 24" fill="none" xmlns="http://www.w3.org/2000/svg">
<path fill-rule="evenodd" clip-rule="evenodd" d="M12 2C12.5523 2 13 2.44772 13 3V4H18C20.2091 4 22 5.79086 22 8V8.0498C23.1411 8.28142 24 9.29051 24 10.5C24 11.7094 23.141 12.7175 22 12.9492V16C22 18.2091 20.2091 20 18 20H6C3.79086 20 2 18.2091 2 16V12.9492C0.858955 12.7175 0 11.7094 0 10.5C0 9.29051 0.85886 8.28142 2 8.0498V8C2 5.79086 3.79086 4 6 4H11V3C11 2.44772 11.4477 2 12 2ZM10 14C9.44772 14 9 14.4477 9 15C9 15.5523 9.44772 16 10 16H14C14.5523 16 15 15.5523 15 15C15 14.4477 14.5523 14 14 14H10ZM8.5 8C7.67157 8 7 8.67157 7 9.5C7 10.3284 7.67157 11 8.5 11C9.32843 11 10 10.3284 10 9.5C10 8.67157 9.32843 8 8.5 8ZM15.5 8C14.6716 8 14 8.67157 14 9.5C14 10.3284 14.6716 11 15.5 11C16.3284 11 17 10.3284 17 9.5C17 8.67157 16.3284 8 15.5 8Z" fill="#6C779D"/>
</svg>
