<svg width="152" height="32" viewBox="0 0 152 32" fill="none" xmlns="http://www.w3.org/2000/svg">
<circle cx="16" cy="16" r="16" fill="#11141B"/>
<path d="M19.6022 10.3281H21.5235L17.326 15.1288L22.264 21.6615H18.3976L15.3693 17.6995L11.9042 21.6615H9.98179L14.4714 16.5266L9.73438 10.3281H13.6989L16.4363 13.9496L19.6022 10.3281ZM18.9279 20.5107H19.9925L13.1204 11.4185H11.978L18.9279 20.5107Z" fill="#6C779D"/>
<circle cx="56" cy="16" r="16" fill="#11141B"/>
<path d="M61.092 11.3499C60.1284 10.9064 59.1112 10.5918 58.0662 10.4141C57.9232 10.671 57.7938 10.9354 57.6786 11.2061C56.5655 11.0375 55.4336 11.0375 54.3205 11.2061C54.2052 10.9354 54.0758 10.6711 53.9329 10.4141C52.8873 10.5933 51.8693 10.9087 50.9048 11.3522C48.9898 14.2004 48.4707 16.9778 48.7302 19.7158C49.8517 20.5487 51.1069 21.1822 52.4413 21.5886C52.7418 21.1824 53.0077 20.7514 53.2361 20.3002C52.8022 20.1373 52.3834 19.9363 51.9845 19.6996C52.0895 19.623 52.1922 19.5442 52.2914 19.4676C53.452 20.0163 54.7187 20.3008 56.0013 20.3008C57.2838 20.3008 58.5506 20.0163 59.7112 19.4676C59.8116 19.55 59.9142 19.6288 60.018 19.6996C59.6184 19.9367 59.1988 20.1381 58.7641 20.3014C58.9923 20.7524 59.2582 21.183 59.5589 21.5886C60.8945 21.1838 62.1506 20.5506 63.2723 19.717C63.5768 16.5418 62.752 13.7899 61.092 11.3499ZM53.5649 18.032C52.8416 18.032 52.2441 17.3721 52.2441 16.5603C52.2441 15.7486 52.8209 15.0829 53.5626 15.0829C54.3044 15.0829 54.8973 15.7486 54.8846 16.5603C54.8719 17.3721 54.3021 18.032 53.5649 18.032ZM58.4376 18.032C57.7132 18.032 57.118 17.3721 57.118 16.5603C57.118 15.7486 57.6947 15.0829 58.4376 15.0829C59.1806 15.0829 59.7689 15.7486 59.7562 16.5603C59.7435 17.3721 59.1748 18.032 58.4376 18.032Z" fill="#6C779D"/>
<circle cx="96" cy="16" r="16" fill="#11141B"/>
<path d="M89.7356 15.22C93.387 13.6395 95.8213 12.5975 97.0384 12.0941C100.518 10.6565 101.24 10.4069 101.711 10.3985C101.815 10.3968 102.046 10.4222 102.196 10.5434C102.322 10.6455 102.357 10.7835 102.375 10.8803C102.39 10.9772 102.412 11.1979 102.394 11.3702C102.206 13.3379 101.39 18.1131 100.976 20.3171C100.801 21.2497 100.455 21.5624 100.12 21.5929C99.3924 21.6594 98.8406 21.1153 98.1361 20.6566C97.0345 19.9385 96.4122 19.4917 95.3418 18.7911C94.1052 17.9814 94.9074 17.5364 95.6119 16.8091C95.7958 16.6188 99.001 13.7225 99.0617 13.4598C99.0696 13.427 99.0774 13.3045 99.003 13.2399C98.9307 13.1752 98.8229 13.1973 98.7447 13.2148C98.6331 13.2397 96.874 14.3963 93.4613 16.6843C92.9623 17.0254 92.5103 17.1916 92.1033 17.1829C91.6571 17.1733 90.7962 16.9316 90.1563 16.7251C89.3736 16.4718 88.7493 16.3378 88.8041 15.9075C88.8315 15.6835 89.1427 15.4542 89.7356 15.22Z" fill="#6C779D"/>
<circle cx="136" cy="16" r="16" fill="#11141B"/>
<path d="M135.999 9.29688C139.682 9.29688 142.665 12.2802 142.665 15.9636C142.665 17.3604 142.227 18.722 141.412 19.8566C140.597 20.9912 139.447 21.8418 138.124 22.2886C137.79 22.3552 137.665 22.1469 137.665 21.9719C137.665 21.7469 137.674 21.0302 137.674 20.1386C137.674 19.5136 137.465 19.1136 137.224 18.9052C138.707 18.7386 140.265 18.1719 140.265 15.6136C140.265 14.8802 140.007 14.2885 139.582 13.8219C139.649 13.6552 139.882 12.9719 139.515 12.0552C139.515 12.0552 138.957 11.8719 137.682 12.7385C137.149 12.5885 136.582 12.5135 136.015 12.5135C135.449 12.5135 134.882 12.5885 134.349 12.7385C133.074 11.8802 132.515 12.0552 132.515 12.0552C132.149 12.9719 132.382 13.6552 132.449 13.8219C132.024 14.2885 131.765 14.8886 131.765 15.6136C131.765 18.1636 133.315 18.7386 134.799 18.9052C134.607 19.0719 134.432 19.3636 134.374 19.7969C133.99 19.9719 133.032 20.2552 132.432 19.2469C132.307 19.0469 131.932 18.5552 131.407 18.5636C130.849 18.5719 131.182 18.8802 131.415 19.0052C131.699 19.1636 132.024 19.7552 132.099 19.9469C132.232 20.3219 132.665 21.0386 134.34 20.7302C134.34 21.2886 134.349 21.8136 134.349 21.9719C134.349 22.1469 134.224 22.3469 133.89 22.2886C132.563 21.8466 131.408 20.9978 130.589 19.8624C129.771 18.7271 129.331 17.363 129.332 15.9636C129.332 12.2802 132.315 9.29688 135.999 9.29688Z" fill="#6C779D"/>
</svg>
