<svg width="181" height="210" viewBox="0 0 181 210" fill="none" xmlns="http://www.w3.org/2000/svg">
<g filter="url(#filter0_dddd_2962_28077)">
<path d="M101.974 29.4847H65.8997V20.2395C67.1036 19.558 68.1074 18.5723 68.8108 17.3811C69.5142 16.1899 69.8926 14.8349 69.908 13.4516C69.908 11.3255 69.0634 9.28644 67.56 7.78304C66.0566 6.27965 64.0176 5.43505 61.8915 5.43505C59.7653 5.43505 57.7263 6.27965 56.2229 7.78304C54.7195 9.28644 53.8749 11.3255 53.8749 13.4516C53.8903 14.8349 54.2687 16.1899 54.9721 17.3811C55.6755 18.5723 56.6793 19.558 57.8832 20.2395V29.4847H21.8087C17.5579 29.4896 13.4827 31.1803 10.477 34.1861C7.47121 37.1918 5.78046 41.2671 5.7756 45.5178V101.634C5.78046 105.884 7.47121 109.96 10.477 112.965C13.4827 115.971 17.5579 117.662 21.8087 117.667H29.8253V137.708C29.8255 138.501 30.0606 139.276 30.5009 139.935C30.9412 140.594 31.5669 141.107 32.2991 141.411C32.7852 141.614 33.3068 141.718 33.8335 141.716C34.3599 141.716 34.8811 141.613 35.3673 141.411C35.8536 141.21 36.2954 140.914 36.6675 140.542L59.5426 117.667H101.974C106.225 117.662 110.3 115.971 113.306 112.965C116.312 109.96 118.002 105.884 118.007 101.634V45.5178C118.002 41.2671 116.312 37.1918 113.306 34.1861C110.3 31.1803 106.225 29.4896 101.974 29.4847ZM29.8253 69.5675C29.8253 67.9819 30.2954 66.432 31.1763 65.1137C32.0572 63.7954 33.3092 62.7679 34.774 62.1611C36.2388 61.5544 37.8507 61.3956 39.4058 61.7049C40.9608 62.0143 42.3892 62.7778 43.5104 63.8989C44.6315 65.02 45.395 66.4484 45.7043 68.0035C46.0136 69.5586 45.8549 71.1704 45.2481 72.6353C44.6414 74.1001 43.6139 75.3521 42.2956 76.233C40.9772 77.1138 39.4273 77.584 37.8418 77.584C35.7157 77.584 33.6766 76.7394 32.1732 75.236C30.6699 73.7326 29.8253 71.6936 29.8253 69.5675ZM83.9918 92.9321C77.3221 96.9553 69.6806 99.0815 61.8915 99.0815C54.1023 99.0815 46.4608 96.9553 39.7911 92.9321C39.3387 92.6623 38.9439 92.3059 38.6293 91.8833C38.3148 91.4607 38.0867 90.9802 37.9581 90.4693C37.8295 89.9585 37.8028 89.4273 37.8798 88.9061C37.9567 88.385 38.1357 87.8841 38.4064 87.4322C38.6771 86.9803 39.0343 86.5862 39.4576 86.2725C39.8808 85.9589 40.3617 85.7317 40.8728 85.6041C41.3839 85.4765 41.9152 85.451 42.4362 85.529C42.9572 85.6069 43.4577 85.7869 43.9091 86.0585C49.3556 89.2758 55.5656 90.973 61.8915 90.973C68.2173 90.973 74.4273 89.2758 79.8739 86.0585C80.3252 85.7869 80.8257 85.6069 81.3467 85.529C81.8677 85.451 82.399 85.4765 82.9101 85.6041C83.4212 85.7317 83.9021 85.9589 84.3254 86.2725C84.7486 86.5862 85.1058 86.9803 85.3765 87.4322C85.6473 87.8841 85.8262 88.385 85.9032 88.9061C85.9801 89.4273 85.9535 89.9585 85.8248 90.4693C85.6962 90.9802 85.4681 91.4607 85.1536 91.8833C84.839 92.3059 84.4443 92.6623 83.9918 92.9321ZM85.9411 77.584C84.3556 77.584 82.8057 77.1138 81.4874 76.233C80.169 75.3521 79.1415 74.1001 78.5348 72.6353C77.928 71.1704 77.7693 69.5586 78.0786 68.0035C78.3879 66.4484 79.1514 65.02 80.2726 63.8989C81.3937 62.7778 82.8221 62.0143 84.3772 61.7049C85.9322 61.3956 87.5441 61.5544 89.0089 62.1611C90.4738 62.7679 91.7258 63.7954 92.6066 65.1137C93.4875 66.432 93.9577 67.9819 93.9577 69.5675C93.9577 71.6936 93.1131 73.7326 91.6097 75.236C90.1063 76.7394 88.0672 77.584 85.9411 77.584Z" fill="url(#paint0_linear_2962_28077)"/>
<path d="M83.2011 84.437C82.5367 84.2712 81.8458 84.2388 81.1686 84.3402C80.4945 84.4411 79.8468 84.6729 79.2623 85.0232C74.0009 88.1311 68.0022 89.7703 61.8915 89.7703C55.9716 89.7703 50.1569 88.2317 45.0158 85.3099L44.5206 85.0232C43.9361 84.6729 43.2884 84.4411 42.6144 84.3402C41.9371 84.2388 41.2463 84.2712 40.5818 84.437C39.9173 84.6029 39.2914 84.8982 38.7411 85.306C38.191 85.7138 37.727 86.2266 37.375 86.814C37.0231 87.4014 36.7901 88.0527 36.69 88.7301C36.59 89.4075 36.6246 90.0985 36.7918 90.7626C36.959 91.4268 37.2557 92.0519 37.6647 92.6014C38.0722 93.1489 38.584 93.6102 39.1697 93.9606V93.9616C46.0269 98.0978 53.8834 100.284 61.8915 100.284C69.8996 100.284 77.756 98.0978 84.6132 93.9616L84.6122 93.9606C85.1983 93.6102 85.7105 93.1491 86.1182 92.6014C86.5272 92.0519 86.8239 91.4268 86.9911 90.7626C87.1583 90.0985 87.1929 89.4075 87.0929 88.7301C86.9929 88.0526 86.7598 87.4014 86.4079 86.814C86.0559 86.2266 85.592 85.7138 85.0418 85.306C84.4915 84.8982 83.8656 84.6029 83.2011 84.437ZM39.6404 60.5254C37.8522 60.1697 35.9985 60.3522 34.314 61.0499C32.6295 61.7476 31.1896 62.9295 30.1766 64.4456C29.1636 65.9616 28.6226 67.7441 28.6226 69.5675C28.6226 72.0125 29.5936 74.3579 31.3225 76.0868C33.0514 77.8157 35.3968 78.7867 37.8418 78.7867C39.6652 78.7867 41.4476 78.2457 42.9637 77.2327C44.4797 76.2197 45.6616 74.7798 46.3594 73.0953C47.0571 71.4108 47.2396 69.5571 46.8839 67.7688C46.5282 65.9805 45.6504 64.3374 44.3611 63.0481C43.0718 61.7589 41.4287 60.8811 39.6404 60.5254ZM89.4689 61.0499C87.7844 60.3522 85.9307 60.1697 84.1425 60.5254C82.3542 60.8811 80.7111 61.7589 79.4218 63.0481C78.1325 64.3374 77.2547 65.9805 76.899 67.7688C76.5433 69.5571 76.7259 71.4108 77.4235 73.0953C78.1213 74.7798 79.3032 76.2197 80.8192 77.2327C82.3353 78.2457 84.1178 78.7867 85.9411 78.7867C88.3862 78.7867 90.7315 77.8157 92.4604 76.0868C94.1893 74.3579 95.1603 72.0125 95.1603 69.5675C95.1603 67.7441 94.6194 65.9616 93.6064 64.4456C92.5934 62.9295 91.1534 61.7476 89.4689 61.0499ZM59.0859 19.5384L58.4752 19.1929C57.4548 18.6152 56.6035 17.7798 56.0072 16.77C55.4854 15.8862 55.1745 14.8958 55.0962 13.8763L55.0776 13.4379C55.0812 11.6356 55.7983 9.90772 57.0729 8.63306C58.3508 7.35517 60.0843 6.63773 61.8915 6.63773C63.6987 6.63773 65.4321 7.35517 66.71 8.63306C67.9847 9.90772 68.7017 11.6356 68.7053 13.4379C68.6923 14.6107 68.372 15.76 67.7757 16.77C67.1794 17.7798 66.3282 18.6152 65.3077 19.1929L64.6971 19.5384V30.6874H101.973L102.341 30.6923C106.14 30.7908 109.762 32.3426 112.456 35.0362C115.236 37.8167 116.8 41.5866 116.805 45.5188V101.634C116.8 105.565 115.236 109.335 112.456 112.115C109.675 114.896 105.905 116.46 101.973 116.464H59.0448L35.8171 139.692C35.5566 139.952 35.2474 140.159 34.907 140.3C34.5667 140.441 34.2019 140.514 33.8335 140.514H33.8306C33.4638 140.515 33.1005 140.443 32.762 140.301L32.76 140.3L32.5712 140.213C32.1398 139.996 31.7703 139.671 31.5006 139.267C31.1924 138.806 31.0282 138.263 31.0279 137.708V116.464H21.8097C17.8775 116.46 14.1076 114.896 11.3271 112.115C8.63348 109.422 7.08168 105.799 6.98317 102.001L6.97828 101.633V45.5188C6.98287 41.5866 8.54663 37.8167 11.3271 35.0362C14.0207 32.3426 17.643 30.7908 21.4417 30.6923L21.8097 30.6874H59.0859V19.5384Z" stroke="url(#paint1_linear_2962_28077)" stroke-width="2.4"/>
</g>
<defs>
<filter id="filter0_dddd_2962_28077" x="0.000373658" y="-0.000453933" width="180.855" height="210" filterUnits="userSpaceOnUse" color-interpolation-filters="sRGB">
<feFlood flood-opacity="0" result="BackgroundImageFix"/>
<feColorMatrix in="SourceAlpha" type="matrix" values="0 0 0 0 0 0 0 0 0 0 0 0 0 0 0 0 0 0 127 0" result="hardAlpha"/>
<feOffset dx="2.37312" dy="2.71214"/>
<feGaussianBlur stdDeviation="4.06821"/>
<feColorMatrix type="matrix" values="0 0 0 0 0 0 0 0 0 0 0 0 0 0 0 0 0 0 0.6 0"/>
<feBlend mode="normal" in2="BackgroundImageFix" result="effect1_dropShadow_2962_28077"/>
<feColorMatrix in="SourceAlpha" type="matrix" values="0 0 0 0 0 0 0 0 0 0 0 0 0 0 0 0 0 0 127 0" result="hardAlpha"/>
<feOffset dx="9.83151" dy="11.1876"/>
<feGaussianBlur stdDeviation="7.28888"/>
<feColorMatrix type="matrix" values="0 0 0 0 0 0 0 0 0 0 0 0 0 0 0 0 0 0 0.6 0"/>
<feBlend mode="normal" in2="effect1_dropShadow_2962_28077" result="effect2_dropShadow_2962_28077"/>
<feColorMatrix in="SourceAlpha" type="matrix" values="0 0 0 0 0 0 0 0 0 0 0 0 0 0 0 0 0 0 127 0" result="hardAlpha"/>
<feOffset dx="22.0361" dy="25.0873"/>
<feGaussianBlur stdDeviation="10.001"/>
<feColorMatrix type="matrix" values="0 0 0 0 0 0 0 0 0 0 0 0 0 0 0 0 0 0 0.3 0"/>
<feBlend mode="normal" in2="effect2_dropShadow_2962_28077" result="effect3_dropShadow_2962_28077"/>
<feColorMatrix in="SourceAlpha" type="matrix" values="0 0 0 0 0 0 0 0 0 0 0 0 0 0 0 0 0 0 127 0" result="hardAlpha"/>
<feOffset dx="38.987" dy="44.4113"/>
<feGaussianBlur stdDeviation="11.8656"/>
<feColorMatrix type="matrix" values="0 0 0 0 0 0 0 0 0 0 0 0 0 0 0 0 0 0 0.2 0"/>
<feBlend mode="normal" in2="effect3_dropShadow_2962_28077" result="effect4_dropShadow_2962_28077"/>
<feBlend mode="normal" in="SourceGraphic" in2="effect4_dropShadow_2962_28077" result="shape"/>
</filter>
<linearGradient id="paint0_linear_2962_28077" x1="43.53" y1="-2.18595" x2="122.333" y2="46.6184" gradientUnits="userSpaceOnUse">
<stop stop-color="#965AFF"/>
<stop offset="1" stop-color="#7631EE"/>
</linearGradient>
<linearGradient id="paint1_linear_2962_28077" x1="-2.25931" y1="24.2634" x2="132.462" y2="104.852" gradientUnits="userSpaceOnUse">
<stop stop-color="#FFAAF9" stop-opacity="0.7"/>
<stop offset="0.359884" stop-color="#FFAAF9" stop-opacity="0"/>
<stop offset="0.673077" stop-color="#65CCFF" stop-opacity="0.05"/>
<stop offset="1" stop-color="#65CCFF" stop-opacity="0.8"/>
</linearGradient>
</defs>
</svg>
