<svg width="48" height="48" viewBox="0 0 48 48" fill="none" xmlns="http://www.w3.org/2000/svg">
<g clip-path="url(#clip0_2955_27860)">
<circle cx="24" cy="24" r="24" fill="#FF9500"/>
<path fill-rule="evenodd" clip-rule="evenodd" d="M35.6663 19.2914C35.6663 20.5892 34.6254 21.6439 33.333 21.6662V29.7615C34.1786 30.2368 34.844 31.0157 35.1655 31.9802C35.5786 33.2198 34.656 34.5 33.3493 34.5H14.65C13.3434 34.5 12.4207 33.2198 12.8339 31.9802C13.1554 31.0157 13.8207 30.2368 14.6663 29.7615V21.6662C13.3739 21.6439 12.333 20.5892 12.333 19.2914C12.333 18.3953 12.8373 17.5755 13.6372 17.1714L22.0268 12.9329C23.2675 12.3062 24.7319 12.3062 25.9725 12.9329L34.3621 17.1714C35.162 17.5755 35.6663 18.3953 35.6663 19.2914ZM28.6663 21.6666H31.583V29.2552C31.5148 29.2517 31.4463 29.25 31.3773 29.25H28.6663V21.6666ZM26.9163 29.25H21.083V21.6666H26.9163V29.25ZM19.333 29.25V21.6666H16.4163V29.2552C16.4846 29.2517 16.5531 29.25 16.622 29.25H19.333Z" fill="#4A2300"/>
</g>
<defs>
<clipPath id="clip0_2955_27860">
<rect width="48" height="48" rx="24" fill="white"/>
</clipPath>
</defs>
</svg>
