<svg width="32" height="32" viewBox="0 0 32 32" fill="none" xmlns="http://www.w3.org/2000/svg">
<g clip-path="url(#clip0_2955_27877)">
<circle cx="16" cy="16" r="16" fill="#11141B"/>
<path fill-rule="evenodd" clip-rule="evenodd" d="M24.3337 12.6373C24.3337 13.5643 23.5902 14.3176 22.667 14.3336V20.1159C23.271 20.4554 23.7462 21.0118 23.9759 21.7007C24.271 22.5861 23.612 23.5005 22.6787 23.5005H9.32199C8.38868 23.5005 7.72964 22.5861 8.02478 21.7007C8.25443 21.0118 8.72964 20.4554 9.33366 20.1159V14.3336C8.41047 14.3176 7.66699 13.5643 7.66699 12.6373C7.66699 11.9972 8.02723 11.4116 8.59854 11.123L14.5912 8.0955C15.4773 7.64785 16.5233 7.64785 17.4095 8.0955L23.4021 11.123C23.9734 11.4116 24.3337 11.9972 24.3337 12.6373ZM19.3337 14.3338H21.417V19.7543C21.3682 19.7518 21.3193 19.7505 21.2701 19.7505H19.3337V14.3338ZM18.0837 19.7505H13.917V14.3338H18.0837V19.7505ZM12.667 19.7505V14.3338H10.5837V19.7543C10.6324 19.7518 10.6814 19.7505 10.7306 19.7505H12.667Z" fill="#6C779D"/>
</g>
<defs>
<clipPath id="clip0_2955_27877">
<rect width="32" height="32" rx="16" fill="white"/>
</clipPath>
</defs>
</svg>
