<svg preserveAspectRatio="none" width="100%" height="100%" overflow="visible" style="display: block;" viewBox="0 0 24 24" fill="none" xmlns="http://www.w3.org/2000/svg">
<g id="bank">
<path id="Vector" fill-rule="evenodd" clip-rule="evenodd" d="M22 7.96239C22 9.07479 21.1078 9.97881 20 9.99796V16.9368C20.7248 17.3442 21.2951 18.0118 21.5707 18.8385C21.9248 19.901 21.134 20.9983 20.014 20.9983H3.986C2.86602 20.9983 2.07518 19.901 2.42934 18.8385C2.70493 18.0118 3.27518 17.3442 4 16.9368V9.99796C2.89217 9.97881 2 9.07479 2 7.96239C2 7.19429 2.43229 6.49158 3.11786 6.14523L10.309 2.51226C11.3724 1.97508 12.6276 1.97508 13.691 2.51226L20.8821 6.14523C21.5677 6.49158 22 7.19429 22 7.96239ZM16 9.99827H18.5V16.5028C18.4415 16.4998 18.3828 16.4983 18.3237 16.4983H16V9.99827ZM14.5 16.4983H9.5V9.99827H14.5V16.4983ZM8 16.4983V9.99827H5.5V16.5028C5.55847 16.4998 5.61724 16.4983 5.67628 16.4983H8Z" fill="var(--fill-0, #4A2300)"/>
</g>
</svg>
