<svg preserveAspectRatio="none" width="100%" height="100%" overflow="visible" style="display: block;" viewBox="0 0 22 20" fill="none" xmlns="http://www.w3.org/2000/svg">
<g id="Union">
<path d="M14.3 4.44444C18.5526 4.44444 22 7.92667 22 12.2222C22 16.5178 18.5526 20 14.3 20C10.0474 20 6.6 16.5178 6.6 12.2222C6.6 7.92667 10.0474 4.44444 14.3 4.44444Z" fill="var(--fill-0, #6C779D)"/>
<path d="M7.7 0C9.09891 0 10.4107 0.376832 11.5413 1.03548C12.261 1.45474 11.9481 2.46957 11.1589 2.73604C7.23103 4.06247 4.4 7.80839 4.4 12.2222C4.4 12.466 4.40863 12.7078 4.4256 12.9472C4.48467 13.7808 3.66119 14.4544 3.00195 13.9408C1.17614 12.5185 0 10.2869 0 7.77778C0 3.48223 3.44741 0 7.7 0Z" fill="var(--fill-0, #6C779D)"/>
</g>
</svg>
