<svg preserveAspectRatio="none" width="100%" height="100%" overflow="visible" style="display: block;" viewBox="0 0 22.3812 18.1986" fill="none" xmlns="http://www.w3.org/2000/svg">
<g id="Union">
<path d="M18.3595 8.48803C19.1185 8.14695 20.0172 8.38852 20.504 9.06323L20.6016 9.21459L22.2472 12.0632C22.5232 12.5415 22.3592 13.1533 21.8809 13.4294C21.4027 13.7055 20.7908 13.5415 20.5147 13.0632L19.8653 11.9392C19.1692 13.9923 17.7407 15.8199 15.7345 16.9783C11.3831 19.4905 5.81914 17.9994 3.30672 13.6482C3.0309 13.1701 3.19405 12.5582 3.67195 12.282C4.15014 12.0059 4.76194 12.1701 5.03817 12.6482C6.99823 16.043 11.3396 17.2058 14.7345 15.2458C16.4206 14.2723 17.5841 12.6943 18.0782 10.949L16.3497 11.947C15.8714 12.223 15.2606 12.059 14.9845 11.5808C14.7087 11.1027 14.8719 10.4918 15.3497 10.2156L18.1993 8.57006L18.3595 8.48803Z" fill="url(#paint0_linear_0_7)"/>
<path d="M11.1847 3.09936C11.7369 3.09936 12.1847 3.54707 12.1847 4.09936V4.62377C12.8381 4.8404 13.3983 5.26593 13.7608 5.83569C14.0569 6.3015 13.9198 6.9191 13.4542 7.21557C12.9883 7.51186 12.3698 7.37478 12.0733 6.90893C11.9193 6.66686 11.5986 6.46264 11.1847 6.46264H10.962C10.4412 6.46291 10.1849 6.8262 10.1847 7.07885V7.14819C10.1847 7.35554 10.3155 7.60586 10.6231 7.74584L12.5733 8.63256C13.5217 9.06366 14.1847 9.98106 14.1847 11.0505C14.1844 12.3115 13.301 13.2769 12.1847 13.6091V14.0994C12.1846 14.6516 11.7369 15.0994 11.1847 15.0994C10.6325 15.0993 10.1847 14.6515 10.1847 14.0994V13.574C9.53137 13.3573 8.97092 12.9326 8.60848 12.363C8.31237 11.8973 8.44965 11.2797 8.91512 10.9831C9.38108 10.6867 9.9995 10.8238 10.296 11.2898C10.45 11.5318 10.7708 11.736 11.1847 11.7361H11.3302C11.8933 11.7361 12.1843 11.3416 12.1847 11.0505C12.1847 10.8431 12.054 10.5929 11.7462 10.4529L9.79598 9.56616C8.84768 9.13506 8.18472 8.21755 8.18465 7.14819V7.07885C8.1848 5.82866 9.07398 4.87704 10.1847 4.56908V4.09936C10.1847 3.54713 10.6324 3.09945 11.1847 3.09936Z" fill="url(#paint1_linear_0_7)"/>
<path d="M6.6368 1.22045C10.988 -1.29167 16.5521 0.1986 19.0645 4.54955C19.3406 5.02779 19.1765 5.63958 18.6983 5.91576C18.22 6.19191 17.6083 6.02785 17.3321 5.54955C15.372 2.15539 11.0314 0.992309 7.6368 2.9519C5.95094 3.92523 4.78639 5.50287 4.29207 7.2478L5.8116 6.37182C6.2897 6.0958 6.90152 6.25922 7.17781 6.73705C7.45395 7.21534 7.28988 7.82712 6.8116 8.10326L4.18172 9.62182C3.34053 10.1073 2.26525 9.81918 1.77938 8.97826L0.133869 6.12866C-0.141852 5.65044 0.0219618 5.03849 0.50008 4.76244C0.978226 4.48651 1.59008 4.6507 1.86629 5.12866L2.50887 6.24291C3.20686 4.19608 4.63557 2.37586 6.6368 1.22045Z" fill="url(#paint2_linear_0_7)"/>
<path d="M18.6543 9.12305C19.1051 8.92489 19.6384 9.06751 19.9307 9.46484L19.9941 9.56445H19.9951L21.6406 12.4131C21.7234 12.5565 21.6746 12.7403 21.5313 12.8232C21.3878 12.906 21.2039 12.8564 21.1211 12.7129L20.4717 11.5889L19.6982 10.251L19.2021 11.7148C18.5585 13.613 17.2381 15.302 15.3848 16.3721C11.4939 18.6185 6.55219 17.397 4.13867 13.667L3.91309 13.2979C3.83034 13.1539 3.87973 12.9712 4.02148 12.8887C4.16437 12.8062 4.34841 12.8546 4.43164 12.998C6.58493 16.7275 11.3545 18.0054 15.084 15.8525V15.8516C16.9341 14.7833 18.2102 13.0534 18.752 11.1396L19.2217 9.48047L17.7285 10.3428L16 11.3408C15.8747 11.4131 15.7185 11.3848 15.626 11.2803L15.5908 11.2305C15.5081 11.0866 15.5575 10.9038 15.7002 10.8213L18.5254 9.18945L18.6543 9.12305ZM6.98633 1.82715C11.0028 -0.491663 16.1388 0.883505 18.458 4.89941C18.5304 5.02479 18.5022 5.18167 18.3975 5.27441L18.3486 5.30957C18.2053 5.39233 18.0214 5.34285 17.9385 5.19922C15.785 1.47049 11.0164 0.19302 7.28711 2.3457C5.43759 3.41352 4.16027 5.14323 3.61816 7.05664L3.14941 8.71484L4.6416 7.85449L6.16113 6.97852C6.30474 6.89561 6.48845 6.94446 6.57129 7.08691C6.64377 7.21245 6.61551 7.36926 6.51074 7.46191L6.46191 7.49707L3.83203 9.01563C3.32561 9.3079 2.6783 9.13426 2.38574 8.62793L0.740234 5.77832C0.657881 5.6348 0.707118 5.45181 0.849609 5.36914C0.974876 5.29685 1.13179 5.32509 1.22461 5.42969L1.25977 5.47852L1.90234 6.59277L2.67383 7.92969L3.17188 6.46875C3.81703 4.57703 5.13727 2.89489 6.98633 1.82715ZM10.8848 13.0684L10.4053 12.9092C9.96015 12.7616 9.57785 12.4932 9.30762 12.1426L9.19922 11.9873C9.11067 11.8479 9.15097 11.6624 9.29004 11.5732L9.29102 11.5742C9.43112 11.4851 9.61633 11.5265 9.70508 11.666C9.95664 12.0612 10.408 12.3547 10.9482 12.4219L11.1846 12.4365H11.3301C12.2409 12.4365 12.8837 11.7663 12.8848 11.0518V11.0508C12.8848 10.5479 12.574 10.0601 12.0361 9.81543L10.0859 8.92871C9.36044 8.5989 8.88494 7.91456 8.88477 7.14844V7.0791C8.88487 6.19499 9.51179 5.48169 10.3721 5.24316L10.8848 5.10156V4.09961C10.8848 3.93415 11.0189 3.79993 11.1846 3.7998C11.3503 3.7998 11.4844 3.93392 11.4844 4.09961V5.12891L11.9648 5.28809C12.4093 5.43552 12.7911 5.70474 13.0615 6.05566L13.1699 6.21191C13.2474 6.33429 13.2261 6.49114 13.126 6.58789L13.0781 6.625C12.938 6.71387 12.7526 6.67224 12.6641 6.5332C12.3767 6.08153 11.8287 5.7627 11.1846 5.7627H10.9619L10.8018 5.77051C10.0173 5.84371 9.48498 6.44651 9.48438 7.07813V7.14844C9.48455 7.65092 9.7954 8.1381 10.333 8.38281L12.2832 9.26953C13.0089 9.5994 13.4844 10.2845 13.4844 11.0508C13.484 11.9512 12.8562 12.6792 11.9854 12.9385L11.4844 13.0869V14.0996C11.4842 14.2653 11.35 14.3994 11.1846 14.3994C11.0191 14.3993 10.885 14.265 10.8848 14.0996V13.0684Z" stroke="url(#paint3_linear_0_7)" stroke-opacity="0.6" stroke-width="1.4"/>
</g>
<defs>
<linearGradient id="paint0_linear_0_7" x1="7.52896" y1="-1.01768" x2="19.2474" y2="9.82044" gradientUnits="userSpaceOnUse">
<stop stop-color="#965AFF"/>
<stop offset="1" stop-color="#7631EE"/>
</linearGradient>
<linearGradient id="paint1_linear_0_7" x1="7.52896" y1="-1.01768" x2="19.2474" y2="9.82044" gradientUnits="userSpaceOnUse">
<stop stop-color="#965AFF"/>
<stop offset="1" stop-color="#7631EE"/>
</linearGradient>
<linearGradient id="paint2_linear_0_7" x1="7.52896" y1="-1.01768" x2="19.2474" y2="9.82044" gradientUnits="userSpaceOnUse">
<stop stop-color="#965AFF"/>
<stop offset="1" stop-color="#7631EE"/>
</linearGradient>
<linearGradient id="paint3_linear_0_7" x1="2.22475" y1="4.31019" x2="14.566" y2="11.6121" gradientUnits="userSpaceOnUse">
<stop stop-color="white"/>
<stop offset="0.694152" stop-color="white" stop-opacity="0"/>
</linearGradient>
</defs>
</svg>
