<svg preserveAspectRatio="none" width="100%" height="100%" overflow="visible" style="display: block;" viewBox="0 0 24 24" fill="none" xmlns="http://www.w3.org/2000/svg">
<g id="Buttons">
<circle id="Ellipse 1427" cx="12" cy="12" r="12" fill="var(--fill-0, #222737)"/>
<g id="Icons">
<path id="Vector" d="M11.3333 11.3333H12V14.6667M18 12C18 15.3137 15.3137 18 12 18C8.68629 18 6 15.3137 6 12C6 8.68629 8.68629 6 12 6C15.3137 6 18 8.68629 18 12Z" stroke="var(--stroke-0, #6C779D)" stroke-width="1.5" stroke-linecap="round" stroke-linejoin="round"/>
<path id="Vector_2" d="M12 8.83333C11.7239 8.83333 11.5 9.05719 11.5 9.33333C11.5 9.60947 11.7239 9.83333 12 9.83333C12.2761 9.83333 12.5 9.60947 12.5 9.33333C12.5 9.05719 12.2761 8.83333 12 8.83333Z" fill="var(--fill-0, #6C779D)" stroke="var(--stroke-0, #6C779D)" stroke-width="0.75"/>
</g>
</g>
</svg>
