<svg preserveAspectRatio="none" width="100%" height="100%" overflow="visible" style="display: block;" viewBox="0 0 9.24168 22" fill="none" xmlns="http://www.w3.org/2000/svg">
<g id="Union">
<path d="M8.68011 11.5801C8.98943 11.564 9.24124 11.8252 9.24168 12.1448V21.4199C9.24168 21.7399 8.99015 21.9998 8.68011 22H2.95111C1.08994 21.9996 -0.45531 20.4074 0.123212 18.5819C1.23625 15.0699 4.06977 11.8248 8.68011 11.5801Z" fill="url(#paint0_linear_0_25)"/>
<path d="M8.68011 0.00311206C8.98835 -0.0317738 9.24067 0.231443 9.24067 0.551474V9.82657C9.24031 10.1463 8.98815 10.4078 8.68011 10.3729C6.15205 10.085 4.18491 7.87448 4.18455 5.18902C4.18455 2.50323 6.15182 0.291055 8.68011 0.00311206Z" fill="url(#paint1_linear_0_25)"/>
<path d="M8.54199 21.2998H2.95117L2.67969 21.2852C2.0561 21.2183 1.50789 20.9253 1.14941 20.5146C0.750197 20.0571 0.580679 19.4536 0.790039 18.793C1.82726 15.5204 4.40495 12.5884 8.54199 12.292V21.2998ZM8.54102 9.64551C6.48392 9.30069 4.88531 7.45247 4.88477 5.18945C4.88477 2.92566 6.48366 1.0744 8.54102 0.729492V9.64551Z" stroke="url(#paint2_linear_0_25)" stroke-opacity="0.6" stroke-width="1.4"/>
</g>
<defs>
<linearGradient id="paint0_linear_0_25" x1="3.10887" y1="-1.23026" x2="11.2721" y2="1.34859" gradientUnits="userSpaceOnUse">
<stop stop-color="#965AFF"/>
<stop offset="1" stop-color="#7631EE"/>
</linearGradient>
<linearGradient id="paint1_linear_0_25" x1="3.10887" y1="-1.23026" x2="11.2721" y2="1.34859" gradientUnits="userSpaceOnUse">
<stop stop-color="#965AFF"/>
<stop offset="1" stop-color="#7631EE"/>
</linearGradient>
<linearGradient id="paint2_linear_0_25" x1="3.06107" y1="6.92921" x2="7.34834" y2="8.16138" gradientUnits="userSpaceOnUse">
<stop stop-color="white"/>
<stop offset="0.694152" stop-color="white" stop-opacity="0"/>
</linearGradient>
</defs>
</svg>
