<svg preserveAspectRatio="none" width="100%" height="100%" overflow="visible" style="display: block;" viewBox="0 0 13.7418 26.5" fill="none" xmlns="http://www.w3.org/2000/svg">
<g id="Union" filter="url(#filter0_di_0_27)">
<path d="M3.44235 20.7781C4.10088 20.7781 4.63458 21.3036 4.63468 21.9515C4.63468 22.5995 4.10094 23.125 3.44235 23.125C2.78375 23.125 2.25002 22.5995 2.25002 21.9515C2.25012 21.3036 2.78382 20.7781 3.44235 20.7781Z" fill="var(--fill-0, #7631EE)"/>
<path d="M3.44235 20.7781C4.10088 20.7781 4.63458 21.3036 4.63468 21.9515C4.63468 22.5995 4.10094 23.125 3.44235 23.125C2.78375 23.125 2.25002 22.5995 2.25002 21.9515C2.25012 21.3036 2.78382 20.7781 3.44235 20.7781Z" fill="url(#paint0_linear_0_27)"/>
<path d="M7.01934 20.7781C7.67787 20.7781 8.21257 21.3036 8.21267 21.9515C8.21267 22.5995 7.67793 23.125 7.01934 23.125C6.36097 23.1247 5.82701 22.5994 5.82701 21.9515C5.82711 21.3037 6.36103 20.7783 7.01934 20.7781Z" fill="var(--fill-0, #7631EE)"/>
<path d="M7.01934 20.7781C7.67787 20.7781 8.21257 21.3036 8.21267 21.9515C8.21267 22.5995 7.67793 23.125 7.01934 23.125C6.36097 23.1247 5.82701 22.5994 5.82701 21.9515C5.82711 21.3037 6.36103 20.7783 7.01934 20.7781Z" fill="url(#paint1_linear_0_27)"/>
<path d="M10.5973 21.0717C11.0912 21.0717 11.4917 21.4656 11.4918 21.9515C11.4918 22.4375 11.0913 22.8313 10.5973 22.8313C10.1034 22.8313 9.70283 22.4375 9.70283 21.9515C9.70293 21.4656 10.1034 21.0717 10.5973 21.0717Z" fill="var(--fill-0, #7631EE)"/>
<path d="M10.5973 21.0717C11.0912 21.0717 11.4917 21.4656 11.4918 21.9515C11.4918 22.4375 11.0913 22.8313 10.5973 22.8313C10.1034 22.8313 9.70283 22.4375 9.70283 21.9515C9.70293 21.4656 10.1034 21.0717 10.5973 21.0717Z" fill="url(#paint2_linear_0_27)"/>
<path d="M3.44235 16.6715C4.10091 16.6715 4.63462 17.197 4.63468 17.8449C4.63468 18.493 4.10094 19.0184 3.44235 19.0184C2.78375 19.0184 2.25002 18.493 2.25002 17.8449C2.25008 17.197 2.78379 16.6715 3.44235 16.6715Z" fill="var(--fill-0, #7631EE)"/>
<path d="M3.44235 16.6715C4.10091 16.6715 4.63462 17.197 4.63468 17.8449C4.63468 18.493 4.10094 19.0184 3.44235 19.0184C2.78375 19.0184 2.25002 18.493 2.25002 17.8449C2.25008 17.197 2.78379 16.6715 3.44235 16.6715Z" fill="url(#paint3_linear_0_27)"/>
<path d="M7.01934 16.6715C7.6779 16.6715 8.21261 17.197 8.21267 17.8449C8.21267 18.493 7.67793 19.0184 7.01934 19.0184C6.36097 19.0181 5.82701 18.4928 5.82701 17.8449C5.82707 17.1971 6.361 16.6717 7.01934 16.6715Z" fill="var(--fill-0, #7631EE)"/>
<path d="M7.01934 16.6715C7.6779 16.6715 8.21261 17.197 8.21267 17.8449C8.21267 18.493 7.67793 19.0184 7.01934 19.0184C6.36097 19.0181 5.82701 18.4928 5.82701 17.8449C5.82707 17.1971 6.361 16.6717 7.01934 16.6715Z" fill="url(#paint4_linear_0_27)"/>
<path d="M10.5973 16.9651C11.0912 16.9651 11.4918 17.359 11.4918 17.8449C11.4918 18.3309 11.0913 18.7248 10.5973 18.7248C10.1034 18.7248 9.70283 18.3309 9.70283 17.8449C9.70289 17.359 10.1034 16.9651 10.5973 16.9651Z" fill="var(--fill-0, #7631EE)"/>
<path d="M10.5973 16.9651C11.0912 16.9651 11.4918 17.359 11.4918 17.8449C11.4918 18.3309 11.0913 18.7248 10.5973 18.7248C10.1034 18.7248 9.70283 18.3309 9.70283 17.8449C9.70289 17.359 10.1034 16.9651 10.5973 16.9651Z" fill="url(#paint5_linear_0_27)"/>
<path d="M3.44235 12.5649C4.10094 12.5649 4.63467 13.0904 4.63468 13.7384C4.63468 14.3864 4.10094 14.9118 3.44235 14.9118C2.78375 14.9118 2.25002 14.3864 2.25002 13.7384C2.25003 13.0904 2.78376 12.5649 3.44235 12.5649Z" fill="var(--fill-0, #7631EE)"/>
<path d="M3.44235 12.5649C4.10094 12.5649 4.63467 13.0904 4.63468 13.7384C4.63468 14.3864 4.10094 14.9118 3.44235 14.9118C2.78375 14.9118 2.25002 14.3864 2.25002 13.7384C2.25003 13.0904 2.78376 12.5649 3.44235 12.5649Z" fill="url(#paint6_linear_0_27)"/>
<path d="M7.01934 12.8585C7.51328 12.8585 7.91382 13.2524 7.91383 13.7384C7.91383 14.2244 7.51328 14.6182 7.01934 14.6182C6.52561 14.6179 6.12584 14.2242 6.12584 13.7384C6.12586 13.2525 6.52562 12.8588 7.01934 12.8585Z" fill="var(--fill-0, #7631EE)"/>
<path d="M7.01934 12.8585C7.51328 12.8585 7.91382 13.2524 7.91383 13.7384C7.91383 14.2244 7.51328 14.6182 7.01934 14.6182C6.52561 14.6179 6.12584 14.2242 6.12584 13.7384C6.12586 13.2525 6.52562 12.8588 7.01934 12.8585Z" fill="url(#paint7_linear_0_27)"/>
<path d="M3.44235 8.75195C4.10094 8.75195 4.63468 9.27739 4.63468 9.9254C4.63449 10.5733 4.10083 11.0989 3.44235 11.0989C2.78387 11.0989 2.25021 10.5733 2.25002 9.9254C2.25002 9.27739 2.78375 8.75195 3.44235 8.75195Z" fill="var(--fill-0, #7631EE)"/>
<path d="M3.44235 8.75195C4.10094 8.75195 4.63468 9.27739 4.63468 9.9254C4.63449 10.5733 4.10083 11.0989 3.44235 11.0989C2.78387 11.0989 2.25021 10.5733 2.25002 9.9254C2.25002 9.27739 2.78375 8.75195 3.44235 8.75195Z" fill="url(#paint8_linear_0_27)"/>
<path d="M7.01934 6.99126C7.51328 6.99126 7.91383 7.3861 7.91383 7.87211C7.91362 8.35795 7.51315 8.75195 7.01934 8.75195C6.52575 8.75169 6.12606 8.35779 6.12584 7.87211C6.12584 7.38626 6.52561 6.99151 7.01934 6.99126Z" fill="var(--fill-0, #7631EE)"/>
<path d="M7.01934 6.99126C7.51328 6.99126 7.91383 7.3861 7.91383 7.87211C7.91362 8.35795 7.51315 8.75195 7.01934 8.75195C6.52575 8.75169 6.12606 8.35779 6.12584 7.87211C6.12584 7.38626 6.52561 6.99151 7.01934 6.99126Z" fill="url(#paint9_linear_0_27)"/>
<path d="M3.44235 4.93797C4.10084 4.93797 4.63451 5.46355 4.63468 6.11142C4.63468 6.75943 4.10094 7.28488 3.44235 7.28488C2.78375 7.28488 2.25002 6.75943 2.25002 6.11142C2.25019 5.46355 2.78386 4.93797 3.44235 4.93797Z" fill="var(--fill-0, #7631EE)"/>
<path d="M3.44235 4.93797C4.10084 4.93797 4.63451 5.46355 4.63468 6.11142C4.63468 6.75943 4.10094 7.28488 3.44235 7.28488C2.78375 7.28488 2.25002 6.75943 2.25002 6.11142C2.25019 5.46355 2.78386 4.93797 3.44235 4.93797Z" fill="url(#paint10_linear_0_27)"/>
<path d="M7.01934 3.47192C7.51328 3.47192 7.91383 3.86574 7.91383 4.35175C7.91382 4.83775 7.51328 5.23159 7.01934 5.23159C6.52562 5.23133 6.12585 4.83759 6.12584 4.35175C6.12584 3.8659 6.52561 3.47218 7.01934 3.47192Z" fill="var(--fill-0, #7631EE)"/>
<path d="M7.01934 3.47192C7.51328 3.47192 7.91383 3.86574 7.91383 4.35175C7.91382 4.83775 7.51328 5.23159 7.01934 5.23159C6.52562 5.23133 6.12585 4.83759 6.12584 4.35175C6.12584 3.8659 6.52561 3.47218 7.01934 3.47192Z" fill="url(#paint11_linear_0_27)"/>
<path d="M3.44235 1.12501C4.10096 1.12501 4.63468 1.65046 4.63468 2.29846C4.63465 2.94644 4.10094 3.47192 3.44235 3.47192C2.78376 3.47192 2.25005 2.94644 2.25002 2.29846C2.25002 1.65046 2.78374 1.12501 3.44235 1.12501Z" fill="var(--fill-0, #7631EE)"/>
<path d="M3.44235 1.12501C4.10096 1.12501 4.63468 1.65046 4.63468 2.29846C4.63465 2.94644 4.10094 3.47192 3.44235 3.47192C2.78376 3.47192 2.25005 2.94644 2.25002 2.29846C2.25002 1.65046 2.78374 1.12501 3.44235 1.12501Z" fill="url(#paint12_linear_0_27)"/>
</g>
<defs>
<filter id="filter0_di_0_27" x="0" y="0" width="13.7418" height="26.5" filterUnits="userSpaceOnUse" color-interpolation-filters="sRGB">
<feFlood flood-opacity="0" result="BackgroundImageFix"/>
<feColorMatrix in="SourceAlpha" type="matrix" values="0 0 0 0 0 0 0 0 0 0 0 0 0 0 0 0 0 0 127 0" result="hardAlpha"/>
<feOffset dy="1.12501"/>
<feGaussianBlur stdDeviation="1.12501"/>
<feComposite in2="hardAlpha" operator="out"/>
<feColorMatrix type="matrix" values="0 0 0 0 0.141176 0 0 0 0 0.027451 0 0 0 0 0.341176 0 0 0 0.6 0"/>
<feBlend mode="normal" in2="BackgroundImageFix" result="effect1_dropShadow_0_27"/>
<feBlend mode="normal" in="SourceGraphic" in2="effect1_dropShadow_0_27" result="shape"/>
<feColorMatrix in="SourceAlpha" type="matrix" values="0 0 0 0 0 0 0 0 0 0 0 0 0 0 0 0 0 0 127 0" result="hardAlpha"/>
<feOffset/>
<feGaussianBlur stdDeviation="0.750007"/>
<feComposite in2="hardAlpha" operator="arithmetic" k2="-1" k3="1"/>
<feColorMatrix type="matrix" values="0 0 0 0 1 0 0 0 0 1 0 0 0 0 1 0 0 0 1 0"/>
<feBlend mode="normal" in2="shape" result="effect2_innerShadow_0_27"/>
</filter>
<linearGradient id="paint0_linear_0_27" x1="6.87092" y1="1.12501" x2="6.87092" y2="23.125" gradientUnits="userSpaceOnUse">
<stop stop-color="white" stop-opacity="0.9"/>
<stop offset="1" stop-color="white" stop-opacity="0.4"/>
</linearGradient>
<linearGradient id="paint1_linear_0_27" x1="6.87092" y1="1.12501" x2="6.87092" y2="23.125" gradientUnits="userSpaceOnUse">
<stop stop-color="white" stop-opacity="0.9"/>
<stop offset="1" stop-color="white" stop-opacity="0.4"/>
</linearGradient>
<linearGradient id="paint2_linear_0_27" x1="6.87092" y1="1.12501" x2="6.87092" y2="23.125" gradientUnits="userSpaceOnUse">
<stop stop-color="white" stop-opacity="0.9"/>
<stop offset="1" stop-color="white" stop-opacity="0.4"/>
</linearGradient>
<linearGradient id="paint3_linear_0_27" x1="6.87092" y1="1.12501" x2="6.87092" y2="23.125" gradientUnits="userSpaceOnUse">
<stop stop-color="white" stop-opacity="0.9"/>
<stop offset="1" stop-color="white" stop-opacity="0.4"/>
</linearGradient>
<linearGradient id="paint4_linear_0_27" x1="6.87092" y1="1.12501" x2="6.87092" y2="23.125" gradientUnits="userSpaceOnUse">
<stop stop-color="white" stop-opacity="0.9"/>
<stop offset="1" stop-color="white" stop-opacity="0.4"/>
</linearGradient>
<linearGradient id="paint5_linear_0_27" x1="6.87092" y1="1.12501" x2="6.87092" y2="23.125" gradientUnits="userSpaceOnUse">
<stop stop-color="white" stop-opacity="0.9"/>
<stop offset="1" stop-color="white" stop-opacity="0.4"/>
</linearGradient>
<linearGradient id="paint6_linear_0_27" x1="6.87092" y1="1.12501" x2="6.87092" y2="23.125" gradientUnits="userSpaceOnUse">
<stop stop-color="white" stop-opacity="0.9"/>
<stop offset="1" stop-color="white" stop-opacity="0.4"/>
</linearGradient>
<linearGradient id="paint7_linear_0_27" x1="6.87092" y1="1.12501" x2="6.87092" y2="23.125" gradientUnits="userSpaceOnUse">
<stop stop-color="white" stop-opacity="0.9"/>
<stop offset="1" stop-color="white" stop-opacity="0.4"/>
</linearGradient>
<linearGradient id="paint8_linear_0_27" x1="6.87092" y1="1.12501" x2="6.87092" y2="23.125" gradientUnits="userSpaceOnUse">
<stop stop-color="white" stop-opacity="0.9"/>
<stop offset="1" stop-color="white" stop-opacity="0.4"/>
</linearGradient>
<linearGradient id="paint9_linear_0_27" x1="6.87092" y1="1.12501" x2="6.87092" y2="23.125" gradientUnits="userSpaceOnUse">
<stop stop-color="white" stop-opacity="0.9"/>
<stop offset="1" stop-color="white" stop-opacity="0.4"/>
</linearGradient>
<linearGradient id="paint10_linear_0_27" x1="6.87092" y1="1.12501" x2="6.87092" y2="23.125" gradientUnits="userSpaceOnUse">
<stop stop-color="white" stop-opacity="0.9"/>
<stop offset="1" stop-color="white" stop-opacity="0.4"/>
</linearGradient>
<linearGradient id="paint11_linear_0_27" x1="6.87092" y1="1.12501" x2="6.87092" y2="23.125" gradientUnits="userSpaceOnUse">
<stop stop-color="white" stop-opacity="0.9"/>
<stop offset="1" stop-color="white" stop-opacity="0.4"/>
</linearGradient>
<linearGradient id="paint12_linear_0_27" x1="6.87092" y1="1.12501" x2="6.87092" y2="23.125" gradientUnits="userSpaceOnUse">
<stop stop-color="white" stop-opacity="0.9"/>
<stop offset="1" stop-color="white" stop-opacity="0.4"/>
</linearGradient>
</defs>
</svg>
