<svg preserveAspectRatio="none" width="100%" height="100%" overflow="visible" style="display: block;" viewBox="0 0 19.9999 22" fill="none" xmlns="http://www.w3.org/2000/svg">
<g id="Union">
<path d="M13.874 19C13.43 20.7252 11.8638 22 9.99998 22C8.13613 22 6.56999 20.7252 6.12595 19H13.874Z" fill="url(#paint0_linear_0_20)"/>
<path d="M9.99998 0C14.6617 4.14516e-05 18.6986 3.47969 19.1953 8.06836L19.9638 13.2305C20.2592 15.2169 18.704 16.9999 16.6758 17H3.32419C1.29586 16.9999 -0.259336 15.217 0.0361084 13.2305L0.804663 8.06836C1.30133 3.47967 5.3382 0 9.99998 0Z" fill="url(#paint1_linear_0_20)"/>
<path d="M12.8252 19.7002C12.2474 20.658 11.1994 21.2998 10 21.2998C8.80063 21.2998 7.7526 20.658 7.1748 19.7002H12.8252ZM10 0.700195C14.3219 0.700249 18.0426 3.9276 18.499 8.14355L18.501 8.15723L18.5029 8.17188L19.2715 13.334C19.5024 14.8892 18.2845 16.2996 16.6758 16.2998H3.32422C1.71547 16.2998 0.497526 14.8893 0.728516 13.334L1.49707 8.17188L1.49902 8.15723L1.50098 8.14355C1.95739 3.92758 5.67809 0.700195 10 0.700195Z" stroke="url(#paint2_linear_0_20)" stroke-opacity="0.6" stroke-width="1.4"/>
</g>
<defs>
<linearGradient id="paint0_linear_0_20" x1="6.72792" y1="-1.5921" x2="21.9178" y2="6.43248" gradientUnits="userSpaceOnUse">
<stop stop-color="#965AFF"/>
<stop offset="1" stop-color="#7631EE"/>
</linearGradient>
<linearGradient id="paint1_linear_0_20" x1="6.72792" y1="-1.5921" x2="21.9178" y2="6.43248" gradientUnits="userSpaceOnUse">
<stop stop-color="#965AFF"/>
<stop offset="1" stop-color="#7631EE"/>
</linearGradient>
<linearGradient id="paint2_linear_0_20" x1="-2.49999" y1="8.41176" x2="8.17209" y2="12.9932" gradientUnits="userSpaceOnUse">
<stop stop-color="white"/>
<stop offset="0.68337" stop-color="white" stop-opacity="0"/>
</linearGradient>
</defs>
</svg>
