<svg preserveAspectRatio="none" width="100%" height="100%" overflow="visible" style="display: block;" viewBox="0 0 19.0996 19.0997" fill="none" xmlns="http://www.w3.org/2000/svg">
<foreignObject x="-3.75003" y="-4.87504" width="26.5997" height="26.5997"><div xmlns="http://www.w3.org/1999/xhtml" style="backdrop-filter:blur(3px);clip-path:url(#bgblur_0_0_25_clip_path);height:100%;width:100%"></div></foreignObject><g id="Vector (Stroke)" filter="url(#filter0_di_0_25)" data-figma-bg-blur-radius="6.00005">
<path d="M8.93944 7.77442C8.93944 7.3326 9.29741 6.97364 9.73924 6.97364C10.181 6.97372 10.539 7.33264 10.539 7.77442C10.539 9.88645 10.1694 11.9193 9.48729 13.8193C9.31177 14.3082 9.11618 14.7887 8.90037 15.2588C8.71603 15.6603 8.24038 15.8357 7.83885 15.6514C7.43758 15.4669 7.26198 14.9922 7.44627 14.5908C7.64311 14.1621 7.82157 13.7245 7.98143 13.2793C8.60266 11.549 8.93938 9.69847 8.93944 7.77442ZM11.7353 11.459C11.8209 11.0256 12.2414 10.7437 12.6748 10.8291C13.1083 10.9146 13.3902 11.3351 13.3047 11.7686C13.1957 12.3206 13.0645 12.8656 12.9121 13.4024C12.7442 13.9939 12.5504 14.5757 12.332 15.1465C12.1741 15.559 11.7124 15.7652 11.2998 15.6074C10.8873 15.4496 10.6803 14.9878 10.8379 14.5752C11.0395 14.0482 11.2181 13.5106 11.373 12.9649C11.5135 12.47 11.6349 11.9679 11.7353 11.459ZM4.97069 12.3975C5.12137 11.9821 5.58074 11.7673 5.99608 11.918C6.4114 12.0687 6.62623 12.528 6.47557 12.9434C6.34751 13.2964 6.20667 13.6439 6.05369 13.9854C5.87308 14.3885 5.39927 14.5692 4.99608 14.3887C4.59286 14.2081 4.41213 13.7343 4.59276 13.3311C4.72993 13.0249 4.85602 12.7135 4.97069 12.3975ZM15.25 7.77442C15.25 5.04214 12.841 2.72485 9.73924 2.72462C8.86332 2.72462 8.03802 2.91179 7.30662 3.2422C6.90406 3.42405 6.43001 3.24525 6.24803 2.84278C6.0662 2.44027 6.24509 1.96622 6.64744 1.78419C7.58431 1.36096 8.63446 1.12501 9.73924 1.12501C13.608 1.12524 16.8496 4.04617 16.8496 7.77442C16.8496 9.34038 16.6942 10.8733 16.3965 12.3604C16.3097 12.7935 15.8882 13.0749 15.4551 12.9883C15.022 12.9016 14.7407 12.4799 14.8271 12.0469C15.1043 10.6624 15.25 9.23417 15.25 7.77442ZM2.62791 7.77442C2.62791 6.31354 3.13229 4.96531 3.9785 3.87403C4.24915 3.525 4.75143 3.46103 5.10057 3.73146C5.4497 4.00219 5.51385 4.50535 5.24315 4.8545C4.60058 5.68314 4.22752 6.6905 4.22752 7.77442C4.22748 8.85721 4.08736 9.91044 3.82322 10.919C3.71128 11.3464 3.27407 11.6022 2.84666 11.4902C2.41951 11.3781 2.16444 10.9409 2.27635 10.5137C2.50623 9.63592 2.62787 8.71869 2.62791 7.77442ZM12.0947 7.77442C12.0947 6.65733 11.0983 5.64965 9.73924 5.64942C8.38001 5.64942 7.38377 6.65721 7.38377 7.77442C7.38375 8.69425 7.30066 9.59681 7.14158 10.4756C7.06286 10.9103 6.64659 11.1987 6.2119 11.1201C5.77713 11.0414 5.48866 10.6252 5.56737 10.1904C5.70951 9.40516 5.78316 8.59804 5.78319 7.77442C5.78319 5.66123 7.61303 4.04982 9.73924 4.04982C11.8653 4.05004 13.6943 5.66139 13.6943 7.77442C13.6943 8.24303 13.6785 8.70836 13.6474 9.16993C13.6177 9.61063 13.2365 9.94355 12.7959 9.91407C12.3551 9.88438 12.0212 9.50328 12.0508 9.06251C12.0794 8.63676 12.0947 8.20718 12.0947 7.77442Z" fill="url(#paint0_linear_0_25)" shape-rendering="crispEdges"/>
</g>
<defs>
<filter id="filter0_di_0_25" x="-3.75003" y="-4.87504" width="26.5997" height="26.5997" filterUnits="userSpaceOnUse" color-interpolation-filters="sRGB">
<feFlood flood-opacity="0" result="BackgroundImageFix"/>
<feColorMatrix in="SourceAlpha" type="matrix" values="0 0 0 0 0 0 0 0 0 0 0 0 0 0 0 0 0 0 127 0" result="hardAlpha"/>
<feOffset dy="1.12501"/>
<feGaussianBlur stdDeviation="1.12501"/>
<feComposite in2="hardAlpha" operator="out"/>
<feColorMatrix type="matrix" values="0 0 0 0 0.141176 0 0 0 0 0.027451 0 0 0 0 0.341176 0 0 0 0.6 0"/>
<feBlend mode="normal" in2="BackgroundImageFix" result="effect1_dropShadow_0_25"/>
<feBlend mode="normal" in="SourceGraphic" in2="effect1_dropShadow_0_25" result="shape"/>
<feColorMatrix in="SourceAlpha" type="matrix" values="0 0 0 0 0 0 0 0 0 0 0 0 0 0 0 0 0 0 127 0" result="hardAlpha"/>
<feOffset/>
<feGaussianBlur stdDeviation="0.750007"/>
<feComposite in2="hardAlpha" operator="arithmetic" k2="-1" k3="1"/>
<feColorMatrix type="matrix" values="0 0 0 0 1 0 0 0 0 1 0 0 0 0 1 0 0 0 1 0"/>
<feBlend mode="normal" in2="shape" result="effect2_innerShadow_0_25"/>
</filter>
<clipPath id="bgblur_0_0_25_clip_path" transform="translate(3.75003 4.87504)"><path d="M8.93944 7.77442C8.93944 7.3326 9.29741 6.97364 9.73924 6.97364C10.181 6.97372 10.539 7.33264 10.539 7.77442C10.539 9.88645 10.1694 11.9193 9.48729 13.8193C9.31177 14.3082 9.11618 14.7887 8.90037 15.2588C8.71603 15.6603 8.24038 15.8357 7.83885 15.6514C7.43758 15.4669 7.26198 14.9922 7.44627 14.5908C7.64311 14.1621 7.82157 13.7245 7.98143 13.2793C8.60266 11.549 8.93938 9.69847 8.93944 7.77442ZM11.7353 11.459C11.8209 11.0256 12.2414 10.7437 12.6748 10.8291C13.1083 10.9146 13.3902 11.3351 13.3047 11.7686C13.1957 12.3206 13.0645 12.8656 12.9121 13.4024C12.7442 13.9939 12.5504 14.5757 12.332 15.1465C12.1741 15.559 11.7124 15.7652 11.2998 15.6074C10.8873 15.4496 10.6803 14.9878 10.8379 14.5752C11.0395 14.0482 11.2181 13.5106 11.373 12.9649C11.5135 12.47 11.6349 11.9679 11.7353 11.459ZM4.97069 12.3975C5.12137 11.9821 5.58074 11.7673 5.99608 11.918C6.4114 12.0687 6.62623 12.528 6.47557 12.9434C6.34751 13.2964 6.20667 13.6439 6.05369 13.9854C5.87308 14.3885 5.39927 14.5692 4.99608 14.3887C4.59286 14.2081 4.41213 13.7343 4.59276 13.3311C4.72993 13.0249 4.85602 12.7135 4.97069 12.3975ZM15.25 7.77442C15.25 5.04214 12.841 2.72485 9.73924 2.72462C8.86332 2.72462 8.03802 2.91179 7.30662 3.2422C6.90406 3.42405 6.43001 3.24525 6.24803 2.84278C6.0662 2.44027 6.24509 1.96622 6.64744 1.78419C7.58431 1.36096 8.63446 1.12501 9.73924 1.12501C13.608 1.12524 16.8496 4.04617 16.8496 7.77442C16.8496 9.34038 16.6942 10.8733 16.3965 12.3604C16.3097 12.7935 15.8882 13.0749 15.4551 12.9883C15.022 12.9016 14.7407 12.4799 14.8271 12.0469C15.1043 10.6624 15.25 9.23417 15.25 7.77442ZM2.62791 7.77442C2.62791 6.31354 3.13229 4.96531 3.9785 3.87403C4.24915 3.525 4.75143 3.46103 5.10057 3.73146C5.4497 4.00219 5.51385 4.50535 5.24315 4.8545C4.60058 5.68314 4.22752 6.6905 4.22752 7.77442C4.22748 8.85721 4.08736 9.91044 3.82322 10.919C3.71128 11.3464 3.27407 11.6022 2.84666 11.4902C2.41951 11.3781 2.16444 10.9409 2.27635 10.5137C2.50623 9.63592 2.62787 8.71869 2.62791 7.77442ZM12.0947 7.77442C12.0947 6.65733 11.0983 5.64965 9.73924 5.64942C8.38001 5.64942 7.38377 6.65721 7.38377 7.77442C7.38375 8.69425 7.30066 9.59681 7.14158 10.4756C7.06286 10.9103 6.64659 11.1987 6.2119 11.1201C5.77713 11.0414 5.48866 10.6252 5.56737 10.1904C5.70951 9.40516 5.78316 8.59804 5.78319 7.77442C5.78319 5.66123 7.61303 4.04982 9.73924 4.04982C11.8653 4.05004 13.6943 5.66139 13.6943 7.77442C13.6943 8.24303 13.6785 8.70836 13.6474 9.16993C13.6177 9.61063 13.2365 9.94355 12.7959 9.91407C12.3551 9.88438 12.0212 9.50328 12.0508 9.06251C12.0794 8.63676 12.0947 8.20718 12.0947 7.77442Z"/>
</clipPath><linearGradient id="paint0_linear_0_25" x1="9.54981" y1="1.12501" x2="9.54981" y2="15.7247" gradientUnits="userSpaceOnUse">
<stop stop-color="white" stop-opacity="0.9"/>
<stop offset="1" stop-color="white" stop-opacity="0.4"/>
</linearGradient>
</defs>
</svg>
