<svg preserveAspectRatio="none" width="100%" height="100%" overflow="visible" style="display: block;" viewBox="0 0 12.1667 12.1667" fill="none" xmlns="http://www.w3.org/2000/svg">
<path id="Vector" d="M3.41667 3.41667V2.88333C3.41667 2.1366 3.41667 1.76323 3.56199 1.47801C3.68982 1.22713 3.8938 1.02315 4.14468 0.895328C4.4299 0.750002 4.80327 0.750002 5.55 0.750002H9.28333C10.0301 0.750002 10.4035 0.750002 10.6887 0.895328C10.9395 1.02315 11.1435 1.22713 11.2713 1.47801C11.4167 1.76323 11.4167 2.1366 11.4167 2.88333V6.61667C11.4167 7.3634 11.4167 7.7368 11.2713 8.022C11.1435 8.27287 10.9395 8.47687 10.6887 8.60467C10.4035 8.75 10.0301 8.75 9.28333 8.75H8.75M8.75 5.55V9.28333C8.75 10.0301 8.75 10.4035 8.60467 10.6887C8.47687 10.9395 8.27287 11.1435 8.022 11.2713C7.7368 11.4167 7.3634 11.4167 6.61667 11.4167H2.88333C2.1366 11.4167 1.76323 11.4167 1.47801 11.2713C1.22713 11.1435 1.02315 10.9395 0.895328 10.6887C0.750002 10.4035 0.750002 10.0301 0.750002 9.28333V5.55C0.750002 4.80327 0.750002 4.4299 0.895328 4.14468C1.02315 3.8938 1.22713 3.68982 1.47801 3.56199C1.76323 3.41667 2.1366 3.41667 2.88333 3.41667H6.61667C7.3634 3.41667 7.7368 3.41667 8.022 3.56199C8.27287 3.68982 8.47687 3.8938 8.60467 4.14468C8.75 4.4299 8.75 4.80327 8.75 5.55Z" stroke="var(--stroke-0, #FF9500)" stroke-width="1.5" stroke-linecap="round"/>
</svg>
