<svg preserveAspectRatio="none" width="100%" height="100%" overflow="visible" style="display: block;" viewBox="0 0 274 274.002" fill="none" xmlns="http://www.w3.org/2000/svg">
<g id="Group">
<path id="Vector" d="M10.96 0.000172702H2.28882e-05V10.9602H10.96V0.000172702Z" fill="var(--fill-0, #414965)"/>
<path id="Vector_2" d="M10.96 10.9585H0V21.9185H10.96V10.9585Z" fill="var(--fill-0, #414965)"/>
<path id="Vector_3" d="M10.96 21.922H0V32.882H10.96V21.922Z" fill="var(--fill-0, #414965)"/>
<path id="Vector_4" d="M10.96 32.8781H0V43.8381H10.96V32.8781Z" fill="var(--fill-0, #414965)"/>
<path id="Vector_5" d="M10.96 43.839H0V54.799H10.96V43.839Z" fill="var(--fill-0, #414965)"/>
<path id="Vector_6" d="M10.96 54.8H0V65.76H10.96V54.8Z" fill="var(--fill-0, #414965)"/>
<path id="Vector_7" d="M10.96 65.7586H0V76.7186H10.96V65.7586Z" fill="var(--fill-0, #414965)"/>
<path id="Vector_8" d="M10.96 87.6781H0V98.6381H10.96V87.6781Z" fill="var(--fill-0, #414965)"/>
<path id="Vector_9" d="M10.96 109.6H0V120.56H10.96V109.6Z" fill="var(--fill-0, #414965)"/>
<path id="Vector_10" d="M10.96 120.559H0V131.519H10.96V120.559Z" fill="var(--fill-0, #414965)"/>
<path id="Vector_11" d="M10.96 131.522H0V142.482H10.96V131.522Z" fill="var(--fill-0, #414965)"/>
<path id="Vector_12" d="M10.96 197.278H0V208.238H10.96V197.278Z" fill="var(--fill-0, #414965)"/>
<path id="Vector_13" d="M10.96 208.242H0V219.202H10.96V208.242Z" fill="var(--fill-0, #414965)"/>
<path id="Vector_14" d="M10.96 219.2H0V230.16H10.96V219.2Z" fill="var(--fill-0, #414965)"/>
<path id="Vector_15" d="M10.96 230.161H0V241.121H10.96V230.161Z" fill="var(--fill-0, #414965)"/>
<path id="Vector_16" d="M10.96 241.122H0V252.082H10.96V241.122Z" fill="var(--fill-0, #414965)"/>
<path id="Vector_17" d="M10.96 252.078H0V263.038H10.96V252.078Z" fill="var(--fill-0, #414965)"/>
<path id="Vector_18" d="M10.96 263.042H0V274.002H10.96V263.042Z" fill="var(--fill-0, #414965)"/>
<path id="Vector_19" d="M21.9198 0H10.9598V10.96H21.9198V0Z" fill="var(--fill-0, #414965)"/>
<path id="Vector_20" d="M21.9198 65.7586H10.9598V76.7186H21.9198V65.7586Z" fill="var(--fill-0, #414965)"/>
<path id="Vector_21" d="M21.9198 87.6781H10.9598V98.6381H21.9198V87.6781Z" fill="var(--fill-0, #414965)"/>
<path id="Vector_22" d="M21.9198 98.6415H10.9598V109.601H21.9198V98.6415Z" fill="var(--fill-0, #414965)"/>
<path id="Vector_23" d="M21.9198 131.522H10.9598V142.482H21.9198V131.522Z" fill="var(--fill-0, #414965)"/>
<path id="Vector_24" d="M21.9198 153.441H10.9598V164.401H21.9198V153.441Z" fill="var(--fill-0, #414965)"/>
<path id="Vector_25" d="M21.9198 164.4H10.9598V175.36H21.9198V164.4Z" fill="var(--fill-0, #414965)"/>
<path id="Vector_26" d="M21.9198 175.361H10.9598V186.321H21.9198V175.361Z" fill="var(--fill-0, #414965)"/>
<path id="Vector_27" d="M21.9198 197.278H10.9598V208.238H21.9198V197.278Z" fill="var(--fill-0, #414965)"/>
<path id="Vector_28" d="M21.9198 263.042H10.9598V274.002H21.9198V263.042Z" fill="var(--fill-0, #414965)"/>
<path id="Vector_29" d="M32.8798 0H21.9198V10.96H32.8798V0Z" fill="var(--fill-0, #414965)"/>
<path id="Vector_30" d="M32.8798 21.922H21.9198V32.882H32.8798V21.922Z" fill="var(--fill-0, #414965)"/>
<path id="Vector_31" d="M32.8798 32.8781H21.9198V43.8381H32.8798V32.8781Z" fill="var(--fill-0, #414965)"/>
<path id="Vector_32" d="M32.8798 43.839H21.9198V54.799H32.8798V43.839Z" fill="var(--fill-0, #414965)"/>
<path id="Vector_33" d="M32.8798 65.7586H21.9198V76.7186H32.8798V65.7586Z" fill="var(--fill-0, #414965)"/>
<path id="Vector_34" d="M32.8798 98.6415H21.9198V109.601H32.8798V98.6415Z" fill="var(--fill-0, #414965)"/>
<path id="Vector_35" d="M32.8798 142.478H21.9198V153.438H32.8798V142.478Z" fill="var(--fill-0, #414965)"/>
<path id="Vector_36" d="M32.8798 175.361H21.9198V186.321H32.8798V175.361Z" fill="var(--fill-0, #414965)"/>
<path id="Vector_37" d="M32.8798 197.278H21.9198V208.238H32.8798V197.278Z" fill="var(--fill-0, #414965)"/>
<path id="Vector_38" d="M32.8798 219.2H21.9198V230.16H32.8798V219.2Z" fill="var(--fill-0, #414965)"/>
<path id="Vector_39" d="M32.8798 230.161H21.9198V241.121H32.8798V230.161Z" fill="var(--fill-0, #414965)"/>
<path id="Vector_40" d="M32.8798 241.122H21.9198V252.082H32.8798V241.122Z" fill="var(--fill-0, #414965)"/>
<path id="Vector_41" d="M32.8798 263.042H21.9198V274.002H32.8798V263.042Z" fill="var(--fill-0, #414965)"/>
<path id="Vector_42" d="M43.8399 0H32.8799V10.96H43.8399V0Z" fill="var(--fill-0, #414965)"/>
<path id="Vector_43" d="M43.8399 21.922H32.8799V32.882H43.8399V21.922Z" fill="var(--fill-0, #414965)"/>
<path id="Vector_44" d="M43.8399 32.8781H32.8799V43.8381H43.8399V32.8781Z" fill="var(--fill-0, #414965)"/>
<path id="Vector_45" d="M43.8399 43.839H32.8799V54.799H43.8399V43.839Z" fill="var(--fill-0, #414965)"/>
<path id="Vector_46" d="M43.8399 65.7586H32.8799V76.7186H43.8399V65.7586Z" fill="var(--fill-0, #414965)"/>
<path id="Vector_47" d="M43.8399 109.6H32.8799V120.56H43.8399V109.6Z" fill="var(--fill-0, #414965)"/>
<path id="Vector_48" d="M43.8399 142.478H32.8799V153.438H43.8399V142.478Z" fill="var(--fill-0, #414965)"/>
<path id="Vector_49" d="M43.8399 164.4H32.8799V175.36H43.8399V164.4Z" fill="var(--fill-0, #414965)"/>
<path id="Vector_50" d="M43.8399 197.278H32.8799V208.238H43.8399V197.278Z" fill="var(--fill-0, #414965)"/>
<path id="Vector_51" d="M43.8399 219.2H32.8799V230.16H43.8399V219.2Z" fill="var(--fill-0, #414965)"/>
<path id="Vector_52" d="M43.8399 230.161H32.8799V241.121H43.8399V230.161Z" fill="var(--fill-0, #414965)"/>
<path id="Vector_53" d="M43.8399 241.122H32.8799V252.082H43.8399V241.122Z" fill="var(--fill-0, #414965)"/>
<path id="Vector_54" d="M43.8399 263.042H32.8799V274.002H43.8399V263.042Z" fill="var(--fill-0, #414965)"/>
<path id="Vector_55" d="M54.8003 0H43.8403V10.96H54.8003V0Z" fill="var(--fill-0, #414965)"/>
<path id="Vector_56" d="M54.8003 21.922H43.8403V32.882H54.8003V21.922Z" fill="var(--fill-0, #414965)"/>
<path id="Vector_57" d="M54.8003 32.8781H43.8403V43.8381H54.8003V32.8781Z" fill="var(--fill-0, #414965)"/>
<path id="Vector_58" d="M54.8003 43.839H43.8403V54.799H54.8003V43.839Z" fill="var(--fill-0, #414965)"/>
<path id="Vector_59" d="M54.8003 65.7586H43.8403V76.7186H54.8003V65.7586Z" fill="var(--fill-0, #414965)"/>
<path id="Vector_60" d="M54.8003 98.6415H43.8403V109.601H54.8003V98.6415Z" fill="var(--fill-0, #414965)"/>
<path id="Vector_61" d="M54.8003 131.522H43.8403V142.482H54.8003V131.522Z" fill="var(--fill-0, #414965)"/>
<path id="Vector_62" d="M54.8003 142.478H43.8403V153.438H54.8003V142.478Z" fill="var(--fill-0, #414965)"/>
<path id="Vector_63" d="M54.8003 153.441H43.8403V164.401H54.8003V153.441Z" fill="var(--fill-0, #414965)"/>
<path id="Vector_64" d="M54.8003 164.4H43.8403V175.36H54.8003V164.4Z" fill="var(--fill-0, #414965)"/>
<path id="Vector_65" d="M54.8003 175.361H43.8403V186.321H54.8003V175.361Z" fill="var(--fill-0, #414965)"/>
<path id="Vector_66" d="M54.8003 197.278H43.8403V208.238H54.8003V197.278Z" fill="var(--fill-0, #414965)"/>
<path id="Vector_67" d="M54.8003 219.2H43.8403V230.16H54.8003V219.2Z" fill="var(--fill-0, #414965)"/>
<path id="Vector_68" d="M54.8003 230.161H43.8403V241.121H54.8003V230.161Z" fill="var(--fill-0, #414965)"/>
<path id="Vector_69" d="M54.8003 241.122H43.8403V252.082H54.8003V241.122Z" fill="var(--fill-0, #414965)"/>
<path id="Vector_70" d="M54.8003 263.042H43.8403V274.002H54.8003V263.042Z" fill="var(--fill-0, #414965)"/>
<path id="Vector_71" d="M65.76 0H54.8V10.96H65.76V0Z" fill="var(--fill-0, #414965)"/>
<path id="Vector_72" d="M65.76 65.7586H54.8V76.7186H65.76V65.7586Z" fill="var(--fill-0, #414965)"/>
<path id="Vector_73" d="M65.76 87.6781H54.8V98.6381H65.76V87.6781Z" fill="var(--fill-0, #414965)"/>
<path id="Vector_74" d="M65.76 109.6H54.8V120.56H65.76V109.6Z" fill="var(--fill-0, #414965)"/>
<path id="Vector_75" d="M65.76 120.559H54.8V131.519H65.76V120.559Z" fill="var(--fill-0, #414965)"/>
<path id="Vector_76" d="M65.76 142.478H54.8V153.438H65.76V142.478Z" fill="var(--fill-0, #414965)"/>
<path id="Vector_77" d="M65.76 153.441H54.8V164.401H65.76V153.441Z" fill="var(--fill-0, #414965)"/>
<path id="Vector_78" d="M65.76 175.361H54.8V186.321H65.76V175.361Z" fill="var(--fill-0, #414965)"/>
<path id="Vector_79" d="M65.76 197.278H54.8V208.238H65.76V197.278Z" fill="var(--fill-0, #414965)"/>
<path id="Vector_80" d="M65.76 263.042H54.8V274.002H65.76V263.042Z" fill="var(--fill-0, #414965)"/>
<path id="Vector_81" d="M76.7198 0H65.7598V10.96H76.7198V0Z" fill="var(--fill-0, #414965)"/>
<path id="Vector_82" d="M76.7198 10.9585H65.7598V21.9185H76.7198V10.9585Z" fill="var(--fill-0, #414965)"/>
<path id="Vector_83" d="M76.7198 21.922H65.7598V32.882H76.7198V21.922Z" fill="var(--fill-0, #414965)"/>
<path id="Vector_84" d="M76.7198 32.8781H65.7598V43.8381H76.7198V32.8781Z" fill="var(--fill-0, #414965)"/>
<path id="Vector_85" d="M76.7198 43.839H65.7598V54.799H76.7198V43.839Z" fill="var(--fill-0, #414965)"/>
<path id="Vector_86" d="M76.7198 54.8H65.7598V65.76H76.7198V54.8Z" fill="var(--fill-0, #414965)"/>
<path id="Vector_87" d="M76.7198 65.7586H65.7598V76.7186H76.7198V65.7586Z" fill="var(--fill-0, #414965)"/>
<path id="Vector_88" d="M76.7198 87.6781H65.7598V98.6381H76.7198V87.6781Z" fill="var(--fill-0, #414965)"/>
<path id="Vector_89" d="M76.7198 109.6H65.7598V120.56H76.7198V109.6Z" fill="var(--fill-0, #414965)"/>
<path id="Vector_90" d="M76.7198 131.522H65.7598V142.482H76.7198V131.522Z" fill="var(--fill-0, #414965)"/>
<path id="Vector_91" d="M76.7198 153.441H65.7598V164.401H76.7198V153.441Z" fill="var(--fill-0, #414965)"/>
<path id="Vector_92" d="M76.7198 175.361H65.7598V186.321H76.7198V175.361Z" fill="var(--fill-0, #414965)"/>
<path id="Vector_93" d="M76.7198 197.278H65.7598V208.238H76.7198V197.278Z" fill="var(--fill-0, #414965)"/>
<path id="Vector_94" d="M76.7198 208.242H65.7598V219.202H76.7198V208.242Z" fill="var(--fill-0, #414965)"/>
<path id="Vector_95" d="M76.7198 219.2H65.7598V230.16H76.7198V219.2Z" fill="var(--fill-0, #414965)"/>
<path id="Vector_96" d="M76.7198 230.161H65.7598V241.121H76.7198V230.161Z" fill="var(--fill-0, #414965)"/>
<path id="Vector_97" d="M76.7198 241.122H65.7598V252.082H76.7198V241.122Z" fill="var(--fill-0, #414965)"/>
<path id="Vector_98" d="M76.7198 252.078H65.7598V263.038H76.7198V252.078Z" fill="var(--fill-0, #414965)"/>
<path id="Vector_99" d="M76.7198 263.042H65.7598V274.002H76.7198V263.042Z" fill="var(--fill-0, #414965)"/>
<path id="Vector_100" d="M87.6798 87.6781H76.7198V98.6381H87.6798V87.6781Z" fill="var(--fill-0, #414965)"/>
<path id="Vector_101" d="M87.6798 109.6H76.7198V120.56H87.6798V109.6Z" fill="var(--fill-0, #414965)"/>
<path id="Vector_102" d="M87.6798 120.559H76.7198V131.519H87.6798V120.559Z" fill="var(--fill-0, #414965)"/>
<path id="Vector_103" d="M87.6798 131.522H76.7198V142.482H87.6798V131.522Z" fill="var(--fill-0, #414965)"/>
<path id="Vector_104" d="M87.6798 164.4H76.7198V175.36H87.6798V164.4Z" fill="var(--fill-0, #414965)"/>
<path id="Vector_105" d="M87.6798 175.361H76.7198V186.321H87.6798V175.361Z" fill="var(--fill-0, #414965)"/>
<path id="Vector_106" d="M98.6399 32.8781H87.6799V43.8381H98.6399V32.8781Z" fill="var(--fill-0, #414965)"/>
<path id="Vector_107" d="M98.6399 43.839H87.6799V54.799H98.6399V43.839Z" fill="var(--fill-0, #414965)"/>
<path id="Vector_108" d="M98.6399 65.7586H87.6799V76.7186H98.6399V65.7586Z" fill="var(--fill-0, #414965)"/>
<path id="Vector_109" d="M98.6399 109.6H87.6799V120.56H98.6399V109.6Z" fill="var(--fill-0, #414965)"/>
<path id="Vector_110" d="M98.6399 164.4H87.6799V175.36H98.6399V164.4Z" fill="var(--fill-0, #414965)"/>
<path id="Vector_111" d="M98.6399 186.322H87.6799V197.282H98.6399V186.322Z" fill="var(--fill-0, #414965)"/>
<path id="Vector_112" d="M98.6399 197.278H87.6799V208.238H98.6399V197.278Z" fill="var(--fill-0, #414965)"/>
<path id="Vector_113" d="M98.6399 208.242H87.6799V219.202H98.6399V208.242Z" fill="var(--fill-0, #414965)"/>
<path id="Vector_114" d="M98.6399 252.078H87.6799V263.038H98.6399V252.078Z" fill="var(--fill-0, #414965)"/>
<path id="Vector_115" d="M98.6399 263.042H87.6799V274.002H98.6399V263.042Z" fill="var(--fill-0, #414965)"/>
<path id="Vector_116" d="M109.6 10.9585H98.6403V21.9185H109.6V10.9585Z" fill="var(--fill-0, #414965)"/>
<path id="Vector_117" d="M109.6 43.839H98.6403V54.799H109.6V43.839Z" fill="var(--fill-0, #414965)"/>
<path id="Vector_118" d="M109.6 87.6781H98.6403V98.6381H109.6V87.6781Z" fill="var(--fill-0, #414965)"/>
<path id="Vector_119" d="M109.6 98.6415H98.6403V109.601H109.6V98.6415Z" fill="var(--fill-0, #414965)"/>
<path id="Vector_120" d="M109.6 120.559H98.6403V131.519H109.6V120.559Z" fill="var(--fill-0, #414965)"/>
<path id="Vector_121" d="M109.6 131.522H98.6403V142.482H109.6V131.522Z" fill="var(--fill-0, #414965)"/>
<path id="Vector_122" d="M109.6 142.478H98.6403V153.438H109.6V142.478Z" fill="var(--fill-0, #414965)"/>
<path id="Vector_123" d="M109.6 153.441H98.6403V164.401H109.6V153.441Z" fill="var(--fill-0, #414965)"/>
<path id="Vector_124" d="M109.6 164.4H98.6403V175.36H109.6V164.4Z" fill="var(--fill-0, #414965)"/>
<path id="Vector_125" d="M109.6 197.278H98.6403V208.238H109.6V197.278Z" fill="var(--fill-0, #414965)"/>
<path id="Vector_126" d="M120.56 0H109.6V10.96H120.56V0Z" fill="var(--fill-0, #414965)"/>
<path id="Vector_127" d="M120.56 10.9585H109.6V21.9185H120.56V10.9585Z" fill="var(--fill-0, #414965)"/>
<path id="Vector_128" d="M120.56 65.7586H109.6V76.7186H120.56V65.7586Z" fill="var(--fill-0, #414965)"/>
<path id="Vector_129" d="M120.56 76.722H109.6V87.682H120.56V76.722Z" fill="var(--fill-0, #414965)"/>
<path id="Vector_130" d="M120.56 109.6H109.6V120.56H120.56V109.6Z" fill="var(--fill-0, #414965)"/>
<path id="Vector_131" d="M120.56 153.441H109.6V164.401H120.56V153.441Z" fill="var(--fill-0, #414965)"/>
<path id="Vector_132" d="M120.56 175.361H109.6V186.321H120.56V175.361Z" fill="var(--fill-0, #414965)"/>
<path id="Vector_133" d="M120.56 186.322H109.6V197.282H120.56V186.322Z" fill="var(--fill-0, #414965)"/>
<path id="Vector_134" d="M120.56 241.122H109.6V252.082H120.56V241.122Z" fill="var(--fill-0, #414965)"/>
<path id="Vector_135" d="M120.56 252.078H109.6V263.038H120.56V252.078Z" fill="var(--fill-0, #414965)"/>
<path id="Vector_136" d="M120.56 263.042H109.6V274.002H120.56V263.042Z" fill="var(--fill-0, #414965)"/>
<path id="Vector_137" d="M131.52 0H120.56V10.96H131.52V0Z" fill="var(--fill-0, #414965)"/>
<path id="Vector_138" d="M131.52 21.922H120.56V32.882H131.52V21.922Z" fill="var(--fill-0, #414965)"/>
<path id="Vector_139" d="M131.52 32.8781H120.56V43.8381H131.52V32.8781Z" fill="var(--fill-0, #414965)"/>
<path id="Vector_140" d="M131.52 43.839H120.56V54.799H131.52V43.839Z" fill="var(--fill-0, #414965)"/>
<path id="Vector_141" d="M131.52 87.6781H120.56V98.6381H131.52V87.6781Z" fill="var(--fill-0, #414965)"/>
<path id="Vector_142" d="M131.52 98.6415H120.56V109.601H131.52V98.6415Z" fill="var(--fill-0, #414965)"/>
<path id="Vector_143" d="M131.52 120.559H120.56V131.519H131.52V120.559Z" fill="var(--fill-0, #414965)"/>
<path id="Vector_144" d="M131.52 142.478H120.56V153.438H131.52V142.478Z" fill="var(--fill-0, #414965)"/>
<path id="Vector_145" d="M131.52 164.4H120.56V175.36H131.52V164.4Z" fill="var(--fill-0, #414965)"/>
<path id="Vector_146" d="M131.52 186.322H120.56V197.282H131.52V186.322Z" fill="var(--fill-0, #414965)"/>
<path id="Vector_147" d="M131.52 197.278H120.56V208.238H131.52V197.278Z" fill="var(--fill-0, #414965)"/>
<path id="Vector_148" d="M131.52 208.242H120.56V219.202H131.52V208.242Z" fill="var(--fill-0, #414965)"/>
<path id="Vector_149" d="M131.52 219.2H120.56V230.16H131.52V219.2Z" fill="var(--fill-0, #414965)"/>
<path id="Vector_150" d="M131.52 230.161H120.56V241.121H131.52V230.161Z" fill="var(--fill-0, #414965)"/>
<path id="Vector_151" d="M131.52 252.078H120.56V263.038H131.52V252.078Z" fill="var(--fill-0, #414965)"/>
<path id="Vector_152" d="M142.48 0H131.52V10.96H142.48V0Z" fill="var(--fill-0, #414965)"/>
<path id="Vector_153" d="M142.48 32.8781H131.52V43.8381H142.48V32.8781Z" fill="var(--fill-0, #414965)"/>
<path id="Vector_154" d="M142.48 43.839H131.52V54.799H142.48V43.839Z" fill="var(--fill-0, #414965)"/>
<path id="Vector_155" d="M142.48 65.7586H131.52V76.7186H142.48V65.7586Z" fill="var(--fill-0, #414965)"/>
<path id="Vector_156" d="M142.48 87.6781H131.52V98.6381H142.48V87.6781Z" fill="var(--fill-0, #414965)"/>
<path id="Vector_157" d="M142.48 131.522H131.52V142.482H142.48V131.522Z" fill="var(--fill-0, #414965)"/>
<path id="Vector_158" d="M142.48 164.4H131.52V175.36H142.48V164.4Z" fill="var(--fill-0, #414965)"/>
<path id="Vector_159" d="M142.48 175.361H131.52V186.321H142.48V175.361Z" fill="var(--fill-0, #414965)"/>
<path id="Vector_160" d="M142.48 197.278H131.52V208.238H142.48V197.278Z" fill="var(--fill-0, #414965)"/>
<path id="Vector_161" d="M142.48 219.2H131.52V230.16H142.48V219.2Z" fill="var(--fill-0, #414965)"/>
<path id="Vector_162" d="M142.48 230.161H131.52V241.121H142.48V230.161Z" fill="var(--fill-0, #414965)"/>
<path id="Vector_163" d="M142.48 263.042H131.52V274.002H142.48V263.042Z" fill="var(--fill-0, #414965)"/>
<path id="Vector_164" d="M153.44 0H142.48V10.96H153.44V0Z" fill="var(--fill-0, #414965)"/>
<path id="Vector_165" d="M153.44 32.8781H142.48V43.8381H153.44V32.8781Z" fill="var(--fill-0, #414965)"/>
<path id="Vector_166" d="M153.44 54.8H142.48V65.76H153.44V54.8Z" fill="var(--fill-0, #414965)"/>
<path id="Vector_167" d="M153.44 87.6781H142.48V98.6381H153.44V87.6781Z" fill="var(--fill-0, #414965)"/>
<path id="Vector_168" d="M153.44 109.6H142.48V120.56H153.44V109.6Z" fill="var(--fill-0, #414965)"/>
<path id="Vector_169" d="M153.44 142.478H142.48V153.438H153.44V142.478Z" fill="var(--fill-0, #414965)"/>
<path id="Vector_170" d="M153.44 175.361H142.48V186.321H153.44V175.361Z" fill="var(--fill-0, #414965)"/>
<path id="Vector_171" d="M153.44 197.278H142.48V208.238H153.44V197.278Z" fill="var(--fill-0, #414965)"/>
<path id="Vector_172" d="M153.44 219.2H142.48V230.16H153.44V219.2Z" fill="var(--fill-0, #414965)"/>
<path id="Vector_173" d="M164.4 0H153.44V10.96H164.4V0Z" fill="var(--fill-0, #414965)"/>
<path id="Vector_174" d="M164.4 10.9585H153.44V21.9185H164.4V10.9585Z" fill="var(--fill-0, #414965)"/>
<path id="Vector_175" d="M164.4 21.922H153.44V32.882H164.4V21.922Z" fill="var(--fill-0, #414965)"/>
<path id="Vector_176" d="M164.4 65.7586H153.44V76.7186H164.4V65.7586Z" fill="var(--fill-0, #414965)"/>
<path id="Vector_177" d="M164.4 76.722H153.44V87.682H164.4V76.722Z" fill="var(--fill-0, #414965)"/>
<path id="Vector_178" d="M164.4 87.6781H153.44V98.6381H164.4V87.6781Z" fill="var(--fill-0, #414965)"/>
<path id="Vector_179" d="M164.4 142.478H153.44V153.438H164.4V142.478Z" fill="var(--fill-0, #414965)"/>
<path id="Vector_180" d="M164.4 175.361H153.44V186.321H164.4V175.361Z" fill="var(--fill-0, #414965)"/>
<path id="Vector_181" d="M164.4 186.322H153.44V197.282H164.4V186.322Z" fill="var(--fill-0, #414965)"/>
<path id="Vector_182" d="M164.4 197.278H153.44V208.238H164.4V197.278Z" fill="var(--fill-0, #414965)"/>
<path id="Vector_183" d="M164.4 219.2H153.44V230.16H164.4V219.2Z" fill="var(--fill-0, #414965)"/>
<path id="Vector_184" d="M164.4 241.122H153.44V252.082H164.4V241.122Z" fill="var(--fill-0, #414965)"/>
<path id="Vector_185" d="M175.36 76.722H164.4V87.682H175.36V76.722Z" fill="var(--fill-0, #414965)"/>
<path id="Vector_186" d="M175.36 98.6415H164.4V109.601H175.36V98.6415Z" fill="var(--fill-0, #414965)"/>
<path id="Vector_187" d="M175.36 109.6H164.4V120.56H175.36V109.6Z" fill="var(--fill-0, #414965)"/>
<path id="Vector_188" d="M175.36 131.522H164.4V142.482H175.36V131.522Z" fill="var(--fill-0, #414965)"/>
<path id="Vector_189" d="M175.36 142.478H164.4V153.438H175.36V142.478Z" fill="var(--fill-0, #414965)"/>
<path id="Vector_190" d="M175.36 153.441H164.4V164.401H175.36V153.441Z" fill="var(--fill-0, #414965)"/>
<path id="Vector_191" d="M175.36 164.4H164.4V175.36H175.36V164.4Z" fill="var(--fill-0, #414965)"/>
<path id="Vector_192" d="M175.36 175.361H164.4V186.321H175.36V175.361Z" fill="var(--fill-0, #414965)"/>
<path id="Vector_193" d="M175.36 186.322H164.4V197.282H175.36V186.322Z" fill="var(--fill-0, #414965)"/>
<path id="Vector_194" d="M175.36 208.242H164.4V219.202H175.36V208.242Z" fill="var(--fill-0, #414965)"/>
<path id="Vector_195" d="M175.36 219.2H164.4V230.16H175.36V219.2Z" fill="var(--fill-0, #414965)"/>
<path id="Vector_196" d="M175.36 230.161H164.4V241.121H175.36V230.161Z" fill="var(--fill-0, #414965)"/>
<path id="Vector_197" d="M186.32 10.9585H175.36V21.9185H186.32V10.9585Z" fill="var(--fill-0, #414965)"/>
<path id="Vector_198" d="M186.32 21.922H175.36V32.882H186.32V21.922Z" fill="var(--fill-0, #414965)"/>
<path id="Vector_199" d="M186.32 32.8781H175.36V43.8381H186.32V32.8781Z" fill="var(--fill-0, #414965)"/>
<path id="Vector_200" d="M186.32 43.839H175.36V54.799H186.32V43.839Z" fill="var(--fill-0, #414965)"/>
<path id="Vector_201" d="M186.32 65.7586H175.36V76.7186H186.32V65.7586Z" fill="var(--fill-0, #414965)"/>
<path id="Vector_202" d="M186.32 76.722H175.36V87.682H186.32V76.722Z" fill="var(--fill-0, #414965)"/>
<path id="Vector_203" d="M186.32 109.6H175.36V120.56H186.32V109.6Z" fill="var(--fill-0, #414965)"/>
<path id="Vector_204" d="M186.32 131.522H175.36V142.482H186.32V131.522Z" fill="var(--fill-0, #414965)"/>
<path id="Vector_205" d="M186.32 142.478H175.36V153.438H186.32V142.478Z" fill="var(--fill-0, #414965)"/>
<path id="Vector_206" d="M186.32 164.4H175.36V175.36H186.32V164.4Z" fill="var(--fill-0, #414965)"/>
<path id="Vector_207" d="M186.32 175.361H175.36V186.321H186.32V175.361Z" fill="var(--fill-0, #414965)"/>
<path id="Vector_208" d="M186.32 186.322H175.36V197.282H186.32V186.322Z" fill="var(--fill-0, #414965)"/>
<path id="Vector_209" d="M186.32 197.278H175.36V208.238H186.32V197.278Z" fill="var(--fill-0, #414965)"/>
<path id="Vector_210" d="M186.32 208.242H175.36V219.202H186.32V208.242Z" fill="var(--fill-0, #414965)"/>
<path id="Vector_211" d="M186.32 219.2H175.36V230.16H186.32V219.2Z" fill="var(--fill-0, #414965)"/>
<path id="Vector_212" d="M186.32 241.122H175.36V252.082H186.32V241.122Z" fill="var(--fill-0, #414965)"/>
<path id="Vector_213" d="M186.32 252.078H175.36V263.038H186.32V252.078Z" fill="var(--fill-0, #414965)"/>
<path id="Vector_214" d="M186.32 263.042H175.36V274.002H186.32V263.042Z" fill="var(--fill-0, #414965)"/>
<path id="Vector_215" d="M197.28 98.6415H186.32V109.601H197.28V98.6415Z" fill="var(--fill-0, #414965)"/>
<path id="Vector_216" d="M197.28 109.6H186.32V120.56H197.28V109.6Z" fill="var(--fill-0, #414965)"/>
<path id="Vector_217" d="M197.28 120.559H186.32V131.519H197.28V120.559Z" fill="var(--fill-0, #414965)"/>
<path id="Vector_218" d="M197.28 142.478H186.32V153.438H197.28V142.478Z" fill="var(--fill-0, #414965)"/>
<path id="Vector_219" d="M197.28 153.441H186.32V164.401H197.28V153.441Z" fill="var(--fill-0, #414965)"/>
<path id="Vector_220" d="M197.28 164.4H186.32V175.36H197.28V164.4Z" fill="var(--fill-0, #414965)"/>
<path id="Vector_221" d="M197.28 175.361H186.32V186.321H197.28V175.361Z" fill="var(--fill-0, #414965)"/>
<path id="Vector_222" d="M197.28 219.2H186.32V230.16H197.28V219.2Z" fill="var(--fill-0, #414965)"/>
<path id="Vector_223" d="M197.28 252.078H186.32V263.038H197.28V252.078Z" fill="var(--fill-0, #414965)"/>
<path id="Vector_224" d="M197.28 263.042H186.32V274.002H197.28V263.042Z" fill="var(--fill-0, #414965)"/>
<path id="Vector_225" d="M208.24 0H197.28V10.96H208.24V0Z" fill="var(--fill-0, #414965)"/>
<path id="Vector_226" d="M208.24 10.9585H197.28V21.9185H208.24V10.9585Z" fill="var(--fill-0, #414965)"/>
<path id="Vector_227" d="M208.24 21.922H197.28V32.882H208.24V21.922Z" fill="var(--fill-0, #414965)"/>
<path id="Vector_228" d="M208.24 32.8781H197.28V43.8381H208.24V32.8781Z" fill="var(--fill-0, #414965)"/>
<path id="Vector_229" d="M208.24 43.839H197.28V54.799H208.24V43.839Z" fill="var(--fill-0, #414965)"/>
<path id="Vector_230" d="M208.24 54.8H197.28V65.76H208.24V54.8Z" fill="var(--fill-0, #414965)"/>
<path id="Vector_231" d="M208.24 65.7586H197.28V76.7186H208.24V65.7586Z" fill="var(--fill-0, #414965)"/>
<path id="Vector_232" d="M208.24 109.6H197.28V120.56H208.24V109.6Z" fill="var(--fill-0, #414965)"/>
<path id="Vector_233" d="M208.24 131.522H197.28V142.482H208.24V131.522Z" fill="var(--fill-0, #414965)"/>
<path id="Vector_234" d="M208.24 153.441H197.28V164.401H208.24V153.441Z" fill="var(--fill-0, #414965)"/>
<path id="Vector_235" d="M208.24 175.361H197.28V186.321H208.24V175.361Z" fill="var(--fill-0, #414965)"/>
<path id="Vector_236" d="M208.24 197.278H197.28V208.238H208.24V197.278Z" fill="var(--fill-0, #414965)"/>
<path id="Vector_237" d="M208.24 219.2H197.28V230.16H208.24V219.2Z" fill="var(--fill-0, #414965)"/>
<path id="Vector_238" d="M208.24 230.161H197.28V241.121H208.24V230.161Z" fill="var(--fill-0, #414965)"/>
<path id="Vector_239" d="M219.2 0H208.24V10.96H219.2V0Z" fill="var(--fill-0, #414965)"/>
<path id="Vector_240" d="M219.2 65.7586H208.24V76.7186H219.2V65.7586Z" fill="var(--fill-0, #414965)"/>
<path id="Vector_241" d="M219.2 98.6415H208.24V109.601H219.2V98.6415Z" fill="var(--fill-0, #414965)"/>
<path id="Vector_242" d="M219.2 109.6H208.24V120.56H219.2V109.6Z" fill="var(--fill-0, #414965)"/>
<path id="Vector_243" d="M219.2 120.559H208.24V131.519H219.2V120.559Z" fill="var(--fill-0, #414965)"/>
<path id="Vector_244" d="M219.2 142.478H208.24V153.438H219.2V142.478Z" fill="var(--fill-0, #414965)"/>
<path id="Vector_245" d="M219.2 153.441H208.24V164.401H219.2V153.441Z" fill="var(--fill-0, #414965)"/>
<path id="Vector_246" d="M219.2 164.4H208.24V175.36H219.2V164.4Z" fill="var(--fill-0, #414965)"/>
<path id="Vector_247" d="M219.2 175.361H208.24V186.321H219.2V175.361Z" fill="var(--fill-0, #414965)"/>
<path id="Vector_248" d="M219.2 219.2H208.24V230.16H219.2V219.2Z" fill="var(--fill-0, #414965)"/>
<path id="Vector_249" d="M219.2 252.078H208.24V263.038H219.2V252.078Z" fill="var(--fill-0, #414965)"/>
<path id="Vector_250" d="M230.16 0H219.2V10.96H230.16V0Z" fill="var(--fill-0, #414965)"/>
<path id="Vector_251" d="M230.16 21.922H219.2V32.882H230.16V21.922Z" fill="var(--fill-0, #414965)"/>
<path id="Vector_252" d="M230.16 32.8781H219.2V43.8381H230.16V32.8781Z" fill="var(--fill-0, #414965)"/>
<path id="Vector_253" d="M230.16 43.839H219.2V54.799H230.16V43.839Z" fill="var(--fill-0, #414965)"/>
<path id="Vector_254" d="M230.16 65.7586H219.2V76.7186H230.16V65.7586Z" fill="var(--fill-0, #414965)"/>
<path id="Vector_255" d="M230.16 87.6781H219.2V98.6381H230.16V87.6781Z" fill="var(--fill-0, #414965)"/>
<path id="Vector_256" d="M230.16 98.6415H219.2V109.601H230.16V98.6415Z" fill="var(--fill-0, #414965)"/>
<path id="Vector_257" d="M230.16 109.6H219.2V120.56H230.16V109.6Z" fill="var(--fill-0, #414965)"/>
<path id="Vector_258" d="M230.16 153.441H219.2V164.401H230.16V153.441Z" fill="var(--fill-0, #414965)"/>
<path id="Vector_259" d="M230.16 175.361H219.2V186.321H230.16V175.361Z" fill="var(--fill-0, #414965)"/>
<path id="Vector_260" d="M230.16 186.322H219.2V197.282H230.16V186.322Z" fill="var(--fill-0, #414965)"/>
<path id="Vector_261" d="M230.16 197.278H219.2V208.238H230.16V197.278Z" fill="var(--fill-0, #414965)"/>
<path id="Vector_262" d="M230.16 208.242H219.2V219.202H230.16V208.242Z" fill="var(--fill-0, #414965)"/>
<path id="Vector_263" d="M230.16 219.2H219.2V230.16H230.16V219.2Z" fill="var(--fill-0, #414965)"/>
<path id="Vector_264" d="M230.16 252.078H219.2V263.038H230.16V252.078Z" fill="var(--fill-0, #414965)"/>
<path id="Vector_265" d="M241.12 0H230.16V10.96H241.12V0Z" fill="var(--fill-0, #414965)"/>
<path id="Vector_266" d="M241.12 21.922H230.16V32.882H241.12V21.922Z" fill="var(--fill-0, #414965)"/>
<path id="Vector_267" d="M241.12 32.8781H230.16V43.8381H241.12V32.8781Z" fill="var(--fill-0, #414965)"/>
<path id="Vector_268" d="M241.12 43.839H230.16V54.799H241.12V43.839Z" fill="var(--fill-0, #414965)"/>
<path id="Vector_269" d="M241.12 65.7586H230.16V76.7186H241.12V65.7586Z" fill="var(--fill-0, #414965)"/>
<path id="Vector_270" d="M241.12 87.6781H230.16V98.6381H241.12V87.6781Z" fill="var(--fill-0, #414965)"/>
<path id="Vector_271" d="M241.12 98.6415H230.16V109.601H241.12V98.6415Z" fill="var(--fill-0, #414965)"/>
<path id="Vector_272" d="M241.12 109.6H230.16V120.56H241.12V109.6Z" fill="var(--fill-0, #414965)"/>
<path id="Vector_273" d="M241.12 120.559H230.16V131.519H241.12V120.559Z" fill="var(--fill-0, #414965)"/>
<path id="Vector_274" d="M241.12 153.441H230.16V164.401H241.12V153.441Z" fill="var(--fill-0, #414965)"/>
<path id="Vector_275" d="M241.12 164.4H230.16V175.36H241.12V164.4Z" fill="var(--fill-0, #414965)"/>
<path id="Vector_276" d="M241.12 241.122H230.16V252.082H241.12V241.122Z" fill="var(--fill-0, #414965)"/>
<path id="Vector_277" d="M241.12 263.042H230.16V274.002H241.12V263.042Z" fill="var(--fill-0, #414965)"/>
<path id="Vector_278" d="M252.08 0H241.12V10.96H252.08V0Z" fill="var(--fill-0, #414965)"/>
<path id="Vector_279" d="M252.08 21.922H241.12V32.882H252.08V21.922Z" fill="var(--fill-0, #414965)"/>
<path id="Vector_280" d="M252.08 32.8781H241.12V43.8381H252.08V32.8781Z" fill="var(--fill-0, #414965)"/>
<path id="Vector_281" d="M252.08 43.839H241.12V54.799H252.08V43.839Z" fill="var(--fill-0, #414965)"/>
<path id="Vector_282" d="M252.08 65.7586H241.12V76.7186H252.08V65.7586Z" fill="var(--fill-0, #414965)"/>
<path id="Vector_283" d="M252.08 98.6415H241.12V109.601H252.08V98.6415Z" fill="var(--fill-0, #414965)"/>
<path id="Vector_284" d="M252.08 164.4H241.12V175.36H252.08V164.4Z" fill="var(--fill-0, #414965)"/>
<path id="Vector_285" d="M252.08 175.361H241.12V186.321H252.08V175.361Z" fill="var(--fill-0, #414965)"/>
<path id="Vector_286" d="M252.08 219.2H241.12V230.16H252.08V219.2Z" fill="var(--fill-0, #414965)"/>
<path id="Vector_287" d="M252.08 241.122H241.12V252.082H252.08V241.122Z" fill="var(--fill-0, #414965)"/>
<path id="Vector_288" d="M263.04 0H252.08V10.96H263.04V0Z" fill="var(--fill-0, #414965)"/>
<path id="Vector_289" d="M263.04 65.7586H252.08V76.7186H263.04V65.7586Z" fill="var(--fill-0, #414965)"/>
<path id="Vector_290" d="M263.04 98.6415H252.08V109.601H263.04V98.6415Z" fill="var(--fill-0, #414965)"/>
<path id="Vector_291" d="M263.04 109.6H252.08V120.56H263.04V109.6Z" fill="var(--fill-0, #414965)"/>
<path id="Vector_292" d="M263.04 142.478H252.08V153.438H263.04V142.478Z" fill="var(--fill-0, #414965)"/>
<path id="Vector_293" d="M263.04 153.441H252.08V164.401H263.04V153.441Z" fill="var(--fill-0, #414965)"/>
<path id="Vector_294" d="M263.04 208.242H252.08V219.202H263.04V208.242Z" fill="var(--fill-0, #414965)"/>
<path id="Vector_295" d="M263.04 219.2H252.08V230.16H263.04V219.2Z" fill="var(--fill-0, #414965)"/>
<path id="Vector_296" d="M263.04 230.161H252.08V241.121H263.04V230.161Z" fill="var(--fill-0, #414965)"/>
<path id="Vector_297" d="M274 0H263.04V10.96H274V0Z" fill="var(--fill-0, #414965)"/>
<path id="Vector_298" d="M274 10.9585H263.04V21.9185H274V10.9585Z" fill="var(--fill-0, #414965)"/>
<path id="Vector_299" d="M274 21.922H263.04V32.882H274V21.922Z" fill="var(--fill-0, #414965)"/>
<path id="Vector_300" d="M274 32.8781H263.04V43.8381H274V32.8781Z" fill="var(--fill-0, #414965)"/>
<path id="Vector_301" d="M274 43.839H263.04V54.799H274V43.839Z" fill="var(--fill-0, #414965)"/>
<path id="Vector_302" d="M274 54.8H263.04V65.76H274V54.8Z" fill="var(--fill-0, #414965)"/>
<path id="Vector_303" d="M274 65.7586H263.04V76.7186H274V65.7586Z" fill="var(--fill-0, #414965)"/>
<path id="Vector_304" d="M274 109.6H263.04V120.56H274V109.6Z" fill="var(--fill-0, #414965)"/>
<path id="Vector_305" d="M274 120.559H263.04V131.519H274V120.559Z" fill="var(--fill-0, #414965)"/>
<path id="Vector_306" d="M274 131.522H263.04V142.482H274V131.522Z" fill="var(--fill-0, #414965)"/>
<path id="Vector_307" d="M274 153.441H263.04V164.401H274V153.441Z" fill="var(--fill-0, #414965)"/>
<path id="Vector_308" d="M274 164.4H263.04V175.36H274V164.4Z" fill="var(--fill-0, #414965)"/>
<path id="Vector_309" d="M274 197.278H263.04V208.238H274V197.278Z" fill="var(--fill-0, #414965)"/>
<path id="Vector_310" d="M274 208.242H263.04V219.202H274V208.242Z" fill="var(--fill-0, #414965)"/>
<path id="Vector_311" d="M274 230.161H263.04V241.121H274V230.161Z" fill="var(--fill-0, #414965)"/>
<path id="Vector_312" d="M274 241.122H263.04V252.082H274V241.122Z" fill="var(--fill-0, #414965)"/>
<path id="Vector_313" d="M274 252.078H263.04V263.038H274V252.078Z" fill="var(--fill-0, #414965)"/>
<path id="Vector_314" d="M274 263.042H263.04V274.002H274V263.042Z" fill="var(--fill-0, #414965)"/>
</g>
</svg>
