<svg preserveAspectRatio="none" width="100%" height="100%" overflow="visible" style="display: block;" viewBox="0 0 12.1667 12.1667" fill="none" xmlns="http://www.w3.org/2000/svg">
<path id="Vector" d="M7.41667 7.41667V8.75H8.75M10.0833 7.41667H11.4167M11.4167 10.0833H10.0833V11.4167M7.41667 11.41V11.4167M8.75 4.75H10.0833C10.8197 4.75 11.4167 4.15305 11.4167 3.41667V2.08333C11.4167 1.34695 10.8197 0.75 10.0833 0.75H8.75C8.0136 0.75 7.41667 1.34695 7.41667 2.08333V3.41667C7.41667 4.15305 8.0136 4.75 8.75 4.75ZM2.08333 11.4167H3.41667C4.15305 11.4167 4.75 10.8197 4.75 10.0833V8.75C4.75 8.0136 4.15305 7.41667 3.41667 7.41667H2.08333C1.34695 7.41667 0.75 8.0136 0.75 8.75V10.0833C0.75 10.8197 1.34695 11.4167 2.08333 11.4167ZM2.08333 4.75H3.41667C4.15305 4.75 4.75 4.15305 4.75 3.41667V2.08333C4.75 1.34695 4.15305 0.75 3.41667 0.75H2.08333C1.34695 0.75 0.75 1.34695 0.75 2.08333V3.41667C0.75 4.15305 1.34695 4.75 2.08333 4.75Z" stroke="var(--stroke-0, #7631EE)" stroke-width="1.5" stroke-linecap="round" stroke-linejoin="round"/>
</svg>
